<mxfile host="app.diagrams.net" modified="2023-03-09T08:26:05.362Z" agent="5.0 (Windows NT 10.0; Win64; x64) AppleWebKit/537.36 (KHTML, like Gecko) Chrome/110.0.0.0 Safari/537.36" etag="dxOtq1-RZ35bwhyuxT5H" version="21.0.2" type="github" pages="2">
  <diagram id="frlQJ-Npt1x2va9xqSdP" name="Pagina-1">
    <mxGraphModel dx="1120" dy="452" grid="1" gridSize="10" guides="1" tooltips="1" connect="1" arrows="1" fold="1" page="1" pageScale="1" pageWidth="827" pageHeight="1169" math="0" shadow="0">
      <root>
        <mxCell id="0" />
        <mxCell id="1" parent="0" />
        <mxCell id="yGzMHYDaNf_yrKZ207rC-1" style="edgeStyle=orthogonalEdgeStyle;shape=link;rounded=0;orthogonalLoop=1;jettySize=auto;html=1;exitX=0.5;exitY=1;exitDx=0;exitDy=0;labelBackgroundColor=#FCE7CD;strokeColor=#23445D;" parent="1" source="yGzMHYDaNf_yrKZ207rC-2" edge="1">
          <mxGeometry relative="1" as="geometry">
            <mxPoint x="931.25" y="710" as="targetPoint" />
          </mxGeometry>
        </mxCell>
        <mxCell id="yGzMHYDaNf_yrKZ207rC-2" value="ELEMENTO" style="rounded=0;whiteSpace=wrap;html=1;fillColor=#182E3E;strokeColor=#FFFFFF;fontColor=#FFFFFF;" parent="1" vertex="1">
          <mxGeometry x="876.25" y="620" width="110" height="50" as="geometry" />
        </mxCell>
        <mxCell id="yGzMHYDaNf_yrKZ207rC-3" value="ARTICOLO_SCIENTIFICO" style="rounded=0;whiteSpace=wrap;html=1;fillColor=#182E3E;strokeColor=#FFFFFF;fontColor=#FFFFFF;" parent="1" vertex="1">
          <mxGeometry x="302.5" y="762.73" width="160" height="80" as="geometry" />
        </mxCell>
        <mxCell id="yGzMHYDaNf_yrKZ207rC-4" value="LIBRO" style="rounded=0;whiteSpace=wrap;html=1;fillColor=#182E3E;strokeColor=#FFFFFF;fontColor=#FFFFFF;" parent="1" vertex="1">
          <mxGeometry x="1080.42" y="778.73" width="115" height="50" as="geometry" />
        </mxCell>
        <mxCell id="yGzMHYDaNf_yrKZ207rC-5" value="Titolo" style="ellipse;whiteSpace=wrap;html=1;fillColor=#182E3E;strokeColor=#FFFFFF;fontColor=#FFFFFF;" parent="1" vertex="1">
          <mxGeometry x="779.71" y="580" width="60" height="40" as="geometry" />
        </mxCell>
        <mxCell id="yGzMHYDaNf_yrKZ207rC-6" value="" style="endArrow=none;html=1;rounded=0;exitX=1;exitY=1;exitDx=0;exitDy=0;labelBackgroundColor=#FCE7CD;strokeColor=#23445D;entryX=0;entryY=0;entryDx=0;entryDy=0;" parent="1" source="yGzMHYDaNf_yrKZ207rC-5" target="yGzMHYDaNf_yrKZ207rC-2" edge="1">
          <mxGeometry width="50" height="50" relative="1" as="geometry">
            <mxPoint x="886.25" y="600" as="sourcePoint" />
            <mxPoint x="936.25" y="550" as="targetPoint" />
          </mxGeometry>
        </mxCell>
        <mxCell id="yGzMHYDaNf_yrKZ207rC-7" value="DataPubblicazione" style="ellipse;whiteSpace=wrap;html=1;fillColor=#182E3E;strokeColor=#FFFFFF;fontColor=#FFFFFF;" parent="1" vertex="1">
          <mxGeometry x="806.25" y="530" width="120" height="45.58" as="geometry" />
        </mxCell>
        <mxCell id="yGzMHYDaNf_yrKZ207rC-8" value="" style="endArrow=none;html=1;rounded=0;entryX=0.5;entryY=1;entryDx=0;entryDy=0;labelBackgroundColor=#FCE7CD;strokeColor=#23445D;exitX=0.25;exitY=0;exitDx=0;exitDy=0;" parent="1" source="yGzMHYDaNf_yrKZ207rC-2" target="yGzMHYDaNf_yrKZ207rC-7" edge="1">
          <mxGeometry width="50" height="50" relative="1" as="geometry">
            <mxPoint x="926.25" y="620" as="sourcePoint" />
            <mxPoint x="976.25" y="570" as="targetPoint" />
          </mxGeometry>
        </mxCell>
        <mxCell id="yGzMHYDaNf_yrKZ207rC-9" value="Autore" style="ellipse;shape=doubleEllipse;whiteSpace=wrap;html=1;fillColor=#182E3E;strokeColor=#FFFFFF;fontColor=#FFFFFF;" parent="1" vertex="1">
          <mxGeometry x="1026.25" y="635.5799999999999" width="100" height="60" as="geometry" />
        </mxCell>
        <mxCell id="yGzMHYDaNf_yrKZ207rC-10" value="" style="endArrow=none;html=1;rounded=0;labelBackgroundColor=#FCE7CD;strokeColor=#23445D;entryX=0.5;entryY=1;entryDx=0;entryDy=0;" parent="1" source="yGzMHYDaNf_yrKZ207rC-4" target="yGzMHYDaNf_yrKZ207rC-9" edge="1">
          <mxGeometry width="50" height="50" relative="1" as="geometry">
            <mxPoint x="986.25" y="620" as="sourcePoint" />
            <mxPoint x="1051.25" y="710" as="targetPoint" />
          </mxGeometry>
        </mxCell>
        <mxCell id="yGzMHYDaNf_yrKZ207rC-11" value="Nome" style="ellipse;whiteSpace=wrap;html=1;fillColor=#182E3E;strokeColor=#FFFFFF;fontColor=#FFFFFF;" parent="1" vertex="1">
          <mxGeometry x="645.5899999999999" y="49.99999999999997" width="63.16" height="31.79" as="geometry" />
        </mxCell>
        <mxCell id="yGzMHYDaNf_yrKZ207rC-12" value="" style="endArrow=none;html=1;rounded=0;exitX=0.5;exitY=1;exitDx=0;exitDy=0;labelBackgroundColor=#FCE7CD;strokeColor=#23445D;" parent="1" source="yGzMHYDaNf_yrKZ207rC-11" target="yGzMHYDaNf_yrKZ207rC-93" edge="1">
          <mxGeometry width="50" height="50" relative="1" as="geometry">
            <mxPoint x="741.0799999999999" y="64.15999999999997" as="sourcePoint" />
            <mxPoint x="685.6427253755063" y="122.99607209926091" as="targetPoint" />
          </mxGeometry>
        </mxCell>
        <mxCell id="yGzMHYDaNf_yrKZ207rC-13" value="Cognome" style="ellipse;whiteSpace=wrap;html=1;fillColor=#182E3E;strokeColor=#FFFFFF;fontColor=#FFFFFF;" parent="1" vertex="1">
          <mxGeometry x="719.9600000000002" y="59.99999999999999" width="80" height="37.11" as="geometry" />
        </mxCell>
        <mxCell id="yGzMHYDaNf_yrKZ207rC-14" value="" style="endArrow=none;html=1;rounded=0;entryX=0.5;entryY=1;entryDx=0;entryDy=0;labelBackgroundColor=#FCE7CD;strokeColor=#23445D;" parent="1" source="yGzMHYDaNf_yrKZ207rC-93" target="yGzMHYDaNf_yrKZ207rC-13" edge="1">
          <mxGeometry width="50" height="50" relative="1" as="geometry">
            <mxPoint x="707.5788727102183" y="124.51114052687626" as="sourcePoint" />
            <mxPoint x="771.9100000000001" y="83" as="targetPoint" />
          </mxGeometry>
        </mxCell>
        <mxCell id="yGzMHYDaNf_yrKZ207rC-15" value="Editore" style="ellipse;whiteSpace=wrap;html=1;fillColor=#182E3E;strokeColor=#FFFFFF;fontColor=#FFFFFF;" parent="1" vertex="1">
          <mxGeometry x="968.75" y="512.98" width="80" height="50" as="geometry" />
        </mxCell>
        <mxCell id="yGzMHYDaNf_yrKZ207rC-16" value="" style="endArrow=none;html=1;rounded=0;exitX=0.5;exitY=1;exitDx=0;exitDy=0;entryX=1;entryY=0.75;entryDx=0;entryDy=0;labelBackgroundColor=#FCE7CD;strokeColor=#23445D;" parent="1" source="yGzMHYDaNf_yrKZ207rC-15" target="yGzMHYDaNf_yrKZ207rC-117" edge="1">
          <mxGeometry width="50" height="50" relative="1" as="geometry">
            <mxPoint x="1006.25" y="690" as="sourcePoint" />
            <mxPoint x="1056.25" y="640" as="targetPoint" />
          </mxGeometry>
        </mxCell>
        <mxCell id="yGzMHYDaNf_yrKZ207rC-17" value="Fruizione" style="ellipse;whiteSpace=wrap;html=1;fillColor=#182E3E;strokeColor=#FFFFFF;fontColor=#FFFFFF;" parent="1" vertex="1">
          <mxGeometry x="616.2500000000001" y="530" width="90" height="55" as="geometry" />
        </mxCell>
        <mxCell id="yGzMHYDaNf_yrKZ207rC-20" value="COLLANA" style="shape=ext;margin=3;double=1;whiteSpace=wrap;html=1;align=center;fillStyle=auto;strokeColor=#F5F5F5;fontColor=#F5F5F5;fillColor=#182E3E;" parent="1" vertex="1">
          <mxGeometry x="1437.92" y="773.73" width="120" height="60" as="geometry" />
        </mxCell>
        <mxCell id="yGzMHYDaNf_yrKZ207rC-21" value="&lt;font color=&quot;#f5f5f5&quot;&gt;APPARTENENZA&lt;/font&gt;" style="shape=rhombus;double=1;perimeter=rhombusPerimeter;whiteSpace=wrap;html=1;align=center;fillColor=#182E3E;fillStyle=auto;strokeColor=#F5F5F5;" parent="1" vertex="1">
          <mxGeometry x="1262.92" y="763.73" width="120" height="80" as="geometry" />
        </mxCell>
        <mxCell id="yGzMHYDaNf_yrKZ207rC-22" value="" style="endArrow=none;html=1;rounded=0;entryX=0;entryY=0.5;entryDx=0;entryDy=0;exitX=1;exitY=0.5;exitDx=0;exitDy=0;labelBackgroundColor=#FCE7CD;strokeColor=#23445D;fontColor=#000000;" parent="1" source="yGzMHYDaNf_yrKZ207rC-4" target="yGzMHYDaNf_yrKZ207rC-21" edge="1">
          <mxGeometry width="50" height="50" relative="1" as="geometry">
            <mxPoint x="1097.92" y="813.73" as="sourcePoint" />
            <mxPoint x="1147.92" y="763.73" as="targetPoint" />
          </mxGeometry>
        </mxCell>
        <mxCell id="yGzMHYDaNf_yrKZ207rC-23" value="N" style="text;html=1;strokeColor=none;fillColor=none;align=center;verticalAlign=middle;whiteSpace=wrap;rounded=0;fontColor=#000000;" parent="1" vertex="1">
          <mxGeometry x="1377.92" y="803.73" width="60" height="30" as="geometry" />
        </mxCell>
        <mxCell id="yGzMHYDaNf_yrKZ207rC-24" value="N" style="text;html=1;strokeColor=none;fillColor=none;align=center;verticalAlign=middle;whiteSpace=wrap;rounded=0;fontColor=#000000;" parent="1" vertex="1">
          <mxGeometry x="1200.92" y="803.73" width="60" height="30" as="geometry" />
        </mxCell>
        <mxCell id="yGzMHYDaNf_yrKZ207rC-25" value="(2,N)" style="text;html=1;strokeColor=none;fillColor=none;align=center;verticalAlign=middle;whiteSpace=wrap;rounded=0;fontColor=#000000;" parent="1" vertex="1">
          <mxGeometry x="1377.92" y="773.98" width="60" height="30" as="geometry" />
        </mxCell>
        <mxCell id="yGzMHYDaNf_yrKZ207rC-26" value="(0,N)" style="text;html=1;strokeColor=none;fillColor=none;align=center;verticalAlign=middle;whiteSpace=wrap;rounded=0;fontColor=#000000;" parent="1" vertex="1">
          <mxGeometry x="1195.42" y="773.8499999999999" width="60" height="30" as="geometry" />
        </mxCell>
        <mxCell id="yGzMHYDaNf_yrKZ207rC-27" value="DataP" style="ellipse;whiteSpace=wrap;html=1;fillColor=#182E3E;strokeColor=#FFFFFF;fontColor=#FFFFFF;" parent="1" vertex="1">
          <mxGeometry x="1061.26" y="1083.73" width="70" height="40" as="geometry" />
        </mxCell>
        <mxCell id="yGzMHYDaNf_yrKZ207rC-28" value="" style="endArrow=none;html=1;rounded=0;exitX=1;exitY=0.5;exitDx=0;exitDy=0;labelBackgroundColor=#FCE7CD;strokeColor=#23445D;fontColor=#000000;" parent="1" target="XhCrg1R68w2tLpCAlJi1-1" edge="1">
          <mxGeometry width="50" height="50" relative="1" as="geometry">
            <mxPoint x="1192.92" y="1023.73" as="sourcePoint" />
            <mxPoint x="1237.92" y="1023.73" as="targetPoint" />
          </mxGeometry>
        </mxCell>
        <mxCell id="yGzMHYDaNf_yrKZ207rC-29" value="" style="endArrow=none;html=1;rounded=0;exitX=0.5;exitY=0;exitDx=0;exitDy=0;entryX=0.25;entryY=1;entryDx=0;entryDy=0;labelBackgroundColor=#FCE7CD;strokeColor=#23445D;" parent="1" source="yGzMHYDaNf_yrKZ207rC-27" edge="1">
          <mxGeometry width="50" height="50" relative="1" as="geometry">
            <mxPoint x="1117.92" y="983.73" as="sourcePoint" />
            <mxPoint x="1110.42" y="1053.73" as="targetPoint" />
          </mxGeometry>
        </mxCell>
        <mxCell id="yGzMHYDaNf_yrKZ207rC-30" value="d" style="ellipse;whiteSpace=wrap;html=1;aspect=fixed;fillColor=#182E3E;strokeColor=#FFFFFF;fontColor=#FFFFFF;" parent="1" vertex="1">
          <mxGeometry x="911.25" y="710" width="40" height="40" as="geometry" />
        </mxCell>
        <mxCell id="yGzMHYDaNf_yrKZ207rC-31" value="" style="endArrow=none;html=1;rounded=0;entryX=1;entryY=1;entryDx=0;entryDy=0;startArrow=none;labelBackgroundColor=#FCE7CD;strokeColor=#23445D;exitX=0;exitY=0;exitDx=0;exitDy=0;" parent="1" source="yGzMHYDaNf_yrKZ207rC-4" target="yGzMHYDaNf_yrKZ207rC-30" edge="1">
          <mxGeometry width="50" height="50" relative="1" as="geometry">
            <mxPoint x="1071.25" y="760" as="sourcePoint" />
            <mxPoint x="886.25" y="720" as="targetPoint" />
          </mxGeometry>
        </mxCell>
        <mxCell id="yGzMHYDaNf_yrKZ207rC-32" value="" style="endArrow=none;html=1;rounded=0;entryX=0;entryY=1;entryDx=0;entryDy=0;labelBackgroundColor=#FCE7CD;strokeColor=#23445D;exitX=1;exitY=0;exitDx=0;exitDy=0;" parent="1" source="w9Sq0cVRaScrMqvzQ0N7-1" target="yGzMHYDaNf_yrKZ207rC-30" edge="1">
          <mxGeometry width="50" height="50" relative="1" as="geometry">
            <mxPoint x="820" y="740" as="sourcePoint" />
            <mxPoint x="904.1478643762689" y="691.9421356237312" as="targetPoint" />
          </mxGeometry>
        </mxCell>
        <mxCell id="yGzMHYDaNf_yrKZ207rC-33" value="" style="endArrow=none;html=1;rounded=0;entryX=0.5;entryY=1;entryDx=0;entryDy=0;labelBackgroundColor=#FCE7CD;strokeColor=#23445D;fontColor=#000000;" parent="1" target="yGzMHYDaNf_yrKZ207rC-4" edge="1">
          <mxGeometry width="50" height="50" relative="1" as="geometry">
            <mxPoint x="1137.531695906433" y="873.73" as="sourcePoint" />
            <mxPoint x="1017.9200000000001" y="793.73" as="targetPoint" />
          </mxGeometry>
        </mxCell>
        <mxCell id="yGzMHYDaNf_yrKZ207rC-34" value="" style="endArrow=none;html=1;rounded=0;entryX=0.51;entryY=0.968;entryDx=0;entryDy=0;entryPerimeter=0;labelBackgroundColor=#FCE7CD;strokeColor=#23445D;fontColor=#000000;" parent="1" source="yGzMHYDaNf_yrKZ207rC-201" edge="1">
          <mxGeometry width="50" height="50" relative="1" as="geometry">
            <mxPoint x="1137.9200000000005" y="993.73" as="sourcePoint" />
            <mxPoint x="1138.6066" y="961.8179999999998" as="targetPoint" />
          </mxGeometry>
        </mxCell>
        <mxCell id="yGzMHYDaNf_yrKZ207rC-35" value="N" style="text;html=1;strokeColor=none;fillColor=none;align=center;verticalAlign=middle;whiteSpace=wrap;rounded=0;fontColor=#000000;" parent="1" vertex="1">
          <mxGeometry x="1117.93" y="973.73" width="60" height="30" as="geometry" />
        </mxCell>
        <mxCell id="yGzMHYDaNf_yrKZ207rC-36" value="1" style="text;html=1;strokeColor=none;fillColor=none;align=center;verticalAlign=middle;whiteSpace=wrap;rounded=0;fontColor=#000000;" parent="1" vertex="1">
          <mxGeometry x="1121.26" y="823.25" width="60" height="30" as="geometry" />
        </mxCell>
        <mxCell id="yGzMHYDaNf_yrKZ207rC-37" value="(0,N)" style="text;html=1;strokeColor=none;fillColor=none;align=center;verticalAlign=middle;whiteSpace=wrap;rounded=0;fontColor=#000000;" parent="1" vertex="1">
          <mxGeometry x="1086.25" y="823.25" width="60" height="30" as="geometry" />
        </mxCell>
        <mxCell id="yGzMHYDaNf_yrKZ207rC-38" value="(1,1)" style="text;html=1;strokeColor=none;fillColor=none;align=center;verticalAlign=middle;whiteSpace=wrap;rounded=0;fontColor=#000000;" parent="1" vertex="1">
          <mxGeometry x="1087.92" y="972.73" width="60" height="30" as="geometry" />
        </mxCell>
        <mxCell id="yGzMHYDaNf_yrKZ207rC-40" value="DataNascita" style="ellipse;whiteSpace=wrap;html=1;fillColor=#182E3E;strokeColor=#FFFFFF;fontColor=#FFFFFF;" parent="1" vertex="1">
          <mxGeometry x="1074.1700000000003" y="550" width="95" height="50" as="geometry" />
        </mxCell>
        <mxCell id="yGzMHYDaNf_yrKZ207rC-41" value="" style="endArrow=none;html=1;rounded=0;exitX=1;exitY=0.25;exitDx=0;exitDy=0;labelBackgroundColor=#FCE7CD;strokeColor=#23445D;entryX=0;entryY=0.5;entryDx=0;entryDy=0;" parent="1" source="yGzMHYDaNf_yrKZ207rC-93" target="yGzMHYDaNf_yrKZ207rC-94" edge="1">
          <mxGeometry width="50" height="50" relative="1" as="geometry">
            <mxPoint x="727.2653390593275" y="131.7867965644034" as="sourcePoint" />
            <mxPoint x="778.75" y="91.78999999999996" as="targetPoint" />
          </mxGeometry>
        </mxCell>
        <mxCell id="yGzMHYDaNf_yrKZ207rC-44" value="" style="endArrow=none;html=1;rounded=0;entryX=0;entryY=0.5;entryDx=0;entryDy=0;labelBackgroundColor=#FCE7CD;strokeColor=#23445D;fontColor=#000000;" parent="1" source="yGzMHYDaNf_yrKZ207rC-21" target="yGzMHYDaNf_yrKZ207rC-20" edge="1">
          <mxGeometry width="50" height="50" relative="1" as="geometry">
            <mxPoint x="1277.92" y="863.73" as="sourcePoint" />
            <mxPoint x="1327.92" y="813.73" as="targetPoint" />
          </mxGeometry>
        </mxCell>
        <mxCell id="yGzMHYDaNf_yrKZ207rC-45" value="Nazionalità" style="ellipse;whiteSpace=wrap;html=1;strokeColor=#FFFFFF;fontColor=#FFFFFF;fillColor=#182E3E;" parent="1" vertex="1">
          <mxGeometry x="1147.9199999999998" y="621" width="95" height="50" as="geometry" />
        </mxCell>
        <mxCell id="yGzMHYDaNf_yrKZ207rC-46" value="" style="endArrow=none;html=1;rounded=0;strokeColor=#23445D;entryX=0;entryY=0.5;entryDx=0;entryDy=0;exitX=1;exitY=0.5;exitDx=0;exitDy=0;" parent="1" source="yGzMHYDaNf_yrKZ207rC-9" target="yGzMHYDaNf_yrKZ207rC-45" edge="1">
          <mxGeometry width="50" height="50" relative="1" as="geometry">
            <mxPoint x="1008.3399999999999" y="581.03" as="sourcePoint" />
            <mxPoint x="1058.34" y="531.03" as="targetPoint" />
          </mxGeometry>
        </mxCell>
        <mxCell id="yGzMHYDaNf_yrKZ207rC-49" value="" style="shape=requiredInterface;html=1;verticalLabelPosition=bottom;sketch=0;strokeColor=#000000;fontColor=#000000;fillColor=none;rotation=15;" parent="1" vertex="1">
          <mxGeometry x="989.5900000000001" y="751.31" width="10" height="10" as="geometry" />
        </mxCell>
        <mxCell id="yGzMHYDaNf_yrKZ207rC-50" value="" style="shape=requiredInterface;html=1;verticalLabelPosition=bottom;sketch=0;strokeColor=#000000;fontColor=#000000;fillColor=none;rotation=-200;" parent="1" vertex="1">
          <mxGeometry x="883.25" y="750.31" width="10" height="10" as="geometry" />
        </mxCell>
        <mxCell id="yGzMHYDaNf_yrKZ207rC-51" value="Lingua" style="ellipse;whiteSpace=wrap;html=1;fillColor=#182E3E;strokeColor=#FFFFFF;fontColor=#FFFFFF;" parent="1" vertex="1">
          <mxGeometry x="1207.92" y="872.7299999999999" width="70" height="40" as="geometry" />
        </mxCell>
        <mxCell id="yGzMHYDaNf_yrKZ207rC-52" value="Genere" style="ellipse;whiteSpace=wrap;html=1;fillColor=#182E3E;strokeColor=#FFFFFF;fontColor=#FFFFFF;" parent="1" vertex="1">
          <mxGeometry x="1135.01" y="716.8599999999999" width="66.66" height="39.38" as="geometry" />
        </mxCell>
        <mxCell id="yGzMHYDaNf_yrKZ207rC-53" value="" style="endArrow=none;html=1;rounded=0;strokeColor=#23445D;fontColor=#000000;entryX=0.5;entryY=1;entryDx=0;entryDy=0;" parent="1" source="yGzMHYDaNf_yrKZ207rC-4" target="yGzMHYDaNf_yrKZ207rC-52" edge="1">
          <mxGeometry width="50" height="50" relative="1" as="geometry">
            <mxPoint x="1117.92" y="813.73" as="sourcePoint" />
            <mxPoint x="1167.92" y="763.73" as="targetPoint" />
          </mxGeometry>
        </mxCell>
        <mxCell id="yGzMHYDaNf_yrKZ207rC-54" value="ISBN" style="ellipse;whiteSpace=wrap;html=1;fillColor=#182E3E;strokeColor=#FFFFFF;fontColor=#FFFFFF;" parent="1" vertex="1">
          <mxGeometry x="1222.92" y="828.8900000000001" width="60" height="39.69" as="geometry" />
        </mxCell>
        <mxCell id="yGzMHYDaNf_yrKZ207rC-55" value="" style="endArrow=none;html=1;rounded=0;strokeColor=#23445D;fontColor=#000000;exitX=0;exitY=0.5;exitDx=0;exitDy=0;entryX=1;entryY=1;entryDx=0;entryDy=0;" parent="1" source="yGzMHYDaNf_yrKZ207rC-54" target="yGzMHYDaNf_yrKZ207rC-4" edge="1">
          <mxGeometry width="50" height="50" relative="1" as="geometry">
            <mxPoint x="1315.41" y="878.5799999999999" as="sourcePoint" />
            <mxPoint x="1277.09" y="863.9000000000001" as="targetPoint" />
          </mxGeometry>
        </mxCell>
        <mxCell id="yGzMHYDaNf_yrKZ207rC-56" value="Ora" style="ellipse;whiteSpace=wrap;html=1;fillColor=#182E3E;strokeColor=#FFFFFF;fontColor=#FFFFFF;" parent="1" vertex="1">
          <mxGeometry x="1147.92" y="1083.73" width="70" height="40" as="geometry" />
        </mxCell>
        <mxCell id="yGzMHYDaNf_yrKZ207rC-57" value="" style="endArrow=none;html=1;rounded=0;exitX=0.5;exitY=0;exitDx=0;exitDy=0;entryX=0.75;entryY=1;entryDx=0;entryDy=0;labelBackgroundColor=#FCE7CD;strokeColor=#23445D;" parent="1" source="yGzMHYDaNf_yrKZ207rC-56" edge="1">
          <mxGeometry width="50" height="50" relative="1" as="geometry">
            <mxPoint x="1204.58" y="983.73" as="sourcePoint" />
            <mxPoint x="1165.42" y="1053.73" as="targetPoint" />
          </mxGeometry>
        </mxCell>
        <mxCell id="yGzMHYDaNf_yrKZ207rC-58" value="RIVISTA" style="shape=ext;margin=3;whiteSpace=wrap;html=1;align=center;fillStyle=auto;strokeColor=#F5F5F5;fontColor=#F5F5F5;fillColor=#182E3E;" parent="1" vertex="1">
          <mxGeometry x="732.0299999999999" y="992.72" width="121.42" height="57.5" as="geometry" />
        </mxCell>
        <mxCell id="yGzMHYDaNf_yrKZ207rC-59" value="CONFERENZA" style="shape=ext;margin=3;whiteSpace=wrap;html=1;align=center;fillStyle=auto;strokeColor=#F5F5F5;fontColor=#F5F5F5;fillColor=#182E3E;" parent="1" vertex="1">
          <mxGeometry x="312.5" y="1000" width="140" height="70" as="geometry" />
        </mxCell>
        <mxCell id="yGzMHYDaNf_yrKZ207rC-60" value="Argomento" style="ellipse;whiteSpace=wrap;html=1;fillColor=#182E3E;strokeColor=#FFFFFF;fontColor=#FFFFFF;" parent="1" vertex="1">
          <mxGeometry x="656.2499999999999" y="939.9999999999999" width="80" height="35" as="geometry" />
        </mxCell>
        <mxCell id="yGzMHYDaNf_yrKZ207rC-61" value="" style="endArrow=none;html=1;rounded=0;strokeColor=#23445D;fontColor=#000000;entryX=1;entryY=1;entryDx=0;entryDy=0;exitX=0.25;exitY=0;exitDx=0;exitDy=0;" parent="1" source="yGzMHYDaNf_yrKZ207rC-58" target="yGzMHYDaNf_yrKZ207rC-60" edge="1">
          <mxGeometry width="50" height="50" relative="1" as="geometry">
            <mxPoint x="821.3699999999999" y="1068.74" as="sourcePoint" />
            <mxPoint x="926.3699999999999" y="1143.74" as="targetPoint" />
          </mxGeometry>
        </mxCell>
        <mxCell id="yGzMHYDaNf_yrKZ207rC-62" value="Nome" style="ellipse;whiteSpace=wrap;html=1;fillColor=#182E3E;strokeColor=#FFFFFF;fontColor=#FFFFFF;" parent="1" vertex="1">
          <mxGeometry x="810.3299999999998" y="1137.4" width="61.26" height="41.25" as="geometry" />
        </mxCell>
        <mxCell id="yGzMHYDaNf_yrKZ207rC-63" value="Cognome" style="ellipse;whiteSpace=wrap;html=1;fillColor=#182E3E;strokeColor=#FFFFFF;fontColor=#FFFFFF;" parent="1" vertex="1">
          <mxGeometry x="708.7499999999998" y="1137.4" width="80" height="40" as="geometry" />
        </mxCell>
        <mxCell id="yGzMHYDaNf_yrKZ207rC-71" value="Responsabile" style="ellipse;whiteSpace=wrap;html=1;fillColor=#182E3E;strokeColor=#FFFFFF;fontColor=#FFFFFF;" parent="1" vertex="1">
          <mxGeometry x="739.9599999999998" y="1070" width="105.58" height="53.75" as="geometry" />
        </mxCell>
        <mxCell id="yGzMHYDaNf_yrKZ207rC-73" value="Luogo" style="ellipse;whiteSpace=wrap;html=1;fillColor=#182E3E;strokeColor=#FFFFFF;fontColor=#FFFFFF;" parent="1" vertex="1">
          <mxGeometry x="202.08000000000004" y="1070" width="70" height="40" as="geometry" />
        </mxCell>
        <mxCell id="yGzMHYDaNf_yrKZ207rC-74" value="" style="endArrow=none;html=1;rounded=0;strokeColor=#23445D;fontColor=#000000;entryX=0;entryY=0.5;entryDx=0;entryDy=0;" parent="1" target="yGzMHYDaNf_yrKZ207rC-59" edge="1">
          <mxGeometry width="50" height="50" relative="1" as="geometry">
            <mxPoint x="241.25" y="1070" as="sourcePoint" />
            <mxPoint x="540" y="1033.73" as="targetPoint" />
          </mxGeometry>
        </mxCell>
        <mxCell id="yGzMHYDaNf_yrKZ207rC-75" value="DataInizio" style="ellipse;whiteSpace=wrap;html=1;fillColor=#182E3E;strokeColor=#FFFFFF;fontColor=#FFFFFF;" parent="1" vertex="1">
          <mxGeometry x="335" y="1110" width="95" height="50" as="geometry" />
        </mxCell>
        <mxCell id="yGzMHYDaNf_yrKZ207rC-76" value="" style="endArrow=none;html=1;rounded=0;strokeColor=#23445D;fontColor=#000000;exitX=0.5;exitY=0;exitDx=0;exitDy=0;entryX=0.5;entryY=1;entryDx=0;entryDy=0;" parent="1" source="yGzMHYDaNf_yrKZ207rC-75" target="yGzMHYDaNf_yrKZ207rC-59" edge="1">
          <mxGeometry width="50" height="50" relative="1" as="geometry">
            <mxPoint x="490" y="1083.73" as="sourcePoint" />
            <mxPoint x="540" y="1033.73" as="targetPoint" />
          </mxGeometry>
        </mxCell>
        <mxCell id="yGzMHYDaNf_yrKZ207rC-77" value="DataFine" style="ellipse;whiteSpace=wrap;html=1;fillColor=#182E3E;strokeColor=#FFFFFF;fontColor=#FFFFFF;" parent="1" vertex="1">
          <mxGeometry x="458.6700000000001" y="1108.73" width="95" height="50" as="geometry" />
        </mxCell>
        <mxCell id="yGzMHYDaNf_yrKZ207rC-78" value="" style="endArrow=none;html=1;rounded=0;strokeColor=#23445D;fontColor=#000000;exitX=0.5;exitY=0;exitDx=0;exitDy=0;entryX=1;entryY=1;entryDx=0;entryDy=0;" parent="1" source="yGzMHYDaNf_yrKZ207rC-77" target="yGzMHYDaNf_yrKZ207rC-59" edge="1">
          <mxGeometry width="50" height="50" relative="1" as="geometry">
            <mxPoint x="490" y="1083.73" as="sourcePoint" />
            <mxPoint x="540" y="1033.73" as="targetPoint" />
          </mxGeometry>
        </mxCell>
        <mxCell id="yGzMHYDaNf_yrKZ207rC-79" value="LuogoConferenza" style="ellipse;whiteSpace=wrap;html=1;fillColor=#182E3E;strokeColor=#FFFFFF;fontColor=#FFFFFF;" parent="1" vertex="1">
          <mxGeometry x="80" y="1110" width="130" height="50" as="geometry" />
        </mxCell>
        <mxCell id="yGzMHYDaNf_yrKZ207rC-80" value="" style="endArrow=none;html=1;rounded=0;strokeColor=#23445D;fontColor=#000000;exitX=0.5;exitY=0;exitDx=0;exitDy=0;entryX=0;entryY=0.5;entryDx=0;entryDy=0;" parent="1" source="yGzMHYDaNf_yrKZ207rC-79" target="yGzMHYDaNf_yrKZ207rC-73" edge="1">
          <mxGeometry width="50" height="50" relative="1" as="geometry">
            <mxPoint x="392.5" y="1173.73" as="sourcePoint" />
            <mxPoint x="442.5" y="1123.73" as="targetPoint" />
          </mxGeometry>
        </mxCell>
        <mxCell id="yGzMHYDaNf_yrKZ207rC-81" value="StrutturaOrganizzatrice" style="ellipse;whiteSpace=wrap;html=1;fillColor=#182E3E;strokeColor=#FFFFFF;fontColor=#FFFFFF;" parent="1" vertex="1">
          <mxGeometry x="252.5" y="1173.73" width="150" height="60" as="geometry" />
        </mxCell>
        <mxCell id="yGzMHYDaNf_yrKZ207rC-82" value="" style="endArrow=none;html=1;rounded=0;strokeColor=#23445D;fontColor=#000000;exitX=1;exitY=1;exitDx=0;exitDy=0;entryX=0.5;entryY=0;entryDx=0;entryDy=0;" parent="1" source="yGzMHYDaNf_yrKZ207rC-73" target="yGzMHYDaNf_yrKZ207rC-81" edge="1">
          <mxGeometry width="50" height="50" relative="1" as="geometry">
            <mxPoint x="392.5" y="1173.73" as="sourcePoint" />
            <mxPoint x="442.5" y="1123.73" as="targetPoint" />
          </mxGeometry>
        </mxCell>
        <mxCell id="yGzMHYDaNf_yrKZ207rC-83" value="Nazione" style="ellipse;whiteSpace=wrap;html=1;fillColor=#182E3E;strokeColor=#FFFFFF;fontColor=#FFFFFF;" parent="1" vertex="1">
          <mxGeometry x="40" y="1160" width="70" height="40" as="geometry" />
        </mxCell>
        <mxCell id="yGzMHYDaNf_yrKZ207rC-84" value="" style="endArrow=none;html=1;rounded=0;strokeColor=#23445D;fontColor=#000000;entryX=0;entryY=1;entryDx=0;entryDy=0;exitX=0.5;exitY=0;exitDx=0;exitDy=0;" parent="1" source="yGzMHYDaNf_yrKZ207rC-83" target="yGzMHYDaNf_yrKZ207rC-79" edge="1">
          <mxGeometry width="50" height="50" relative="1" as="geometry">
            <mxPoint x="55" y="1243.73" as="sourcePoint" />
            <mxPoint x="105" y="1193.73" as="targetPoint" />
          </mxGeometry>
        </mxCell>
        <mxCell id="yGzMHYDaNf_yrKZ207rC-85" value="Città" style="ellipse;whiteSpace=wrap;html=1;fillColor=#182E3E;strokeColor=#FFFFFF;fontColor=#FFFFFF;" parent="1" vertex="1">
          <mxGeometry x="110" y="1200" width="70" height="40" as="geometry" />
        </mxCell>
        <mxCell id="yGzMHYDaNf_yrKZ207rC-86" value="" style="endArrow=none;html=1;rounded=0;strokeColor=#23445D;fontColor=#000000;exitX=0.5;exitY=0;exitDx=0;exitDy=0;entryX=0.5;entryY=1;entryDx=0;entryDy=0;" parent="1" source="yGzMHYDaNf_yrKZ207rC-85" target="yGzMHYDaNf_yrKZ207rC-79" edge="1">
          <mxGeometry width="50" height="50" relative="1" as="geometry">
            <mxPoint x="182.5" y="1263.73" as="sourcePoint" />
            <mxPoint x="232.5" y="1213.73" as="targetPoint" />
          </mxGeometry>
        </mxCell>
        <mxCell id="yGzMHYDaNf_yrKZ207rC-87" value="Indirizzo" style="ellipse;whiteSpace=wrap;html=1;fillColor=#182E3E;strokeColor=#FFFFFF;fontColor=#FFFFFF;" parent="1" vertex="1">
          <mxGeometry x="174.15999999999997" y="1160" width="70" height="40" as="geometry" />
        </mxCell>
        <mxCell id="yGzMHYDaNf_yrKZ207rC-88" value="" style="endArrow=none;html=1;rounded=0;strokeColor=#23445D;fontColor=#000000;exitX=0;exitY=0;exitDx=0;exitDy=0;entryX=0.726;entryY=1.017;entryDx=0;entryDy=0;entryPerimeter=0;" parent="1" source="yGzMHYDaNf_yrKZ207rC-87" target="yGzMHYDaNf_yrKZ207rC-79" edge="1">
          <mxGeometry width="50" height="50" relative="1" as="geometry">
            <mxPoint x="207.5" y="1233.73" as="sourcePoint" />
            <mxPoint x="257.5" y="1183.73" as="targetPoint" />
          </mxGeometry>
        </mxCell>
        <mxCell id="yGzMHYDaNf_yrKZ207rC-89" value="" style="endArrow=none;html=1;rounded=0;strokeColor=#23445D;fontColor=#000000;entryX=0.5;entryY=0;entryDx=0;entryDy=0;exitX=0;exitY=1;exitDx=0;exitDy=0;" parent="1" source="yGzMHYDaNf_yrKZ207rC-71" target="yGzMHYDaNf_yrKZ207rC-63" edge="1">
          <mxGeometry width="50" height="50" relative="1" as="geometry">
            <mxPoint x="597.5099999999999" y="1134.64" as="sourcePoint" />
            <mxPoint x="647.5099999999999" y="1084.64" as="targetPoint" />
          </mxGeometry>
        </mxCell>
        <mxCell id="yGzMHYDaNf_yrKZ207rC-90" value="" style="endArrow=none;html=1;rounded=0;strokeColor=#23445D;fontColor=#000000;exitX=0.5;exitY=0;exitDx=0;exitDy=0;entryX=1;entryY=1;entryDx=0;entryDy=0;" parent="1" source="yGzMHYDaNf_yrKZ207rC-62" target="yGzMHYDaNf_yrKZ207rC-71" edge="1">
          <mxGeometry width="50" height="50" relative="1" as="geometry">
            <mxPoint x="787.5099999999999" y="1074.64" as="sourcePoint" />
            <mxPoint x="947.5099999999999" y="1064.64" as="targetPoint" />
          </mxGeometry>
        </mxCell>
        <mxCell id="yGzMHYDaNf_yrKZ207rC-91" value="Caratteristica" style="ellipse;whiteSpace=wrap;html=1;fillColor=#182E3E;strokeColor=#FFFFFF;fontColor=#FFFFFF;" parent="1" vertex="1">
          <mxGeometry x="1360.42" y="886.9200000000001" width="110" height="50" as="geometry" />
        </mxCell>
        <mxCell id="yGzMHYDaNf_yrKZ207rC-92" value="" style="endArrow=none;html=1;rounded=0;strokeColor=#23445D;fontColor=#000000;exitX=0.5;exitY=0;exitDx=0;exitDy=0;entryX=0.25;entryY=1;entryDx=0;entryDy=0;" parent="1" source="yGzMHYDaNf_yrKZ207rC-91" target="yGzMHYDaNf_yrKZ207rC-20" edge="1">
          <mxGeometry width="50" height="50" relative="1" as="geometry">
            <mxPoint x="1167.92" y="843.73" as="sourcePoint" />
            <mxPoint x="1217.92" y="793.73" as="targetPoint" />
          </mxGeometry>
        </mxCell>
        <mxCell id="yGzMHYDaNf_yrKZ207rC-93" value="UTENTE" style="rounded=0;whiteSpace=wrap;html=1;fillColor=#182E3E;strokeColor=#FFFFFF;fontColor=#FFFFFF;" parent="1" vertex="1">
          <mxGeometry x="647.09" y="131.21000000000004" width="110" height="50" as="geometry" />
        </mxCell>
        <mxCell id="yGzMHYDaNf_yrKZ207rC-94" value="Username" style="ellipse;whiteSpace=wrap;html=1;fillColor=#182E3E;strokeColor=#FFFFFF;fontColor=#FFFFFF;" parent="1" vertex="1">
          <mxGeometry x="799.9600000000002" y="97.10999999999997" width="80" height="41.79" as="geometry" />
        </mxCell>
        <mxCell id="yGzMHYDaNf_yrKZ207rC-95" value="Pw" style="ellipse;whiteSpace=wrap;html=1;fillColor=#182E3E;strokeColor=#FFFFFF;fontColor=#FFFFFF;" parent="1" vertex="1">
          <mxGeometry x="553.6700000000001" y="108.21000000000004" width="80" height="41.79" as="geometry" />
        </mxCell>
        <mxCell id="yGzMHYDaNf_yrKZ207rC-96" value="" style="endArrow=none;html=1;rounded=0;strokeColor=#23445D;fontColor=#000000;exitX=0.608;exitY=-0.01;exitDx=0;exitDy=0;exitPerimeter=0;" parent="1" source="yGzMHYDaNf_yrKZ207rC-9" target="yGzMHYDaNf_yrKZ207rC-40" edge="1">
          <mxGeometry width="50" height="50" relative="1" as="geometry">
            <mxPoint x="828.3399999999999" y="531.03" as="sourcePoint" />
            <mxPoint x="878.3399999999999" y="481.03" as="targetPoint" />
          </mxGeometry>
        </mxCell>
        <mxCell id="yGzMHYDaNf_yrKZ207rC-97" value="" style="endArrow=none;html=1;rounded=0;strokeColor=#23445D;fontColor=#000000;exitX=0.994;exitY=0.633;exitDx=0;exitDy=0;exitPerimeter=0;" parent="1" source="yGzMHYDaNf_yrKZ207rC-95" target="yGzMHYDaNf_yrKZ207rC-93" edge="1">
          <mxGeometry width="50" height="50" relative="1" as="geometry">
            <mxPoint x="728.75" y="111.21000000000004" as="sourcePoint" />
            <mxPoint x="778.75" y="61.210000000000036" as="targetPoint" />
          </mxGeometry>
        </mxCell>
        <mxCell id="yGzMHYDaNf_yrKZ207rC-98" value="DataNascita" style="ellipse;whiteSpace=wrap;html=1;fillColor=#182E3E;strokeColor=#FFFFFF;fontColor=#FFFFFF;" parent="1" vertex="1">
          <mxGeometry x="774.3199999999999" y="181.21" width="95" height="50" as="geometry" />
        </mxCell>
        <mxCell id="yGzMHYDaNf_yrKZ207rC-99" value="" style="endArrow=none;html=1;rounded=0;strokeColor=#23445D;fontColor=#000000;exitX=1;exitY=0.75;exitDx=0;exitDy=0;" parent="1" source="yGzMHYDaNf_yrKZ207rC-93" target="yGzMHYDaNf_yrKZ207rC-98" edge="1">
          <mxGeometry width="50" height="50" relative="1" as="geometry">
            <mxPoint x="608.75" y="210" as="sourcePoint" />
            <mxPoint x="658.75" y="160" as="targetPoint" />
          </mxGeometry>
        </mxCell>
        <mxCell id="yGzMHYDaNf_yrKZ207rC-100" value="RECENSIONE" style="rhombus;whiteSpace=wrap;html=1;fillColor=#182E3E;strokeColor=#FFFFFF;fontColor=#FFFFFF;" parent="1" vertex="1">
          <mxGeometry x="881.25" y="430" width="100" height="80" as="geometry" />
        </mxCell>
        <mxCell id="yGzMHYDaNf_yrKZ207rC-101" value="" style="endArrow=none;html=1;rounded=0;strokeColor=#23445D;fontColor=#000000;entryX=0.5;entryY=1;entryDx=0;entryDy=0;" parent="1" source="yGzMHYDaNf_yrKZ207rC-2" target="yGzMHYDaNf_yrKZ207rC-100" edge="1">
          <mxGeometry width="50" height="50" relative="1" as="geometry">
            <mxPoint x="816.25" y="560" as="sourcePoint" />
            <mxPoint x="866.25" y="510" as="targetPoint" />
          </mxGeometry>
        </mxCell>
        <mxCell id="yGzMHYDaNf_yrKZ207rC-102" value="Testo" style="ellipse;whiteSpace=wrap;html=1;fillColor=#182E3E;strokeColor=#FFFFFF;fontColor=#FFFFFF;" parent="1" vertex="1">
          <mxGeometry x="810.33" y="400.71000000000004" width="80" height="41.79" as="geometry" />
        </mxCell>
        <mxCell id="yGzMHYDaNf_yrKZ207rC-103" value="" style="endArrow=none;html=1;rounded=0;strokeColor=#23445D;fontColor=#000000;entryX=0;entryY=0;entryDx=0;entryDy=0;exitX=1;exitY=1;exitDx=0;exitDy=0;" parent="1" source="yGzMHYDaNf_yrKZ207rC-102" target="yGzMHYDaNf_yrKZ207rC-100" edge="1">
          <mxGeometry width="50" height="50" relative="1" as="geometry">
            <mxPoint x="816.25" y="470" as="sourcePoint" />
            <mxPoint x="866.25" y="420" as="targetPoint" />
          </mxGeometry>
        </mxCell>
        <mxCell id="yGzMHYDaNf_yrKZ207rC-104" style="edgeStyle=orthogonalEdgeStyle;shape=link;rounded=0;orthogonalLoop=1;jettySize=auto;html=1;strokeColor=#23445D;fontColor=#000000;" parent="1" target="yGzMHYDaNf_yrKZ207rC-105" edge="1">
          <mxGeometry relative="1" as="geometry">
            <mxPoint x="757.3571428571429" y="190" as="targetPoint" />
            <mxPoint x="701.25" y="180" as="sourcePoint" />
          </mxGeometry>
        </mxCell>
        <mxCell id="yGzMHYDaNf_yrKZ207rC-105" value="O" style="ellipse;whiteSpace=wrap;html=1;aspect=fixed;fillColor=#182E3E;strokeColor=#FFFFFF;fontColor=#FFFFFF;" parent="1" vertex="1">
          <mxGeometry x="681.25" y="244" width="40" height="40" as="geometry" />
        </mxCell>
        <mxCell id="yGzMHYDaNf_yrKZ207rC-106" value="" style="endArrow=none;html=1;rounded=0;entryX=1;entryY=1;entryDx=0;entryDy=0;exitX=0.227;exitY=0.2;exitDx=0;exitDy=0;startArrow=none;labelBackgroundColor=#FCE7CD;strokeColor=#23445D;exitPerimeter=0;" parent="1" source="yGzMHYDaNf_yrKZ207rC-110" target="yGzMHYDaNf_yrKZ207rC-105" edge="1">
          <mxGeometry width="50" height="50" relative="1" as="geometry">
            <mxPoint x="852.5" y="270" as="sourcePoint" />
            <mxPoint x="707.46" y="181" as="targetPoint" />
          </mxGeometry>
        </mxCell>
        <mxCell id="yGzMHYDaNf_yrKZ207rC-107" value="" style="endArrow=none;html=1;rounded=0;entryX=0;entryY=1;entryDx=0;entryDy=0;labelBackgroundColor=#FCE7CD;strokeColor=#23445D;" parent="1" source="yGzMHYDaNf_yrKZ207rC-112" target="yGzMHYDaNf_yrKZ207rC-105" edge="1">
          <mxGeometry width="50" height="50" relative="1" as="geometry">
            <mxPoint x="617.5" y="270" as="sourcePoint" />
            <mxPoint x="738.317864376269" y="205.14213562373106" as="targetPoint" />
          </mxGeometry>
        </mxCell>
        <mxCell id="yGzMHYDaNf_yrKZ207rC-108" value="" style="shape=requiredInterface;html=1;verticalLabelPosition=bottom;sketch=0;strokeColor=#000000;fontColor=#000000;fillColor=none;rotation=45;" parent="1" vertex="1">
          <mxGeometry x="737.25" y="299" width="10" height="10" as="geometry" />
        </mxCell>
        <mxCell id="yGzMHYDaNf_yrKZ207rC-109" value="" style="shape=requiredInterface;html=1;verticalLabelPosition=bottom;sketch=0;strokeColor=#000000;fontColor=#000000;fillColor=none;rotation=-225;" parent="1" vertex="1">
          <mxGeometry x="646.25" y="299" width="10" height="10" as="geometry" />
        </mxCell>
        <mxCell id="yGzMHYDaNf_yrKZ207rC-110" value="STANDARD" style="rounded=0;whiteSpace=wrap;html=1;fillColor=#182E3E;strokeColor=#FFFFFF;fontColor=#FFFFFF;" parent="1" vertex="1">
          <mxGeometry x="756.25" y="330" width="110" height="50" as="geometry" />
        </mxCell>
        <mxCell id="yGzMHYDaNf_yrKZ207rC-111" value="" style="endArrow=none;html=1;rounded=0;strokeColor=#23445D;fontColor=#000000;entryX=0.5;entryY=0;entryDx=0;entryDy=0;exitX=1;exitY=0.5;exitDx=0;exitDy=0;" parent="1" source="yGzMHYDaNf_yrKZ207rC-110" target="yGzMHYDaNf_yrKZ207rC-100" edge="1">
          <mxGeometry width="50" height="50" relative="1" as="geometry">
            <mxPoint x="656.25" y="390" as="sourcePoint" />
            <mxPoint x="706.25" y="340" as="targetPoint" />
            <Array as="points">
              <mxPoint x="931.25" y="355" />
            </Array>
          </mxGeometry>
        </mxCell>
        <mxCell id="yGzMHYDaNf_yrKZ207rC-112" value="VENDITORE" style="rounded=0;whiteSpace=wrap;html=1;fillColor=#182E3E;strokeColor=#FFFFFF;fontColor=#FFFFFF;" parent="1" vertex="1">
          <mxGeometry x="522.5" y="330" width="110" height="50" as="geometry" />
        </mxCell>
        <mxCell id="yGzMHYDaNf_yrKZ207rC-113" value="POSSESSO" style="rhombus;whiteSpace=wrap;html=1;fillColor=#182E3E;strokeColor=#FFFFFF;fontColor=#FFFFFF;" parent="1" vertex="1">
          <mxGeometry x="527.5" y="460" width="100" height="80" as="geometry" />
        </mxCell>
        <mxCell id="yGzMHYDaNf_yrKZ207rC-114" value="" style="endArrow=none;html=1;rounded=0;strokeColor=#23445D;fontColor=#000000;exitX=0.5;exitY=0;exitDx=0;exitDy=0;entryX=0.5;entryY=1;entryDx=0;entryDy=0;" parent="1" source="yGzMHYDaNf_yrKZ207rC-113" target="yGzMHYDaNf_yrKZ207rC-127" edge="1">
          <mxGeometry width="50" height="50" relative="1" as="geometry">
            <mxPoint x="583.75" y="460" as="sourcePoint" />
            <mxPoint x="812.5" y="430" as="targetPoint" />
            <Array as="points">
              <mxPoint x="578" y="420" />
              <mxPoint x="231" y="420" />
            </Array>
          </mxGeometry>
        </mxCell>
        <mxCell id="yGzMHYDaNf_yrKZ207rC-115" value="" style="endArrow=none;html=1;rounded=0;strokeColor=#23445D;fontColor=#000000;exitX=0.5;exitY=1;exitDx=0;exitDy=0;entryX=0;entryY=0.5;entryDx=0;entryDy=0;" parent="1" source="yGzMHYDaNf_yrKZ207rC-113" target="yGzMHYDaNf_yrKZ207rC-2" edge="1">
          <mxGeometry width="50" height="50" relative="1" as="geometry">
            <mxPoint x="756.25" y="660" as="sourcePoint" />
            <mxPoint x="806.25" y="610" as="targetPoint" />
            <Array as="points">
              <mxPoint x="577.25" y="645" />
              <mxPoint x="730" y="645" />
            </Array>
          </mxGeometry>
        </mxCell>
        <mxCell id="yGzMHYDaNf_yrKZ207rC-116" value="(0,N)" style="text;html=1;strokeColor=none;fillColor=none;align=center;verticalAlign=middle;whiteSpace=wrap;rounded=0;fontColor=#000000;" parent="1" vertex="1">
          <mxGeometry x="866.25" y="330" width="60" height="30" as="geometry" />
        </mxCell>
        <mxCell id="yGzMHYDaNf_yrKZ207rC-117" value="(0,N)" style="text;html=1;strokeColor=none;fillColor=none;align=center;verticalAlign=middle;whiteSpace=wrap;rounded=0;fontColor=#000000;" parent="1" vertex="1">
          <mxGeometry x="921.25" y="568.58" width="60" height="70" as="geometry" />
        </mxCell>
        <mxCell id="yGzMHYDaNf_yrKZ207rC-118" value="N" style="text;html=1;strokeColor=none;fillColor=none;align=center;verticalAlign=middle;whiteSpace=wrap;rounded=0;fontColor=#000000;" parent="1" vertex="1">
          <mxGeometry x="866.25" y="360" width="60" height="30" as="geometry" />
        </mxCell>
        <mxCell id="yGzMHYDaNf_yrKZ207rC-119" value="N" style="text;html=1;strokeColor=none;fillColor=none;align=center;verticalAlign=middle;whiteSpace=wrap;rounded=0;fontColor=#000000;" parent="1" vertex="1">
          <mxGeometry x="891.25" y="570" width="60" height="70" as="geometry" />
        </mxCell>
        <mxCell id="yGzMHYDaNf_yrKZ207rC-120" value="(0,N)" style="text;html=1;strokeColor=none;fillColor=none;align=center;verticalAlign=middle;whiteSpace=wrap;rounded=0;fontColor=#000000;" parent="1" vertex="1">
          <mxGeometry x="182" y="381.71" width="60" height="30" as="geometry" />
        </mxCell>
        <mxCell id="yGzMHYDaNf_yrKZ207rC-121" value="(0,N)" style="text;html=1;strokeColor=none;fillColor=none;align=center;verticalAlign=middle;whiteSpace=wrap;rounded=0;fontColor=#000000;" parent="1" vertex="1">
          <mxGeometry x="823.75" y="641" width="60" height="30" as="geometry" />
        </mxCell>
        <mxCell id="yGzMHYDaNf_yrKZ207rC-122" value="N" style="text;html=1;strokeColor=none;fillColor=none;align=center;verticalAlign=middle;whiteSpace=wrap;rounded=0;fontColor=#000000;" parent="1" vertex="1">
          <mxGeometry x="237.5" y="381.71" width="38.75" height="30" as="geometry" />
        </mxCell>
        <mxCell id="yGzMHYDaNf_yrKZ207rC-123" value="N" style="text;html=1;strokeColor=none;fillColor=none;align=center;verticalAlign=middle;whiteSpace=wrap;rounded=0;fontColor=#000000;" parent="1" vertex="1">
          <mxGeometry x="826.25" y="615" width="60" height="30" as="geometry" />
        </mxCell>
        <mxCell id="yGzMHYDaNf_yrKZ207rC-124" value="ISSN" style="ellipse;whiteSpace=wrap;html=1;fillColor=#182E3E;strokeColor=#FFFFFF;fontColor=#FFFFFF;" parent="1" vertex="1">
          <mxGeometry x="646.2499999999999" y="1017.54" width="55" height="34.92" as="geometry" />
        </mxCell>
        <mxCell id="yGzMHYDaNf_yrKZ207rC-126" value="GESTIONE" style="rhombus;whiteSpace=wrap;html=1;fillColor=#182E3E;strokeColor=#FFFFFF;fontColor=#FFFFFF;" parent="1" vertex="1">
          <mxGeometry x="358.3299999999999" y="315" width="100" height="80" as="geometry" />
        </mxCell>
        <mxCell id="yGzMHYDaNf_yrKZ207rC-127" value="LIBRERIA" style="rounded=0;whiteSpace=wrap;html=1;fillColor=#182E3E;strokeColor=#FFFFFF;fontColor=#FFFFFF;" parent="1" vertex="1">
          <mxGeometry x="176.25" y="331.71000000000004" width="110" height="50" as="geometry" />
        </mxCell>
        <mxCell id="yGzMHYDaNf_yrKZ207rC-128" value="" style="endArrow=none;html=1;rounded=0;entryX=0;entryY=0.5;entryDx=0;entryDy=0;" parent="1" source="yGzMHYDaNf_yrKZ207rC-127" target="yGzMHYDaNf_yrKZ207rC-126" edge="1">
          <mxGeometry width="50" height="50" relative="1" as="geometry">
            <mxPoint x="641.25" y="440" as="sourcePoint" />
            <mxPoint x="691.25" y="390" as="targetPoint" />
          </mxGeometry>
        </mxCell>
        <mxCell id="yGzMHYDaNf_yrKZ207rC-129" value="" style="endArrow=none;html=1;rounded=0;entryX=0;entryY=0.5;entryDx=0;entryDy=0;exitX=1;exitY=0.5;exitDx=0;exitDy=0;" parent="1" source="yGzMHYDaNf_yrKZ207rC-126" target="yGzMHYDaNf_yrKZ207rC-112" edge="1">
          <mxGeometry width="50" height="50" relative="1" as="geometry">
            <mxPoint x="461.25" y="355" as="sourcePoint" />
            <mxPoint x="516.09" y="354.5" as="targetPoint" />
          </mxGeometry>
        </mxCell>
        <mxCell id="yGzMHYDaNf_yrKZ207rC-130" value="(1,1)" style="text;html=1;strokeColor=none;fillColor=none;align=center;verticalAlign=middle;whiteSpace=wrap;rounded=0;" parent="1" vertex="1">
          <mxGeometry x="286.25" y="329.71000000000004" width="60" height="30" as="geometry" />
        </mxCell>
        <mxCell id="yGzMHYDaNf_yrKZ207rC-131" value="(1,N)" style="text;html=1;strokeColor=none;fillColor=none;align=center;verticalAlign=middle;whiteSpace=wrap;rounded=0;" parent="1" vertex="1">
          <mxGeometry x="462.5" y="324.71000000000004" width="60" height="30" as="geometry" />
        </mxCell>
        <mxCell id="yGzMHYDaNf_yrKZ207rC-132" value="N" style="text;html=1;strokeColor=none;fillColor=none;align=center;verticalAlign=middle;whiteSpace=wrap;rounded=0;fontColor=#000000;" parent="1" vertex="1">
          <mxGeometry x="286.25" y="351.71000000000004" width="60" height="30" as="geometry" />
        </mxCell>
        <mxCell id="yGzMHYDaNf_yrKZ207rC-133" value="1" style="text;html=1;strokeColor=none;fillColor=none;align=center;verticalAlign=middle;whiteSpace=wrap;rounded=0;fontColor=#000000;" parent="1" vertex="1">
          <mxGeometry x="462.5" y="351.71000000000004" width="60" height="30" as="geometry" />
        </mxCell>
        <mxCell id="yGzMHYDaNf_yrKZ207rC-134" value="Nome" style="ellipse;whiteSpace=wrap;html=1;fillColor=#182E3E;strokeColor=#FFFFFF;fontColor=#FFFFFF;" parent="1" vertex="1">
          <mxGeometry x="193.63" y="230" width="75.24" height="45.79" as="geometry" />
        </mxCell>
        <mxCell id="yGzMHYDaNf_yrKZ207rC-135" value="" style="endArrow=none;html=1;rounded=0;exitX=0.5;exitY=1;exitDx=0;exitDy=0;labelBackgroundColor=#FCE7CD;strokeColor=#23445D;" parent="1" source="yGzMHYDaNf_yrKZ207rC-134" target="yGzMHYDaNf_yrKZ207rC-127" edge="1">
          <mxGeometry width="50" height="50" relative="1" as="geometry">
            <mxPoint x="246.82000000000005" y="264.65999999999997" as="sourcePoint" />
            <mxPoint x="207.82999999999993" y="331.71000000000004" as="targetPoint" />
          </mxGeometry>
        </mxCell>
        <mxCell id="yGzMHYDaNf_yrKZ207rC-136" value="Indirizzo" style="ellipse;whiteSpace=wrap;html=1;fillColor=#182E3E;strokeColor=#FFFFFF;fontColor=#FFFFFF;" parent="1" vertex="1">
          <mxGeometry x="276.25" y="260.71000000000004" width="70" height="40" as="geometry" />
        </mxCell>
        <mxCell id="yGzMHYDaNf_yrKZ207rC-137" value="" style="endArrow=none;html=1;rounded=0;exitX=0.75;exitY=0;exitDx=0;exitDy=0;entryX=0;entryY=1;entryDx=0;entryDy=0;" parent="1" source="yGzMHYDaNf_yrKZ207rC-127" target="yGzMHYDaNf_yrKZ207rC-136" edge="1">
          <mxGeometry width="50" height="50" relative="1" as="geometry">
            <mxPoint x="666.25" y="441.71000000000004" as="sourcePoint" />
            <mxPoint x="716.25" y="391.71000000000004" as="targetPoint" />
          </mxGeometry>
        </mxCell>
        <mxCell id="yGzMHYDaNf_yrKZ207rC-138" value="NumeroTelefonico" style="ellipse;whiteSpace=wrap;html=1;fillColor=#182E3E;strokeColor=#FFFFFF;fontColor=#FFFFFF;" parent="1" vertex="1">
          <mxGeometry x="60" y="250" width="126.25" height="60.71" as="geometry" />
        </mxCell>
        <mxCell id="yGzMHYDaNf_yrKZ207rC-139" value="" style="endArrow=none;html=1;rounded=0;exitX=1;exitY=1;exitDx=0;exitDy=0;entryX=0.25;entryY=0;entryDx=0;entryDy=0;" parent="1" source="yGzMHYDaNf_yrKZ207rC-138" target="yGzMHYDaNf_yrKZ207rC-127" edge="1">
          <mxGeometry width="50" height="50" relative="1" as="geometry">
            <mxPoint x="666.25" y="441.71000000000004" as="sourcePoint" />
            <mxPoint x="716.25" y="391.71000000000004" as="targetPoint" />
          </mxGeometry>
        </mxCell>
        <mxCell id="yGzMHYDaNf_yrKZ207rC-140" value="Email" style="ellipse;whiteSpace=wrap;html=1;fillColor=#182E3E;strokeColor=#FFFFFF;fontColor=#FFFFFF;" parent="1" vertex="1">
          <mxGeometry x="562.4999999999999" y="170" width="70" height="40" as="geometry" />
        </mxCell>
        <mxCell id="yGzMHYDaNf_yrKZ207rC-141" value="" style="endArrow=none;html=1;rounded=0;exitX=1;exitY=0;exitDx=0;exitDy=0;entryX=0;entryY=0.75;entryDx=0;entryDy=0;" parent="1" source="yGzMHYDaNf_yrKZ207rC-140" target="yGzMHYDaNf_yrKZ207rC-93" edge="1">
          <mxGeometry width="50" height="50" relative="1" as="geometry">
            <mxPoint x="641.25" y="210" as="sourcePoint" />
            <mxPoint x="691.25" y="160" as="targetPoint" />
          </mxGeometry>
        </mxCell>
        <mxCell id="yGzMHYDaNf_yrKZ207rC-142" value="SitoWeb" style="ellipse;whiteSpace=wrap;html=1;fillColor=#182E3E;strokeColor=#FFFFFF;fontColor=#FFFFFF;" parent="1" vertex="1">
          <mxGeometry x="76.25" y="361.71000000000004" width="80" height="39" as="geometry" />
        </mxCell>
        <mxCell id="yGzMHYDaNf_yrKZ207rC-143" value="" style="endArrow=none;html=1;rounded=0;exitX=0.765;exitY=0.117;exitDx=0;exitDy=0;exitPerimeter=0;entryX=0;entryY=0.5;entryDx=0;entryDy=0;" parent="1" source="yGzMHYDaNf_yrKZ207rC-142" target="yGzMHYDaNf_yrKZ207rC-127" edge="1">
          <mxGeometry width="50" height="50" relative="1" as="geometry">
            <mxPoint x="346.25" y="441.71000000000004" as="sourcePoint" />
            <mxPoint x="396.25" y="391.71000000000004" as="targetPoint" />
          </mxGeometry>
        </mxCell>
        <mxCell id="yGzMHYDaNf_yrKZ207rC-144" value="" style="endArrow=none;html=1;rounded=0;exitX=0;exitY=0;exitDx=0;exitDy=0;entryX=1;entryY=1;entryDx=0;entryDy=0;" parent="1" source="yGzMHYDaNf_yrKZ207rC-17" target="yGzMHYDaNf_yrKZ207rC-113" edge="1">
          <mxGeometry width="50" height="50" relative="1" as="geometry">
            <mxPoint x="621.25" y="550" as="sourcePoint" />
            <mxPoint x="671.25" y="500" as="targetPoint" />
          </mxGeometry>
        </mxCell>
        <mxCell id="yGzMHYDaNf_yrKZ207rC-145" value="Quantità" style="ellipse;whiteSpace=wrap;html=1;fillColor=#182E3E;strokeColor=#FFFFFF;fontColor=#FFFFFF;" parent="1" vertex="1">
          <mxGeometry x="426.25" y="510.58000000000004" width="90" height="49.42" as="geometry" />
        </mxCell>
        <mxCell id="yGzMHYDaNf_yrKZ207rC-146" value="" style="endArrow=none;html=1;rounded=0;exitX=1;exitY=0.5;exitDx=0;exitDy=0;entryX=0;entryY=1;entryDx=0;entryDy=0;" parent="1" source="yGzMHYDaNf_yrKZ207rC-145" target="yGzMHYDaNf_yrKZ207rC-113" edge="1">
          <mxGeometry width="50" height="50" relative="1" as="geometry">
            <mxPoint x="621.25" y="550" as="sourcePoint" />
            <mxPoint x="671.25" y="500" as="targetPoint" />
          </mxGeometry>
        </mxCell>
        <mxCell id="yGzMHYDaNf_yrKZ207rC-153" value="Valutazione" style="ellipse;whiteSpace=wrap;html=1;fillColor=#182E3E;strokeColor=#FFFFFF;fontColor=#FFFFFF;" parent="1" vertex="1">
          <mxGeometry x="804.31" y="479.09999999999997" width="80" height="41.79" as="geometry" />
        </mxCell>
        <mxCell id="yGzMHYDaNf_yrKZ207rC-154" value="" style="endArrow=none;html=1;rounded=0;exitX=1;exitY=0.5;exitDx=0;exitDy=0;entryX=0;entryY=1;entryDx=0;entryDy=0;" parent="1" source="yGzMHYDaNf_yrKZ207rC-153" target="yGzMHYDaNf_yrKZ207rC-100" edge="1">
          <mxGeometry width="50" height="50" relative="1" as="geometry">
            <mxPoint x="981.25" y="550" as="sourcePoint" />
            <mxPoint x="1031.25" y="500" as="targetPoint" />
          </mxGeometry>
        </mxCell>
        <mxCell id="yGzMHYDaNf_yrKZ207rC-174" value="" style="endArrow=none;html=1;rounded=0;entryX=0;entryY=0.5;entryDx=0;entryDy=0;exitX=1;exitY=0.5;exitDx=0;exitDy=0;" parent="1" source="yGzMHYDaNf_yrKZ207rC-3" edge="1">
          <mxGeometry width="50" height="50" relative="1" as="geometry">
            <mxPoint x="461.25" y="810" as="sourcePoint" />
            <mxPoint x="527.5" y="802.5" as="targetPoint" />
          </mxGeometry>
        </mxCell>
        <mxCell id="yGzMHYDaNf_yrKZ207rC-175" value="Autore" style="ellipse;shape=doubleEllipse;whiteSpace=wrap;html=1;fillColor=#182E3E;strokeColor=#FFFFFF;fontColor=#FFFFFF;" parent="1" vertex="1">
          <mxGeometry x="332.5" y="665.23" width="100" height="60" as="geometry" />
        </mxCell>
        <mxCell id="yGzMHYDaNf_yrKZ207rC-176" value="DataNascita" style="ellipse;whiteSpace=wrap;html=1;fillColor=#182E3E;strokeColor=#FFFFFF;fontColor=#FFFFFF;" parent="1" vertex="1">
          <mxGeometry x="230" y="605" width="95" height="50" as="geometry" />
        </mxCell>
        <mxCell id="yGzMHYDaNf_yrKZ207rC-179" value="Nazionalità" style="ellipse;whiteSpace=wrap;html=1;strokeColor=#FFFFFF;fontColor=#FFFFFF;fillColor=#182E3E;" parent="1" vertex="1">
          <mxGeometry x="335" y="585.5799999999999" width="95" height="50" as="geometry" />
        </mxCell>
        <mxCell id="yGzMHYDaNf_yrKZ207rC-180" value="" style="endArrow=none;html=1;rounded=0;strokeColor=#23445D;exitX=0.5;exitY=0;exitDx=0;exitDy=0;entryX=0.5;entryY=1;entryDx=0;entryDy=0;" parent="1" source="yGzMHYDaNf_yrKZ207rC-175" target="yGzMHYDaNf_yrKZ207rC-179" edge="1">
          <mxGeometry width="50" height="50" relative="1" as="geometry">
            <mxPoint x="325.08000000000004" y="663.6700000000001" as="sourcePoint" />
            <mxPoint x="352.5799999999999" y="600" as="targetPoint" />
          </mxGeometry>
        </mxCell>
        <mxCell id="yGzMHYDaNf_yrKZ207rC-186" value="" style="endArrow=none;html=1;rounded=0;exitX=0;exitY=0;exitDx=0;exitDy=0;entryX=1;entryY=1;entryDx=0;entryDy=0;" parent="1" source="yGzMHYDaNf_yrKZ207rC-175" target="yGzMHYDaNf_yrKZ207rC-176" edge="1">
          <mxGeometry width="50" height="50" relative="1" as="geometry">
            <mxPoint x="311.25" y="550" as="sourcePoint" />
            <mxPoint x="361.25" y="500" as="targetPoint" />
          </mxGeometry>
        </mxCell>
        <mxCell id="yGzMHYDaNf_yrKZ207rC-188" value="" style="endArrow=none;html=1;rounded=0;entryX=0.5;entryY=0;entryDx=0;entryDy=0;exitX=0.5;exitY=1;exitDx=0;exitDy=0;" parent="1" source="yGzMHYDaNf_yrKZ207rC-175" target="yGzMHYDaNf_yrKZ207rC-3" edge="1">
          <mxGeometry width="50" height="50" relative="1" as="geometry">
            <mxPoint x="351.25" y="820" as="sourcePoint" />
            <mxPoint x="401.25" y="770" as="targetPoint" />
          </mxGeometry>
        </mxCell>
        <mxCell id="yGzMHYDaNf_yrKZ207rC-189" value="&lt;font color=&quot;#f5f5f5&quot;&gt;ESPOSIZIONE&lt;/font&gt;" style="shape=rhombus;perimeter=rhombusPerimeter;whiteSpace=wrap;html=1;align=center;fillColor=#182E3E;fillStyle=auto;strokeColor=#F5F5F5;" parent="1" vertex="1">
          <mxGeometry x="306.66999999999996" y="879" width="151.66" height="91" as="geometry" />
        </mxCell>
        <mxCell id="yGzMHYDaNf_yrKZ207rC-190" value="" style="endArrow=none;html=1;rounded=0;entryX=0.5;entryY=1;entryDx=0;entryDy=0;labelBackgroundColor=#FCE7CD;strokeColor=#23445D;fontColor=#000000;" parent="1" source="yGzMHYDaNf_yrKZ207rC-189" target="yGzMHYDaNf_yrKZ207rC-3" edge="1">
          <mxGeometry width="50" height="50" relative="1" as="geometry">
            <mxPoint x="204.15999999999997" y="852.73" as="sourcePoint" />
            <mxPoint x="374.15999999999997" y="842.7300000000002" as="targetPoint" />
          </mxGeometry>
        </mxCell>
        <mxCell id="yGzMHYDaNf_yrKZ207rC-191" value="" style="endArrow=none;html=1;rounded=0;entryX=0.51;entryY=0.968;entryDx=0;entryDy=0;entryPerimeter=0;labelBackgroundColor=#FCE7CD;strokeColor=#23445D;fontColor=#000000;" parent="1" source="yGzMHYDaNf_yrKZ207rC-59" target="yGzMHYDaNf_yrKZ207rC-189" edge="1">
          <mxGeometry width="50" height="50" relative="1" as="geometry">
            <mxPoint x="374.15999999999997" y="1002.73" as="sourcePoint" />
            <mxPoint x="254.15999999999997" y="942.73" as="targetPoint" />
          </mxGeometry>
        </mxCell>
        <mxCell id="yGzMHYDaNf_yrKZ207rC-192" value="N" style="text;html=1;strokeColor=none;fillColor=none;align=center;verticalAlign=middle;whiteSpace=wrap;rounded=0;fontColor=#000000;" parent="1" vertex="1">
          <mxGeometry x="380.7099999999999" y="972.73" width="60" height="30" as="geometry" />
        </mxCell>
        <mxCell id="yGzMHYDaNf_yrKZ207rC-193" value="N" style="text;html=1;strokeColor=none;fillColor=none;align=center;verticalAlign=middle;whiteSpace=wrap;rounded=0;fontColor=#000000;" parent="1" vertex="1">
          <mxGeometry x="380.71000000000004" y="840" width="60" height="30" as="geometry" />
        </mxCell>
        <mxCell id="yGzMHYDaNf_yrKZ207rC-194" value="(0,N)" style="text;html=1;strokeColor=none;fillColor=none;align=center;verticalAlign=middle;whiteSpace=wrap;rounded=0;fontColor=#000000;" parent="1" vertex="1">
          <mxGeometry x="320.71000000000004" y="837.5" width="60" height="30" as="geometry" />
        </mxCell>
        <mxCell id="yGzMHYDaNf_yrKZ207rC-195" value="(1,N)" style="text;html=1;strokeColor=none;fillColor=none;align=center;verticalAlign=middle;whiteSpace=wrap;rounded=0;fontColor=#000000;" parent="1" vertex="1">
          <mxGeometry x="316.5" y="972" width="60" height="30" as="geometry" />
        </mxCell>
        <mxCell id="yGzMHYDaNf_yrKZ207rC-196" value="(0,N)" style="text;html=1;strokeColor=none;fillColor=none;align=center;verticalAlign=middle;whiteSpace=wrap;rounded=0;fontColor=#000000;" parent="1" vertex="1">
          <mxGeometry x="450.66999999999996" y="772.73" width="60" height="30" as="geometry" />
        </mxCell>
        <mxCell id="yGzMHYDaNf_yrKZ207rC-197" value="N" style="text;html=1;strokeColor=none;fillColor=none;align=center;verticalAlign=middle;whiteSpace=wrap;rounded=0;fontColor=#000000;" parent="1" vertex="1">
          <mxGeometry x="451.25" y="799.8499999999999" width="60" height="30" as="geometry" />
        </mxCell>
        <mxCell id="yGzMHYDaNf_yrKZ207rC-200" value="&lt;font color=&quot;#f5f5f5&quot;&gt;PARTECIPAZIONE&lt;/font&gt;" style="shape=rhombus;double=1;perimeter=rhombusPerimeter;whiteSpace=wrap;html=1;align=center;fillColor=#182E3E;fillStyle=auto;strokeColor=#F5F5F5;" parent="1" vertex="1">
          <mxGeometry x="1051.25" y="872.73" width="173.34" height="93.73" as="geometry" />
        </mxCell>
        <mxCell id="yGzMHYDaNf_yrKZ207rC-201" value="PRESENTAZIONE" style="shape=ext;margin=3;double=1;whiteSpace=wrap;html=1;align=center;fillStyle=auto;strokeColor=#F5F5F5;fontColor=#F5F5F5;fillColor=#182E3E;" parent="1" vertex="1">
          <mxGeometry x="1074.17" y="998" width="127.5" height="66.27" as="geometry" />
        </mxCell>
        <mxCell id="yGzMHYDaNf_yrKZ207rC-202" value="&lt;font color=&quot;#f5f5f5&quot;&gt;INTRODUZIONE&lt;/font&gt;" style="shape=rhombus;double=1;perimeter=rhombusPerimeter;whiteSpace=wrap;html=1;align=center;fillColor=#182E3E;fillStyle=auto;strokeColor=#F5F5F5;" parent="1" vertex="1">
          <mxGeometry x="512.5400000000001" y="760.73" width="152.42" height="82" as="geometry" />
        </mxCell>
        <mxCell id="yGzMHYDaNf_yrKZ207rC-203" value="SERIE" style="shape=ext;margin=3;double=1;whiteSpace=wrap;html=1;align=center;fillStyle=auto;strokeColor=#F5F5F5;fontColor=#F5F5F5;fillColor=#182E3E;" parent="1" vertex="1">
          <mxGeometry x="871.5899999999999" y="964.73" width="118.33" height="59.92" as="geometry" />
        </mxCell>
        <mxCell id="yGzMHYDaNf_yrKZ207rC-204" value="&lt;font color=&quot;#f5f5f5&quot;&gt;INSERIMENTO&lt;/font&gt;" style="shape=rhombus;double=1;perimeter=rhombusPerimeter;whiteSpace=wrap;html=1;align=center;fillColor=#182E3E;fillStyle=auto;strokeColor=#F5F5F5;" parent="1" vertex="1">
          <mxGeometry x="960.4200000000001" y="829.8499999999999" width="120" height="80" as="geometry" />
        </mxCell>
        <mxCell id="yGzMHYDaNf_yrKZ207rC-205" value="" style="endArrow=none;html=1;rounded=0;entryX=0.5;entryY=0;entryDx=0;entryDy=0;" parent="1" source="yGzMHYDaNf_yrKZ207rC-4" target="yGzMHYDaNf_yrKZ207rC-204" edge="1">
          <mxGeometry width="50" height="50" relative="1" as="geometry">
            <mxPoint x="1282.92" y="663.73" as="sourcePoint" />
            <mxPoint x="1292.0100000000002" y="673.7300000000002" as="targetPoint" />
            <Array as="points">
              <mxPoint x="1020" y="804" />
            </Array>
          </mxGeometry>
        </mxCell>
        <mxCell id="yGzMHYDaNf_yrKZ207rC-206" value="" style="endArrow=none;html=1;rounded=0;entryX=0;entryY=0;entryDx=0;entryDy=0;exitX=1;exitY=0.25;exitDx=0;exitDy=0;" parent="1" source="yGzMHYDaNf_yrKZ207rC-36" target="yGzMHYDaNf_yrKZ207rC-51" edge="1">
          <mxGeometry width="50" height="50" relative="1" as="geometry">
            <mxPoint x="1072.92" y="793.73" as="sourcePoint" />
            <mxPoint x="1122.92" y="743.73" as="targetPoint" />
          </mxGeometry>
        </mxCell>
        <mxCell id="yGzMHYDaNf_yrKZ207rC-207" value="" style="endArrow=none;html=1;rounded=0;exitX=0.5;exitY=0;exitDx=0;exitDy=0;entryX=0.5;entryY=1;entryDx=0;entryDy=0;" parent="1" source="yGzMHYDaNf_yrKZ207rC-203" target="yGzMHYDaNf_yrKZ207rC-30" edge="1">
          <mxGeometry width="50" height="50" relative="1" as="geometry">
            <mxPoint x="981.25" y="800" as="sourcePoint" />
            <mxPoint x="1031.25" y="750" as="targetPoint" />
          </mxGeometry>
        </mxCell>
        <mxCell id="yGzMHYDaNf_yrKZ207rC-208" value="" style="endArrow=none;html=1;rounded=0;exitX=1;exitY=0.5;exitDx=0;exitDy=0;entryX=0.5;entryY=1;entryDx=0;entryDy=0;" parent="1" source="yGzMHYDaNf_yrKZ207rC-203" target="yGzMHYDaNf_yrKZ207rC-204" edge="1">
          <mxGeometry width="50" height="50" relative="1" as="geometry">
            <mxPoint x="971.25" y="960" as="sourcePoint" />
            <mxPoint x="1021.25" y="910" as="targetPoint" />
            <Array as="points">
              <mxPoint x="1020" y="995" />
            </Array>
          </mxGeometry>
        </mxCell>
        <mxCell id="yGzMHYDaNf_yrKZ207rC-209" value="N" style="text;html=1;strokeColor=none;fillColor=none;align=center;verticalAlign=middle;whiteSpace=wrap;rounded=0;fontColor=#000000;" parent="1" vertex="1">
          <mxGeometry x="1032.93" y="778.73" width="60" height="30" as="geometry" />
        </mxCell>
        <mxCell id="yGzMHYDaNf_yrKZ207rC-210" value="1" style="text;html=1;strokeColor=none;fillColor=none;align=center;verticalAlign=middle;whiteSpace=wrap;rounded=0;fontColor=#000000;" parent="1" vertex="1">
          <mxGeometry x="972.9300000000001" y="967.9999999999999" width="60" height="30" as="geometry" />
        </mxCell>
        <mxCell id="yGzMHYDaNf_yrKZ207rC-211" value="" style="shape=requiredInterface;html=1;verticalLabelPosition=bottom;sketch=0;strokeColor=#000000;fontColor=#000000;fillColor=none;rotation=90;" parent="1" vertex="1">
          <mxGeometry x="925.75" y="833.25" width="10" height="10" as="geometry" />
        </mxCell>
        <mxCell id="yGzMHYDaNf_yrKZ207rC-212" value="Ordine" style="ellipse;whiteSpace=wrap;html=1;fillColor=#182E3E;strokeColor=#FFFFFF;fontColor=#FFFFFF;" parent="1" vertex="1">
          <mxGeometry x="943.09" y="902.27" width="56.5" height="34.65" as="geometry" />
        </mxCell>
        <mxCell id="yGzMHYDaNf_yrKZ207rC-213" value="" style="endArrow=none;html=1;rounded=0;entryX=0;entryY=1;entryDx=0;entryDy=0;exitX=0.5;exitY=0;exitDx=0;exitDy=0;" parent="1" source="yGzMHYDaNf_yrKZ207rC-212" target="yGzMHYDaNf_yrKZ207rC-204" edge="1">
          <mxGeometry width="50" height="50" relative="1" as="geometry">
            <mxPoint x="821.25" y="890" as="sourcePoint" />
            <mxPoint x="871.25" y="840" as="targetPoint" />
          </mxGeometry>
        </mxCell>
        <mxCell id="yGzMHYDaNf_yrKZ207rC-216" value="NLibri" style="ellipse;whiteSpace=wrap;html=1;fillColor=#182E3E;strokeColor=#FFFFFF;fontColor=#FFFFFF;" parent="1" vertex="1">
          <mxGeometry x="853.4499999999999" y="1040" width="56.5" height="34.65" as="geometry" />
        </mxCell>
        <mxCell id="yGzMHYDaNf_yrKZ207rC-217" value="" style="endArrow=none;html=1;rounded=0;exitX=0.5;exitY=0;exitDx=0;exitDy=0;entryX=0.5;entryY=1;entryDx=0;entryDy=0;" parent="1" source="yGzMHYDaNf_yrKZ207rC-216" edge="1">
          <mxGeometry width="50" height="50" relative="1" as="geometry">
            <mxPoint x="898.11" y="1020" as="sourcePoint" />
            <mxPoint x="897.6150000000001" y="1024.6499999999999" as="targetPoint" />
          </mxGeometry>
        </mxCell>
        <mxCell id="yGzMHYDaNf_yrKZ207rC-218" value="(0,1)" style="text;html=1;strokeColor=none;fillColor=none;align=center;verticalAlign=middle;whiteSpace=wrap;rounded=0;fontColor=#000000;" parent="1" vertex="1">
          <mxGeometry x="1026.25" y="799.8499999999999" width="60" height="30" as="geometry" />
        </mxCell>
        <mxCell id="yGzMHYDaNf_yrKZ207rC-219" value="(2,N)" style="text;html=1;strokeColor=none;fillColor=none;align=center;verticalAlign=middle;whiteSpace=wrap;rounded=0;fontColor=#000000;" parent="1" vertex="1">
          <mxGeometry x="972.9300000000001" y="991.2699999999999" width="60" height="30" as="geometry" />
        </mxCell>
        <mxCell id="yGzMHYDaNf_yrKZ207rC-222" value="AnnoPubblicazione" style="ellipse;whiteSpace=wrap;html=1;fillColor=#182E3E;strokeColor=#FFFFFF;fontColor=#FFFFFF;" parent="1" vertex="1">
          <mxGeometry x="446.1700000000001" y="684.0699999999999" width="120" height="45.58" as="geometry" />
        </mxCell>
        <mxCell id="yGzMHYDaNf_yrKZ207rC-223" value="" style="endArrow=none;html=1;rounded=0;exitX=0.75;exitY=0;exitDx=0;exitDy=0;entryX=0;entryY=1;entryDx=0;entryDy=0;" parent="1" source="yGzMHYDaNf_yrKZ207rC-3" target="yGzMHYDaNf_yrKZ207rC-222" edge="1">
          <mxGeometry width="50" height="50" relative="1" as="geometry">
            <mxPoint x="561.25" y="710" as="sourcePoint" />
            <mxPoint x="611.25" y="660" as="targetPoint" />
          </mxGeometry>
        </mxCell>
        <mxCell id="yGzMHYDaNf_yrKZ207rC-224" value="" style="endArrow=none;html=1;rounded=0;entryX=0.5;entryY=1;entryDx=0;entryDy=0;exitX=0.5;exitY=0;exitDx=0;exitDy=0;" parent="1" source="yGzMHYDaNf_yrKZ207rC-71" target="yGzMHYDaNf_yrKZ207rC-58" edge="1">
          <mxGeometry width="50" height="50" relative="1" as="geometry">
            <mxPoint x="678.4599999999999" y="1242.25" as="sourcePoint" />
            <mxPoint x="769.8299999999998" y="1083.73" as="targetPoint" />
          </mxGeometry>
        </mxCell>
        <mxCell id="yGzMHYDaNf_yrKZ207rC-227" value="ISSN" style="ellipse;whiteSpace=wrap;html=1;fillColor=#182E3E;strokeColor=#FFFFFF;fontColor=#FFFFFF;" parent="1" vertex="1">
          <mxGeometry x="1470.42" y="715.0799999999999" width="55" height="34.92" as="geometry" />
        </mxCell>
        <mxCell id="yGzMHYDaNf_yrKZ207rC-228" value="" style="endArrow=none;html=1;rounded=0;strokeColor=#23445D;fontColor=#000000;exitX=0.5;exitY=1;exitDx=0;exitDy=0;" parent="1" source="yGzMHYDaNf_yrKZ207rC-227" target="yGzMHYDaNf_yrKZ207rC-20" edge="1">
          <mxGeometry width="50" height="50" relative="1" as="geometry">
            <mxPoint x="940.6395837166515" y="1034.65" as="sourcePoint" />
            <mxPoint x="940.4200000000001" y="1091.6499999999999" as="targetPoint" />
          </mxGeometry>
        </mxCell>
        <mxCell id="yGzMHYDaNf_yrKZ207rC-229" value="Nome" style="ellipse;whiteSpace=wrap;html=1;fillColor=#182E3E;strokeColor=#FFFFFF;fontColor=#FFFFFF;" parent="1" vertex="1">
          <mxGeometry x="1472.51" y="868.5800000000002" width="50.83" height="31.16" as="geometry" />
        </mxCell>
        <mxCell id="yGzMHYDaNf_yrKZ207rC-230" value="" style="endArrow=none;html=1;rounded=0;entryX=0.5;entryY=1;entryDx=0;entryDy=0;exitX=0.5;exitY=0;exitDx=0;exitDy=0;" parent="1" source="yGzMHYDaNf_yrKZ207rC-229" target="yGzMHYDaNf_yrKZ207rC-20" edge="1">
          <mxGeometry width="50" height="50" relative="1" as="geometry">
            <mxPoint x="1060" y="910" as="sourcePoint" />
            <mxPoint x="1110" y="860" as="targetPoint" />
          </mxGeometry>
        </mxCell>
        <mxCell id="0Y3_s-NsQxyj2uwiEeTM-2" value="Solo le collane che vengono pubblicate periodicamente hanno un ISSN. Invece le collane non periodiche non hanno un ISSN, ma hanno un ISBN per ogni libro che gli appartiene" style="text;html=1;strokeColor=none;fillColor=none;align=center;verticalAlign=middle;whiteSpace=wrap;rounded=0;" parent="1" vertex="1">
          <mxGeometry x="1307.92" y="612.98" width="220" height="86.03" as="geometry" />
        </mxCell>
        <mxCell id="0Y3_s-NsQxyj2uwiEeTM-4" value="ISBN" style="ellipse;whiteSpace=wrap;html=1;fillColor=#182E3E;strokeColor=#FFFFFF;fontColor=#FFFFFF;" parent="1" vertex="1">
          <mxGeometry x="960.42" y="1048.81" width="55" height="34.92" as="geometry" />
        </mxCell>
        <mxCell id="0Y3_s-NsQxyj2uwiEeTM-5" value="" style="endArrow=none;html=1;rounded=0;exitX=0.75;exitY=1;exitDx=0;exitDy=0;entryX=0.5;entryY=0;entryDx=0;entryDy=0;" parent="1" source="yGzMHYDaNf_yrKZ207rC-203" target="0Y3_s-NsQxyj2uwiEeTM-4" edge="1">
          <mxGeometry width="50" height="50" relative="1" as="geometry">
            <mxPoint x="1030" y="1220" as="sourcePoint" />
            <mxPoint x="1080" y="1170" as="targetPoint" />
          </mxGeometry>
        </mxCell>
        <mxCell id="PrsCmACceEziGPp9NvAK-1" value="Nome" style="ellipse;whiteSpace=wrap;html=1;fillColor=#182E3E;strokeColor=#FFFFFF;fontColor=#FFFFFF;" parent="1" vertex="1">
          <mxGeometry x="210" y="660" width="83.16" height="46.03" as="geometry" />
        </mxCell>
        <mxCell id="PrsCmACceEziGPp9NvAK-2" value="Cognome" style="ellipse;whiteSpace=wrap;html=1;fillColor=#182E3E;strokeColor=#FFFFFF;fontColor=#FFFFFF;" parent="1" vertex="1">
          <mxGeometry x="232.5000000000001" y="718" width="80" height="37.11" as="geometry" />
        </mxCell>
        <mxCell id="PrsCmACceEziGPp9NvAK-3" value="" style="endArrow=none;html=1;rounded=0;exitX=1;exitY=0.5;exitDx=0;exitDy=0;" parent="1" source="PrsCmACceEziGPp9NvAK-1" target="yGzMHYDaNf_yrKZ207rC-175" edge="1">
          <mxGeometry width="50" height="50" relative="1" as="geometry">
            <mxPoint x="550" y="590" as="sourcePoint" />
            <mxPoint x="600" y="540" as="targetPoint" />
          </mxGeometry>
        </mxCell>
        <mxCell id="PrsCmACceEziGPp9NvAK-4" value="" style="endArrow=none;html=1;rounded=0;exitX=1;exitY=0.5;exitDx=0;exitDy=0;entryX=0;entryY=1;entryDx=0;entryDy=0;" parent="1" source="PrsCmACceEziGPp9NvAK-2" target="yGzMHYDaNf_yrKZ207rC-175" edge="1">
          <mxGeometry width="50" height="50" relative="1" as="geometry">
            <mxPoint x="550" y="590" as="sourcePoint" />
            <mxPoint x="600" y="540" as="targetPoint" />
          </mxGeometry>
        </mxCell>
        <mxCell id="PrsCmACceEziGPp9NvAK-6" value="Nome" style="ellipse;whiteSpace=wrap;html=1;fillColor=#182E3E;strokeColor=#FFFFFF;fontColor=#FFFFFF;" parent="1" vertex="1">
          <mxGeometry x="999.5899999999999" y="593.08" width="63.75" height="35" as="geometry" />
        </mxCell>
        <mxCell id="PrsCmACceEziGPp9NvAK-7" value="Cognome" style="ellipse;whiteSpace=wrap;html=1;fillColor=#182E3E;strokeColor=#FFFFFF;fontColor=#FFFFFF;" parent="1" vertex="1">
          <mxGeometry x="951.2500000000001" y="684.07" width="80" height="37.11" as="geometry" />
        </mxCell>
        <mxCell id="PrsCmACceEziGPp9NvAK-8" value="" style="endArrow=none;html=1;rounded=0;entryX=0;entryY=0;entryDx=0;entryDy=0;exitX=0.561;exitY=1;exitDx=0;exitDy=0;exitPerimeter=0;" parent="1" source="PrsCmACceEziGPp9NvAK-6" target="yGzMHYDaNf_yrKZ207rC-9" edge="1">
          <mxGeometry width="50" height="50" relative="1" as="geometry">
            <mxPoint x="810" y="710" as="sourcePoint" />
            <mxPoint x="860" y="660" as="targetPoint" />
          </mxGeometry>
        </mxCell>
        <mxCell id="PrsCmACceEziGPp9NvAK-9" value="" style="endArrow=none;html=1;rounded=0;entryX=0;entryY=1;entryDx=0;entryDy=0;exitX=1;exitY=0;exitDx=0;exitDy=0;" parent="1" source="PrsCmACceEziGPp9NvAK-7" target="yGzMHYDaNf_yrKZ207rC-9" edge="1">
          <mxGeometry width="50" height="50" relative="1" as="geometry">
            <mxPoint x="810" y="710" as="sourcePoint" />
            <mxPoint x="860" y="660" as="targetPoint" />
          </mxGeometry>
        </mxCell>
        <mxCell id="PrsCmACceEziGPp9NvAK-10" value="PartitaIVA" style="ellipse;whiteSpace=wrap;html=1;fillColor=#182E3E;strokeColor=#FFFFFF;fontColor=#FFFFFF;" parent="1" vertex="1">
          <mxGeometry x="516.2499999999999" y="244" width="75.24" height="45.79" as="geometry" />
        </mxCell>
        <mxCell id="PrsCmACceEziGPp9NvAK-11" value="" style="endArrow=none;html=1;rounded=0;entryX=0.5;entryY=0;entryDx=0;entryDy=0;exitX=0.5;exitY=1;exitDx=0;exitDy=0;" parent="1" source="PrsCmACceEziGPp9NvAK-10" target="yGzMHYDaNf_yrKZ207rC-112" edge="1">
          <mxGeometry width="50" height="50" relative="1" as="geometry">
            <mxPoint x="630" y="350" as="sourcePoint" />
            <mxPoint x="680" y="300" as="targetPoint" />
          </mxGeometry>
        </mxCell>
        <mxCell id="XhCrg1R68w2tLpCAlJi1-1" value="Luogo" style="ellipse;whiteSpace=wrap;html=1;fillColor=#182E3E;strokeColor=#FFFFFF;fontColor=#FFFFFF;" parent="1" vertex="1">
          <mxGeometry x="1267.92" y="1021.27" width="70" height="40" as="geometry" />
        </mxCell>
        <mxCell id="XhCrg1R68w2tLpCAlJi1-3" value="LuogoPresentazione" style="ellipse;whiteSpace=wrap;html=1;fillColor=#182E3E;strokeColor=#FFFFFF;fontColor=#FFFFFF;" parent="1" vertex="1">
          <mxGeometry x="1202.92" y="1110" width="130" height="50" as="geometry" />
        </mxCell>
        <mxCell id="XhCrg1R68w2tLpCAlJi1-4" value="" style="endArrow=none;html=1;rounded=0;strokeColor=#23445D;fontColor=#000000;exitX=0.5;exitY=0;exitDx=0;exitDy=0;entryX=0.27;entryY=0.994;entryDx=0;entryDy=0;entryPerimeter=0;" parent="1" source="XhCrg1R68w2tLpCAlJi1-3" target="XhCrg1R68w2tLpCAlJi1-1" edge="1">
          <mxGeometry width="50" height="50" relative="1" as="geometry">
            <mxPoint x="1500.42" y="1192.38" as="sourcePoint" />
            <mxPoint x="1550.42" y="1142.38" as="targetPoint" />
          </mxGeometry>
        </mxCell>
        <mxCell id="XhCrg1R68w2tLpCAlJi1-5" value="StrutturaOrganizzatrice" style="ellipse;whiteSpace=wrap;html=1;fillColor=#182E3E;strokeColor=#FFFFFF;fontColor=#FFFFFF;" parent="1" vertex="1">
          <mxGeometry x="1342.92" y="1103.73" width="150" height="60" as="geometry" />
        </mxCell>
        <mxCell id="XhCrg1R68w2tLpCAlJi1-6" value="" style="endArrow=none;html=1;rounded=0;strokeColor=#23445D;fontColor=#000000;exitX=0.696;exitY=0.983;exitDx=0;exitDy=0;entryX=0;entryY=0;entryDx=0;entryDy=0;exitPerimeter=0;" parent="1" source="XhCrg1R68w2tLpCAlJi1-1" target="XhCrg1R68w2tLpCAlJi1-5" edge="1">
          <mxGeometry width="50" height="50" relative="1" as="geometry">
            <mxPoint x="1500.42" y="1192.38" as="sourcePoint" />
            <mxPoint x="1380" y="1080" as="targetPoint" />
          </mxGeometry>
        </mxCell>
        <mxCell id="XhCrg1R68w2tLpCAlJi1-7" value="Nazione" style="ellipse;whiteSpace=wrap;html=1;fillColor=#182E3E;strokeColor=#FFFFFF;fontColor=#FFFFFF;" parent="1" vertex="1">
          <mxGeometry x="1147.92" y="1173.73" width="70" height="40" as="geometry" />
        </mxCell>
        <mxCell id="XhCrg1R68w2tLpCAlJi1-8" value="" style="endArrow=none;html=1;rounded=0;strokeColor=#23445D;fontColor=#000000;entryX=0.282;entryY=0.969;entryDx=0;entryDy=0;exitX=1;exitY=0;exitDx=0;exitDy=0;entryPerimeter=0;" parent="1" source="XhCrg1R68w2tLpCAlJi1-7" target="XhCrg1R68w2tLpCAlJi1-3" edge="1">
          <mxGeometry width="50" height="50" relative="1" as="geometry">
            <mxPoint x="1162.92" y="1262.38" as="sourcePoint" />
            <mxPoint x="1212.92" y="1212.38" as="targetPoint" />
          </mxGeometry>
        </mxCell>
        <mxCell id="XhCrg1R68w2tLpCAlJi1-9" value="Città" style="ellipse;whiteSpace=wrap;html=1;fillColor=#182E3E;strokeColor=#FFFFFF;fontColor=#FFFFFF;" parent="1" vertex="1">
          <mxGeometry x="1232.92" y="1218.65" width="70" height="40" as="geometry" />
        </mxCell>
        <mxCell id="XhCrg1R68w2tLpCAlJi1-10" value="" style="endArrow=none;html=1;rounded=0;strokeColor=#23445D;fontColor=#000000;exitX=0.5;exitY=0;exitDx=0;exitDy=0;entryX=0.5;entryY=1;entryDx=0;entryDy=0;" parent="1" source="XhCrg1R68w2tLpCAlJi1-9" target="XhCrg1R68w2tLpCAlJi1-3" edge="1">
          <mxGeometry width="50" height="50" relative="1" as="geometry">
            <mxPoint x="1290.42" y="1282.38" as="sourcePoint" />
            <mxPoint x="1340.42" y="1232.38" as="targetPoint" />
          </mxGeometry>
        </mxCell>
        <mxCell id="XhCrg1R68w2tLpCAlJi1-11" value="Indirizzo" style="ellipse;whiteSpace=wrap;html=1;fillColor=#182E3E;strokeColor=#FFFFFF;fontColor=#FFFFFF;" parent="1" vertex="1">
          <mxGeometry x="1322.9199999999998" y="1178.65" width="70" height="40" as="geometry" />
        </mxCell>
        <mxCell id="XhCrg1R68w2tLpCAlJi1-12" value="" style="endArrow=none;html=1;rounded=0;strokeColor=#23445D;fontColor=#000000;exitX=0;exitY=0;exitDx=0;exitDy=0;" parent="1" source="XhCrg1R68w2tLpCAlJi1-11" target="XhCrg1R68w2tLpCAlJi1-3" edge="1">
          <mxGeometry width="50" height="50" relative="1" as="geometry">
            <mxPoint x="1315.42" y="1252.38" as="sourcePoint" />
            <mxPoint x="1365.42" y="1202.38" as="targetPoint" />
          </mxGeometry>
        </mxCell>
        <mxCell id="XhCrg1R68w2tLpCAlJi1-13" value="Titolo" style="ellipse;whiteSpace=wrap;html=1;fillColor=#182E3E;strokeColor=#FFFFFF;fontColor=#FFFFFF;" parent="1" vertex="1">
          <mxGeometry x="170" y="756.24" width="60" height="40" as="geometry" />
        </mxCell>
        <mxCell id="XhCrg1R68w2tLpCAlJi1-14" value="" style="endArrow=none;html=1;rounded=0;exitX=1;exitY=0.5;exitDx=0;exitDy=0;entryX=0;entryY=0.25;entryDx=0;entryDy=0;" parent="1" source="XhCrg1R68w2tLpCAlJi1-13" target="yGzMHYDaNf_yrKZ207rC-3" edge="1">
          <mxGeometry width="50" height="50" relative="1" as="geometry">
            <mxPoint x="670" y="810" as="sourcePoint" />
            <mxPoint x="720" y="760" as="targetPoint" />
          </mxGeometry>
        </mxCell>
        <mxCell id="w9Sq0cVRaScrMqvzQ0N7-1" value="FASCICOLO" style="shape=ext;margin=3;double=1;whiteSpace=wrap;html=1;align=center;fillStyle=auto;strokeColor=#F5F5F5;fontColor=#F5F5F5;fillColor=#182E3E;" parent="1" vertex="1">
          <mxGeometry x="726.09" y="766.66" width="133.29" height="70.15" as="geometry" />
        </mxCell>
        <mxCell id="w9Sq0cVRaScrMqvzQ0N7-3" value="" style="endArrow=none;html=1;rounded=0;entryX=0;entryY=0.5;entryDx=0;entryDy=0;exitX=1;exitY=0.5;exitDx=0;exitDy=0;" parent="1" source="yGzMHYDaNf_yrKZ207rC-202" target="w9Sq0cVRaScrMqvzQ0N7-1" edge="1">
          <mxGeometry width="50" height="50" relative="1" as="geometry">
            <mxPoint x="641.88" y="852.73" as="sourcePoint" />
            <mxPoint x="691.88" y="802.73" as="targetPoint" />
          </mxGeometry>
        </mxCell>
        <mxCell id="w9Sq0cVRaScrMqvzQ0N7-7" value="(1,N)" style="text;html=1;strokeColor=none;fillColor=none;align=center;verticalAlign=middle;whiteSpace=wrap;rounded=0;fontColor=#000000;" parent="1" vertex="1">
          <mxGeometry x="675.04" y="774.15" width="60" height="30" as="geometry" />
        </mxCell>
        <mxCell id="w9Sq0cVRaScrMqvzQ0N7-8" value="N" style="text;html=1;strokeColor=none;fillColor=none;align=center;verticalAlign=middle;whiteSpace=wrap;rounded=0;fontColor=#000000;" parent="1" vertex="1">
          <mxGeometry x="690.96" y="801.2699999999999" width="33.08" height="27.23" as="geometry" />
        </mxCell>
        <mxCell id="w9Sq0cVRaScrMqvzQ0N7-10" value="" style="endArrow=none;html=1;rounded=0;" parent="1" source="w9Sq0cVRaScrMqvzQ0N7-1" edge="1">
          <mxGeometry width="50" height="50" relative="1" as="geometry">
            <mxPoint x="590" y="870" as="sourcePoint" />
            <mxPoint x="793" y="730" as="targetPoint" />
          </mxGeometry>
        </mxCell>
        <mxCell id="w9Sq0cVRaScrMqvzQ0N7-13" value="Numero" style="ellipse;whiteSpace=wrap;html=1;fillColor=#182E3E;strokeColor=#FFFFFF;fontColor=#FFFFFF;" parent="1" vertex="1">
          <mxGeometry x="751.1600000000001" y="683.62" width="83.16" height="46.03" as="geometry" />
        </mxCell>
        <mxCell id="w9Sq0cVRaScrMqvzQ0N7-14" value="" style="endArrow=none;html=1;rounded=0;entryX=0;entryY=0.75;entryDx=0;entryDy=0;exitX=1;exitY=0.5;exitDx=0;exitDy=0;" parent="1" source="yGzMHYDaNf_yrKZ207rC-124" target="yGzMHYDaNf_yrKZ207rC-58" edge="1">
          <mxGeometry width="50" height="50" relative="1" as="geometry">
            <mxPoint x="600.12" y="979.74" as="sourcePoint" />
            <mxPoint x="650.12" y="929.74" as="targetPoint" />
          </mxGeometry>
        </mxCell>
        <mxCell id="w9Sq0cVRaScrMqvzQ0N7-16" value="&lt;font color=&quot;#f5f5f5&quot;&gt;COMPOSIZIONE&lt;/font&gt;" style="shape=rhombus;double=1;perimeter=rhombusPerimeter;whiteSpace=wrap;html=1;align=center;fillColor=#182E3E;fillStyle=auto;strokeColor=#F5F5F5;" parent="1" vertex="1">
          <mxGeometry x="727.12" y="872.73" width="131.25" height="79.5" as="geometry" />
        </mxCell>
        <mxCell id="w9Sq0cVRaScrMqvzQ0N7-17" value="" style="endArrow=none;html=1;rounded=0;entryX=0.5;entryY=1;entryDx=0;entryDy=0;" parent="1" source="w9Sq0cVRaScrMqvzQ0N7-16" edge="1">
          <mxGeometry width="50" height="50" relative="1" as="geometry">
            <mxPoint x="792.7397473479061" y="868.5831816064111" as="sourcePoint" />
            <mxPoint x="792.7349999999999" y="832.66" as="targetPoint" />
          </mxGeometry>
        </mxCell>
        <mxCell id="w9Sq0cVRaScrMqvzQ0N7-20" value="" style="endArrow=none;html=1;rounded=0;entryX=0.5;entryY=1;entryDx=0;entryDy=0;exitX=0.5;exitY=0;exitDx=0;exitDy=0;" parent="1" source="yGzMHYDaNf_yrKZ207rC-58" target="w9Sq0cVRaScrMqvzQ0N7-16" edge="1">
          <mxGeometry width="50" height="50" relative="1" as="geometry">
            <mxPoint x="590" y="1030" as="sourcePoint" />
            <mxPoint x="640" y="980" as="targetPoint" />
          </mxGeometry>
        </mxCell>
        <mxCell id="w9Sq0cVRaScrMqvzQ0N7-21" value="Doi" style="ellipse;whiteSpace=wrap;html=1;fillColor=#182E3E;strokeColor=#FFFFFF;fontColor=#FFFFFF;" parent="1" vertex="1">
          <mxGeometry x="179.16" y="823.25" width="60" height="36.75" as="geometry" />
        </mxCell>
        <mxCell id="w9Sq0cVRaScrMqvzQ0N7-22" value="" style="endArrow=none;html=1;rounded=0;exitX=1;exitY=0;exitDx=0;exitDy=0;entryX=0;entryY=0.75;entryDx=0;entryDy=0;" parent="1" source="w9Sq0cVRaScrMqvzQ0N7-21" target="yGzMHYDaNf_yrKZ207rC-3" edge="1">
          <mxGeometry width="50" height="50" relative="1" as="geometry">
            <mxPoint x="590" y="850" as="sourcePoint" />
            <mxPoint x="640" y="800" as="targetPoint" />
          </mxGeometry>
        </mxCell>
        <mxCell id="w9Sq0cVRaScrMqvzQ0N7-24" value="1" style="text;html=1;strokeColor=none;fillColor=none;align=center;verticalAlign=middle;whiteSpace=wrap;rounded=0;fontColor=#000000;" parent="1" vertex="1">
          <mxGeometry x="774.32" y="833.35" width="60" height="30" as="geometry" />
        </mxCell>
        <mxCell id="w9Sq0cVRaScrMqvzQ0N7-25" value="(1,1)" style="text;html=1;strokeColor=none;fillColor=none;align=center;verticalAlign=middle;whiteSpace=wrap;rounded=0;fontColor=#000000;" parent="1" vertex="1">
          <mxGeometry x="744.3100000000001" y="832.35" width="60" height="30" as="geometry" />
        </mxCell>
        <mxCell id="w9Sq0cVRaScrMqvzQ0N7-26" value="(0,N)" style="text;html=1;strokeColor=none;fillColor=none;align=center;verticalAlign=middle;whiteSpace=wrap;rounded=0;fontColor=#000000;" parent="1" vertex="1">
          <mxGeometry x="739.9599999999999" y="961.27" width="60" height="30" as="geometry" />
        </mxCell>
        <mxCell id="w9Sq0cVRaScrMqvzQ0N7-27" value="N" style="text;html=1;strokeColor=none;fillColor=none;align=center;verticalAlign=middle;whiteSpace=wrap;rounded=0;fontColor=#000000;" parent="1" vertex="1">
          <mxGeometry x="793.1700000000001" y="964.0399999999998" width="33.08" height="27.23" as="geometry" />
        </mxCell>
        <mxCell id="w9Sq0cVRaScrMqvzQ0N7-28" value="Titolo" style="ellipse;whiteSpace=wrap;html=1;fillColor=#182E3E;strokeColor=#FFFFFF;fontColor=#FFFFFF;" parent="1" vertex="1">
          <mxGeometry x="636.73" y="982.0299999999999" width="49.04" height="25.33" as="geometry" />
        </mxCell>
        <mxCell id="w9Sq0cVRaScrMqvzQ0N7-29" value="" style="endArrow=none;html=1;rounded=0;entryX=1;entryY=0.5;entryDx=0;entryDy=0;exitX=0;exitY=0.25;exitDx=0;exitDy=0;" parent="1" source="yGzMHYDaNf_yrKZ207rC-58" target="w9Sq0cVRaScrMqvzQ0N7-28" edge="1">
          <mxGeometry width="50" height="50" relative="1" as="geometry">
            <mxPoint x="555.9268199999998" y="1083.7250000000004" as="sourcePoint" />
            <mxPoint x="469.91999999999996" y="1083.28" as="targetPoint" />
          </mxGeometry>
        </mxCell>
        <mxCell id="w9Sq0cVRaScrMqvzQ0N7-30" value="AnnoPubblicazione" style="ellipse;whiteSpace=wrap;html=1;fillColor=#182E3E;strokeColor=#FFFFFF;fontColor=#FFFFFF;" parent="1" vertex="1">
          <mxGeometry x="606.0899999999999" y="1074.09" width="120" height="45.58" as="geometry" />
        </mxCell>
        <mxCell id="w9Sq0cVRaScrMqvzQ0N7-31" value="" style="endArrow=none;html=1;rounded=0;labelBackgroundColor=#FCE7CD;strokeColor=#23445D;exitX=0;exitY=1;exitDx=0;exitDy=0;entryX=1;entryY=0;entryDx=0;entryDy=0;" parent="1" source="yGzMHYDaNf_yrKZ207rC-58" target="w9Sq0cVRaScrMqvzQ0N7-30" edge="1">
          <mxGeometry width="50" height="50" relative="1" as="geometry">
            <mxPoint x="571.5899999999998" y="1084.7600000000002" as="sourcePoint" />
            <mxPoint x="577.1719960046024" y="1097.791731868354" as="targetPoint" />
          </mxGeometry>
        </mxCell>
        <mxCell id="w9Sq0cVRaScrMqvzQ0N7-32" value="Editore" style="ellipse;whiteSpace=wrap;html=1;fillColor=#182E3E;strokeColor=#FFFFFF;fontColor=#FFFFFF;" parent="1" vertex="1">
          <mxGeometry x="853.45" y="920" width="58.75" height="34.27" as="geometry" />
        </mxCell>
        <mxCell id="w9Sq0cVRaScrMqvzQ0N7-33" value="" style="endArrow=none;html=1;rounded=0;labelBackgroundColor=#FCE7CD;strokeColor=#23445D;exitX=0;exitY=1;exitDx=0;exitDy=0;entryX=0.889;entryY=0.022;entryDx=0;entryDy=0;entryPerimeter=0;" parent="1" source="w9Sq0cVRaScrMqvzQ0N7-32" target="yGzMHYDaNf_yrKZ207rC-58" edge="1">
          <mxGeometry width="50" height="50" relative="1" as="geometry">
            <mxPoint x="742.0299999999997" y="1060.22" as="sourcePoint" />
            <mxPoint x="719.2580039953584" y="1091.0517318683683" as="targetPoint" />
          </mxGeometry>
        </mxCell>
        <mxCell id="w9Sq0cVRaScrMqvzQ0N7-34" value="Preferito" style="ellipse;whiteSpace=wrap;html=1;fillColor=#182E3E;strokeColor=#FFFFFF;fontColor=#FFFFFF;" parent="1" vertex="1">
          <mxGeometry x="960.4199999999996" y="400.71" width="77.07" height="40" as="geometry" />
        </mxCell>
        <mxCell id="w9Sq0cVRaScrMqvzQ0N7-35" value="" style="endArrow=none;html=1;rounded=0;exitX=1;exitY=0;exitDx=0;exitDy=0;" parent="1" source="yGzMHYDaNf_yrKZ207rC-100" target="w9Sq0cVRaScrMqvzQ0N7-34" edge="1">
          <mxGeometry width="50" height="50" relative="1" as="geometry">
            <mxPoint x="1160" y="470" as="sourcePoint" />
            <mxPoint x="1087.67" y="500.8299999999999" as="targetPoint" />
          </mxGeometry>
        </mxCell>
        <mxCell id="0A7u5HxsAh8WX5b8oIU6-5" value="NOTIFICA" style="rhombus;whiteSpace=wrap;html=1;fillColor=#182E3E;strokeColor=#FFFFFF;fontColor=#FFFFFF;" parent="1" vertex="1">
          <mxGeometry x="1181.26" y="240.35999999999999" width="100" height="80" as="geometry" />
        </mxCell>
        <mxCell id="0A7u5HxsAh8WX5b8oIU6-6" value="" style="endArrow=none;html=1;rounded=0;entryX=0;entryY=0.5;entryDx=0;entryDy=0;" parent="1" target="0A7u5HxsAh8WX5b8oIU6-5" edge="1">
          <mxGeometry width="50" height="50" relative="1" as="geometry">
            <mxPoint x="810" y="330" as="sourcePoint" />
            <mxPoint x="990" y="260" as="targetPoint" />
            <Array as="points">
              <mxPoint x="810" y="280" />
            </Array>
          </mxGeometry>
        </mxCell>
        <mxCell id="0A7u5HxsAh8WX5b8oIU6-8" value="N" style="text;html=1;strokeColor=none;fillColor=none;align=center;verticalAlign=middle;whiteSpace=wrap;rounded=0;" parent="1" vertex="1">
          <mxGeometry x="767" y="294.71000000000004" width="60" height="30" as="geometry" />
        </mxCell>
        <mxCell id="0A7u5HxsAh8WX5b8oIU6-10" value="" style="endArrow=none;html=1;rounded=0;exitX=0.5;exitY=1;exitDx=0;exitDy=0;entryX=1;entryY=0.5;entryDx=0;entryDy=0;" parent="1" source="yGzMHYDaNf_yrKZ207rC-203" target="0A7u5HxsAh8WX5b8oIU6-5" edge="1">
          <mxGeometry width="50" height="50" relative="1" as="geometry">
            <mxPoint x="1170" y="550" as="sourcePoint" />
            <mxPoint x="1440" y="250" as="targetPoint" />
            <Array as="points">
              <mxPoint x="930" y="1360" />
              <mxPoint x="1610" y="1360" />
              <mxPoint x="1610" y="280" />
            </Array>
          </mxGeometry>
        </mxCell>
        <mxCell id="0A7u5HxsAh8WX5b8oIU6-14" value="N" style="text;html=1;strokeColor=none;fillColor=none;align=center;verticalAlign=middle;whiteSpace=wrap;rounded=0;" parent="1" vertex="1">
          <mxGeometry x="908.75" y="1026.27" width="60" height="30" as="geometry" />
        </mxCell>
        <mxCell id="tR5BqJjXOK5aHxX2JE20-1" value="Lettura" style="ellipse;whiteSpace=wrap;html=1;fillColor=#182E3E;strokeColor=#FFFFFF;fontColor=#FFFFFF;" parent="1" vertex="1">
          <mxGeometry x="1127.92" y="203.26" width="70" height="37.1" as="geometry" />
        </mxCell>
        <mxCell id="tR5BqJjXOK5aHxX2JE20-2" value="" style="endArrow=none;html=1;rounded=0;exitX=0;exitY=0;exitDx=0;exitDy=0;" parent="1" source="0A7u5HxsAh8WX5b8oIU6-5" target="tR5BqJjXOK5aHxX2JE20-1" edge="1">
          <mxGeometry width="50" height="50" relative="1" as="geometry">
            <mxPoint x="1204.17" y="240.36" as="sourcePoint" />
            <mxPoint x="1266.25" y="195" as="targetPoint" />
          </mxGeometry>
        </mxCell>
        <mxCell id="Sv4qeLshkwBJKOBS2BOC-1" value="Libreria" style="ellipse;whiteSpace=wrap;html=1;fillColor=#182E3E;strokeColor=#FFFFFF;fontColor=#FFFFFF;" parent="1" vertex="1">
          <mxGeometry x="1195.42" y="170" width="70" height="37.1" as="geometry" />
        </mxCell>
        <mxCell id="Sv4qeLshkwBJKOBS2BOC-2" value="" style="endArrow=none;html=1;rounded=0;entryX=0.5;entryY=1;entryDx=0;entryDy=0;" parent="1" source="0A7u5HxsAh8WX5b8oIU6-5" target="Sv4qeLshkwBJKOBS2BOC-1" edge="1">
          <mxGeometry width="50" height="50" relative="1" as="geometry">
            <mxPoint x="1230" y="240" as="sourcePoint" />
            <mxPoint x="1341.67" y="158.19" as="targetPoint" />
          </mxGeometry>
        </mxCell>
        <mxCell id="DuaZiHp-5Q_8kv4eKmzW-1" value="Testo" style="ellipse;whiteSpace=wrap;html=1;fillColor=#182E3E;strokeColor=#FFFFFF;fontColor=#FFFFFF;" parent="1" vertex="1">
          <mxGeometry x="1272.92" y="203.26" width="70" height="37.1" as="geometry" />
        </mxCell>
        <mxCell id="DuaZiHp-5Q_8kv4eKmzW-3" value="" style="endArrow=none;html=1;rounded=0;entryX=0;entryY=1;entryDx=0;entryDy=0;exitX=1;exitY=0;exitDx=0;exitDy=0;" parent="1" source="0A7u5HxsAh8WX5b8oIU6-5" target="DuaZiHp-5Q_8kv4eKmzW-1" edge="1">
          <mxGeometry width="50" height="50" relative="1" as="geometry">
            <mxPoint x="1259.17" y="240.36" as="sourcePoint" />
            <mxPoint x="1276.25" y="255" as="targetPoint" />
          </mxGeometry>
        </mxCell>
        <mxCell id="Zq_3hnwFJgCSPyp9BibA-1" value="(0,N)" style="text;html=1;strokeColor=none;fillColor=none;align=center;verticalAlign=middle;whiteSpace=wrap;rounded=0;fontColor=#000000;" parent="1" vertex="1">
          <mxGeometry x="799.96" y="294.71" width="60" height="30" as="geometry" />
        </mxCell>
        <mxCell id="Zq_3hnwFJgCSPyp9BibA-2" value="(0,N)" style="text;html=1;strokeColor=none;fillColor=none;align=center;verticalAlign=middle;whiteSpace=wrap;rounded=0;fontColor=#000000;" parent="1" vertex="1">
          <mxGeometry x="881.96" y="1020.6500000000001" width="60" height="30" as="geometry" />
        </mxCell>
        <mxCell id="Zq_3hnwFJgCSPyp9BibA-3" value="DataInvio" style="ellipse;whiteSpace=wrap;html=1;fillColor=#182E3E;strokeColor=#FFFFFF;fontColor=#FFFFFF;" parent="1" vertex="1">
          <mxGeometry x="1241" y="329.71" width="70" height="37.1" as="geometry" />
        </mxCell>
        <mxCell id="Zq_3hnwFJgCSPyp9BibA-4" value="" style="endArrow=none;html=1;rounded=0;entryX=1;entryY=1;entryDx=0;entryDy=0;exitX=0.5;exitY=0;exitDx=0;exitDy=0;" parent="1" source="Zq_3hnwFJgCSPyp9BibA-3" target="0A7u5HxsAh8WX5b8oIU6-5" edge="1">
          <mxGeometry width="50" height="50" relative="1" as="geometry">
            <mxPoint x="1180" y="400" as="sourcePoint" />
            <mxPoint x="1230" y="350" as="targetPoint" />
          </mxGeometry>
        </mxCell>
        <mxCell id="Zq_3hnwFJgCSPyp9BibA-5" value="OraInvio" style="ellipse;whiteSpace=wrap;html=1;fillColor=#182E3E;strokeColor=#FFFFFF;fontColor=#FFFFFF;" parent="1" vertex="1">
          <mxGeometry x="1152.9199999999998" y="326.45" width="70" height="37.1" as="geometry" />
        </mxCell>
        <mxCell id="Zq_3hnwFJgCSPyp9BibA-6" value="" style="endArrow=none;html=1;rounded=0;exitX=0.5;exitY=0;exitDx=0;exitDy=0;" parent="1" source="Zq_3hnwFJgCSPyp9BibA-5" target="0A7u5HxsAh8WX5b8oIU6-5" edge="1">
          <mxGeometry width="50" height="50" relative="1" as="geometry">
            <mxPoint x="1055.84" y="407.93" as="sourcePoint" />
            <mxPoint x="1212.1" y="254.04000000000002" as="targetPoint" />
          </mxGeometry>
        </mxCell>
      </root>
    </mxGraphModel>
  </diagram>
  <diagram id="poPzLFgkxDr0u7algGvc" name="Pagina-2">
    <mxGraphModel dx="1599" dy="312" grid="1" gridSize="10" guides="1" tooltips="1" connect="1" arrows="1" fold="1" page="1" pageScale="1" pageWidth="827" pageHeight="1169" math="0" shadow="0">
      <root>
        <mxCell id="0" />
        <mxCell id="1" parent="0" />
        <mxCell id="HdaimWETVXJiYSJsJbHd-1" value="Utente" style="whiteSpace=wrap;html=1;align=center;verticalAlign=middle;labelPosition=center;verticalLabelPosition=middle;movable=1;resizable=1;rotatable=1;deletable=1;editable=1;connectable=1;" parent="1" vertex="1">
          <mxGeometry x="384" y="90" width="60" height="30" as="geometry" />
        </mxCell>
        <mxCell id="4NvQhby7VOS1UhBX7b2i-1" value="Nome" style="ellipse;whiteSpace=wrap;html=1;align=center;" parent="1" vertex="1">
          <mxGeometry x="453" y="130" width="60" height="30" as="geometry" />
        </mxCell>
        <mxCell id="Z0wwef1Rk4z894UFLVb8-1" value="Cognome" style="ellipse;whiteSpace=wrap;html=1;align=center;" parent="1" vertex="1">
          <mxGeometry x="453" y="50" width="80" height="30" as="geometry" />
        </mxCell>
        <mxCell id="Z0wwef1Rk4z894UFLVb8-2" value="Username" style="ellipse;whiteSpace=wrap;html=1;align=center;" parent="1" vertex="1">
          <mxGeometry x="295" y="130" width="80" height="30" as="geometry" />
        </mxCell>
        <mxCell id="Z0wwef1Rk4z894UFLVb8-3" value="Password" style="ellipse;whiteSpace=wrap;html=1;align=center;" parent="1" vertex="1">
          <mxGeometry x="294" y="50" width="80" height="30" as="geometry" />
        </mxCell>
        <mxCell id="3dg4oM-1FIlxe8W3jH2X-1" value="Email" style="ellipse;whiteSpace=wrap;html=1;align=center;" parent="1" vertex="1">
          <mxGeometry x="459" y="90" width="50" height="30" as="geometry" />
        </mxCell>
        <mxCell id="3dg4oM-1FIlxe8W3jH2X-2" value="DataNascita" style="ellipse;whiteSpace=wrap;html=1;align=center;" parent="1" vertex="1">
          <mxGeometry x="284" y="90" width="90" height="30" as="geometry" />
        </mxCell>
        <mxCell id="P2wgcCRpPAr4IdLbqQeJ-4" value="" style="endArrow=none;html=1;rounded=0;exitX=1;exitY=0.5;exitDx=0;exitDy=0;entryX=0;entryY=0;entryDx=0;entryDy=0;" parent="1" source="Z0wwef1Rk4z894UFLVb8-3" target="HdaimWETVXJiYSJsJbHd-1" edge="1">
          <mxGeometry width="50" height="50" relative="1" as="geometry">
            <mxPoint x="380" y="80" as="sourcePoint" />
            <mxPoint x="390" y="90" as="targetPoint" />
            <Array as="points">
              <mxPoint x="384" y="65" />
            </Array>
          </mxGeometry>
        </mxCell>
        <mxCell id="P2wgcCRpPAr4IdLbqQeJ-5" value="" style="endArrow=none;html=1;rounded=0;exitX=1;exitY=0.5;exitDx=0;exitDy=0;entryX=0;entryY=0.5;entryDx=0;entryDy=0;" parent="1" source="3dg4oM-1FIlxe8W3jH2X-2" target="HdaimWETVXJiYSJsJbHd-1" edge="1">
          <mxGeometry width="50" height="50" relative="1" as="geometry">
            <mxPoint x="380" y="120" as="sourcePoint" />
            <mxPoint x="430" y="70" as="targetPoint" />
          </mxGeometry>
        </mxCell>
        <mxCell id="P2wgcCRpPAr4IdLbqQeJ-7" value="" style="endArrow=none;html=1;rounded=0;exitX=1;exitY=0.5;exitDx=0;exitDy=0;entryX=0;entryY=1;entryDx=0;entryDy=0;" parent="1" source="Z0wwef1Rk4z894UFLVb8-2" target="HdaimWETVXJiYSJsJbHd-1" edge="1">
          <mxGeometry width="50" height="50" relative="1" as="geometry">
            <mxPoint x="380" y="170" as="sourcePoint" />
            <mxPoint x="430" y="120" as="targetPoint" />
            <Array as="points">
              <mxPoint x="384" y="145" />
            </Array>
          </mxGeometry>
        </mxCell>
        <mxCell id="P2wgcCRpPAr4IdLbqQeJ-8" value="" style="endArrow=none;html=1;rounded=0;entryX=0;entryY=0.5;entryDx=0;entryDy=0;exitX=1;exitY=0;exitDx=0;exitDy=0;" parent="1" source="HdaimWETVXJiYSJsJbHd-1" target="Z0wwef1Rk4z894UFLVb8-1" edge="1">
          <mxGeometry width="50" height="50" relative="1" as="geometry">
            <mxPoint x="390" y="90" as="sourcePoint" />
            <mxPoint x="440" y="40" as="targetPoint" />
            <Array as="points">
              <mxPoint x="444" y="65" />
            </Array>
          </mxGeometry>
        </mxCell>
        <mxCell id="P2wgcCRpPAr4IdLbqQeJ-9" value="" style="endArrow=none;html=1;rounded=0;exitX=1;exitY=0.5;exitDx=0;exitDy=0;entryX=0;entryY=0.5;entryDx=0;entryDy=0;" parent="1" source="HdaimWETVXJiYSJsJbHd-1" target="3dg4oM-1FIlxe8W3jH2X-1" edge="1">
          <mxGeometry width="50" height="50" relative="1" as="geometry">
            <mxPoint x="440" y="140" as="sourcePoint" />
            <mxPoint x="490" y="90" as="targetPoint" />
          </mxGeometry>
        </mxCell>
        <mxCell id="P2wgcCRpPAr4IdLbqQeJ-10" value="" style="endArrow=none;html=1;rounded=0;exitX=1;exitY=1;exitDx=0;exitDy=0;entryX=0;entryY=0.5;entryDx=0;entryDy=0;" parent="1" source="HdaimWETVXJiYSJsJbHd-1" target="4NvQhby7VOS1UhBX7b2i-1" edge="1">
          <mxGeometry width="50" height="50" relative="1" as="geometry">
            <mxPoint x="420" y="160" as="sourcePoint" />
            <mxPoint x="470" y="110" as="targetPoint" />
            <Array as="points">
              <mxPoint x="444" y="145" />
            </Array>
          </mxGeometry>
        </mxCell>
        <mxCell id="sd7b3OY1YA0wXbEaFrEt-1" value="" style="endArrow=none;html=1;rounded=0;strokeColor=default;shape=link;entryX=0.5;entryY=1;entryDx=0;entryDy=0;exitX=0.5;exitY=0;exitDx=0;exitDy=0;" parent="1" source="sd7b3OY1YA0wXbEaFrEt-13" target="HdaimWETVXJiYSJsJbHd-1" edge="1">
          <mxGeometry width="50" height="50" relative="1" as="geometry">
            <mxPoint x="400" y="180" as="sourcePoint" />
            <mxPoint x="420" y="180" as="targetPoint" />
          </mxGeometry>
        </mxCell>
        <mxCell id="sd7b3OY1YA0wXbEaFrEt-13" value="O" style="ellipse;whiteSpace=wrap;html=1;aspect=fixed;fontSize=7;" parent="1" vertex="1">
          <mxGeometry x="404" y="140" width="20" height="20" as="geometry" />
        </mxCell>
        <mxCell id="hn2TMabwUeQLsIu3lRlJ-2" value="&lt;font style=&quot;font-size: 12px;&quot;&gt;Standard&lt;/font&gt;" style="whiteSpace=wrap;html=1;align=center;fontSize=7;" parent="1" vertex="1">
          <mxGeometry x="434" y="195" width="70" height="30" as="geometry" />
        </mxCell>
        <mxCell id="hn2TMabwUeQLsIu3lRlJ-3" value="&lt;font style=&quot;font-size: 12px;&quot;&gt;Venditore&lt;/font&gt;" style="whiteSpace=wrap;html=1;align=center;fontSize=7;" parent="1" vertex="1">
          <mxGeometry x="324" y="195" width="70" height="30" as="geometry" />
        </mxCell>
        <mxCell id="gn8nNz0km6SOmlEhIG3n-1" value="" style="endArrow=none;html=1;rounded=0;strokeColor=default;exitX=0.5;exitY=0;exitDx=0;exitDy=0;entryX=0;entryY=0.5;entryDx=0;entryDy=0;" parent="1" source="hn2TMabwUeQLsIu3lRlJ-3" target="sd7b3OY1YA0wXbEaFrEt-13" edge="1">
          <mxGeometry width="50" height="50" relative="1" as="geometry">
            <mxPoint x="424" y="150" as="sourcePoint" />
            <mxPoint x="400" y="150" as="targetPoint" />
            <Array as="points">
              <mxPoint x="359" y="180" />
              <mxPoint x="390" y="180" />
              <mxPoint x="390" y="150" />
            </Array>
          </mxGeometry>
        </mxCell>
        <mxCell id="gn8nNz0km6SOmlEhIG3n-2" value="" style="endArrow=none;html=1;rounded=0;strokeColor=default;entryX=1;entryY=0.5;entryDx=0;entryDy=0;exitX=0.5;exitY=0;exitDx=0;exitDy=0;" parent="1" source="hn2TMabwUeQLsIu3lRlJ-2" target="sd7b3OY1YA0wXbEaFrEt-13" edge="1">
          <mxGeometry width="50" height="50" relative="1" as="geometry">
            <mxPoint x="440" y="150" as="sourcePoint" />
            <mxPoint x="424" y="130" as="targetPoint" />
            <Array as="points">
              <mxPoint x="469" y="180" />
              <mxPoint x="440" y="180" />
              <mxPoint x="440" y="150" />
            </Array>
          </mxGeometry>
        </mxCell>
        <mxCell id="EbNqpU3TBHtauOhUm3Qw-3" value="" style="endArrow=none;html=1;rounded=0;strokeColor=default;fontSize=7;entryX=0;entryY=0.5;entryDx=0;entryDy=0;exitX=1;exitY=0.5;exitDx=0;exitDy=0;" parent="1" source="EbNqpU3TBHtauOhUm3Qw-4" target="hn2TMabwUeQLsIu3lRlJ-3" edge="1">
          <mxGeometry width="50" height="50" relative="1" as="geometry">
            <mxPoint x="310" y="210" as="sourcePoint" />
            <mxPoint x="300" y="210" as="targetPoint" />
          </mxGeometry>
        </mxCell>
        <mxCell id="EbNqpU3TBHtauOhUm3Qw-4" value="&lt;font style=&quot;font-size: 12px;&quot;&gt;Gestione&lt;/font&gt;" style="shape=rhombus;perimeter=rhombusPerimeter;whiteSpace=wrap;html=1;align=center;fontSize=7;" parent="1" vertex="1">
          <mxGeometry x="230" y="195" width="70" height="30" as="geometry" />
        </mxCell>
        <mxCell id="Az-7RlyB8vd5cqUIdwo_-1" value="Libreria" style="whiteSpace=wrap;html=1;align=center;fontSize=12;" parent="1" vertex="1">
          <mxGeometry x="146" y="195" width="60" height="30" as="geometry" />
        </mxCell>
        <mxCell id="H6Ye8Oumru0rCjYK21HA-1" value="" style="endArrow=none;html=1;rounded=0;strokeColor=default;fontSize=7;entryX=0;entryY=0.5;entryDx=0;entryDy=0;exitX=1;exitY=0.5;exitDx=0;exitDy=0;" parent="1" edge="1">
          <mxGeometry width="50" height="50" relative="1" as="geometry">
            <mxPoint x="206" y="209.81000000000006" as="sourcePoint" />
            <mxPoint x="230" y="209.81000000000006" as="targetPoint" />
          </mxGeometry>
        </mxCell>
        <mxCell id="2K3XaX1u4HJnNkUsHkBl-1" value="Nome" style="ellipse;whiteSpace=wrap;html=1;align=center;fontSize=12;" parent="1" vertex="1">
          <mxGeometry x="77" y="195" width="60" height="30" as="geometry" />
        </mxCell>
        <mxCell id="2K3XaX1u4HJnNkUsHkBl-2" value="Indirizzo" style="ellipse;whiteSpace=wrap;html=1;align=center;fontSize=12;" parent="1" vertex="1">
          <mxGeometry x="66" y="235" width="70" height="30" as="geometry" />
        </mxCell>
        <mxCell id="2K3XaX1u4HJnNkUsHkBl-3" value="SitoWeb" style="ellipse;whiteSpace=wrap;html=1;align=center;fontSize=12;" parent="1" vertex="1">
          <mxGeometry x="216" y="155" width="70" height="30" as="geometry" />
        </mxCell>
        <mxCell id="2K3XaX1u4HJnNkUsHkBl-4" value="NumeroTelefonico" style="ellipse;whiteSpace=wrap;html=1;align=center;fontSize=12;" parent="1" vertex="1">
          <mxGeometry x="16" y="155" width="120" height="30" as="geometry" />
        </mxCell>
        <mxCell id="2K3XaX1u4HJnNkUsHkBl-6" value="" style="endArrow=none;html=1;rounded=0;strokeColor=default;fontSize=7;exitX=1;exitY=0.5;exitDx=0;exitDy=0;entryX=0;entryY=0.5;entryDx=0;entryDy=0;" parent="1" source="2K3XaX1u4HJnNkUsHkBl-1" target="Az-7RlyB8vd5cqUIdwo_-1" edge="1">
          <mxGeometry width="50" height="50" relative="1" as="geometry">
            <mxPoint x="215.99999999999994" y="219.81000000000006" as="sourcePoint" />
            <mxPoint x="150" y="210" as="targetPoint" />
          </mxGeometry>
        </mxCell>
        <mxCell id="2K3XaX1u4HJnNkUsHkBl-7" value="" style="endArrow=none;html=1;rounded=0;strokeColor=default;fontSize=7;entryX=0;entryY=0;entryDx=0;entryDy=0;exitX=1;exitY=0.5;exitDx=0;exitDy=0;" parent="1" source="2K3XaX1u4HJnNkUsHkBl-4" target="Az-7RlyB8vd5cqUIdwo_-1" edge="1">
          <mxGeometry width="50" height="50" relative="1" as="geometry">
            <mxPoint x="225.99999999999994" y="229.81000000000006" as="sourcePoint" />
            <mxPoint x="250" y="229.81000000000006" as="targetPoint" />
            <Array as="points">
              <mxPoint x="146" y="170" />
            </Array>
          </mxGeometry>
        </mxCell>
        <mxCell id="2K3XaX1u4HJnNkUsHkBl-9" value="" style="endArrow=none;html=1;rounded=0;strokeColor=default;fontSize=7;entryX=1;entryY=0.5;entryDx=0;entryDy=0;exitX=0;exitY=1;exitDx=0;exitDy=0;" parent="1" source="Az-7RlyB8vd5cqUIdwo_-1" target="2K3XaX1u4HJnNkUsHkBl-2" edge="1">
          <mxGeometry width="50" height="50" relative="1" as="geometry">
            <mxPoint x="150" y="230" as="sourcePoint" />
            <mxPoint x="270" y="249.81000000000006" as="targetPoint" />
            <Array as="points">
              <mxPoint x="146" y="250" />
            </Array>
          </mxGeometry>
        </mxCell>
        <mxCell id="2K3XaX1u4HJnNkUsHkBl-10" value="" style="endArrow=none;html=1;rounded=0;strokeColor=default;fontSize=7;entryX=1;entryY=0;entryDx=0;entryDy=0;exitX=0;exitY=0.5;exitDx=0;exitDy=0;" parent="1" source="2K3XaX1u4HJnNkUsHkBl-3" target="Az-7RlyB8vd5cqUIdwo_-1" edge="1">
          <mxGeometry width="50" height="50" relative="1" as="geometry">
            <mxPoint x="255.99999999999994" y="259.81000000000006" as="sourcePoint" />
            <mxPoint x="280" y="259.81000000000006" as="targetPoint" />
            <Array as="points">
              <mxPoint x="206" y="170" />
            </Array>
          </mxGeometry>
        </mxCell>
        <mxCell id="xrC7jzuspNA2uQoA1IGU-1" value="(0,N)" style="text;strokeColor=none;fillColor=none;spacingLeft=4;spacingRight=4;overflow=hidden;rotatable=1;points=[[0,0.5],[1,0.5]];portConstraint=eastwest;fontSize=8;html=0;align=center;movable=1;resizable=1;deletable=1;editable=1;connectable=1;" parent="1" vertex="1">
          <mxGeometry x="290" y="190" width="34" height="20" as="geometry" />
        </mxCell>
        <mxCell id="xrC7jzuspNA2uQoA1IGU-2" value="(1,1)" style="text;strokeColor=none;fillColor=none;spacingLeft=4;spacingRight=4;overflow=hidden;rotatable=0;points=[[0,0.5],[1,0.5]];portConstraint=eastwest;fontSize=8;html=0;align=center;" parent="1" vertex="1">
          <mxGeometry x="206" y="190" width="34" height="20" as="geometry" />
        </mxCell>
        <mxCell id="sgniSts1XBwy0a_fdWV6-1" value="N" style="text;strokeColor=none;fillColor=none;spacingLeft=4;spacingRight=4;overflow=hidden;rotatable=0;points=[[0,0.5],[1,0.5]];portConstraint=eastwest;fontSize=8;html=0;align=center;verticalAlign=middle;" parent="1" vertex="1">
          <mxGeometry x="206" y="210" width="34" height="20" as="geometry" />
        </mxCell>
        <mxCell id="sgniSts1XBwy0a_fdWV6-2" value="1" style="text;strokeColor=none;fillColor=none;spacingLeft=4;spacingRight=4;overflow=hidden;rotatable=1;points=[[0,0.5],[1,0.5]];portConstraint=eastwest;fontSize=8;html=0;align=center;verticalAlign=middle;movable=1;resizable=1;deletable=1;editable=1;connectable=1;" parent="1" vertex="1">
          <mxGeometry x="290" y="210" width="34" height="20" as="geometry" />
        </mxCell>
        <mxCell id="SzRe2KqJmAfl0Bc_GmSK-1" value="Recensione" style="shape=rhombus;perimeter=rhombusPerimeter;whiteSpace=wrap;html=1;align=center;fontSize=12;" parent="1" vertex="1">
          <mxGeometry x="424" y="245" width="90" height="30" as="geometry" />
        </mxCell>
        <mxCell id="5YvhFsePxsdHgwcAsc5f-1" value="&lt;font style=&quot;font-size: 12px;&quot;&gt;Elemento&lt;/font&gt;" style="whiteSpace=wrap;html=1;align=center;fontSize=7;" parent="1" vertex="1">
          <mxGeometry x="434" y="295" width="70" height="30" as="geometry" />
        </mxCell>
        <mxCell id="5YvhFsePxsdHgwcAsc5f-2" value="" style="endArrow=none;html=1;rounded=0;strokeColor=default;fontSize=12;entryX=0.5;entryY=1;entryDx=0;entryDy=0;exitX=0.5;exitY=0;exitDx=0;exitDy=0;" parent="1" source="SzRe2KqJmAfl0Bc_GmSK-1" target="hn2TMabwUeQLsIu3lRlJ-2" edge="1">
          <mxGeometry width="50" height="50" relative="1" as="geometry">
            <mxPoint x="350" y="320" as="sourcePoint" />
            <mxPoint x="400" y="270" as="targetPoint" />
          </mxGeometry>
        </mxCell>
        <mxCell id="5YvhFsePxsdHgwcAsc5f-3" value="" style="endArrow=none;html=1;rounded=0;strokeColor=default;fontSize=12;entryX=0.5;entryY=1;entryDx=0;entryDy=0;exitX=0.5;exitY=0;exitDx=0;exitDy=0;" parent="1" source="5YvhFsePxsdHgwcAsc5f-1" target="SzRe2KqJmAfl0Bc_GmSK-1" edge="1">
          <mxGeometry width="50" height="50" relative="1" as="geometry">
            <mxPoint x="370" y="330" as="sourcePoint" />
            <mxPoint x="420" y="280" as="targetPoint" />
          </mxGeometry>
        </mxCell>
        <mxCell id="5YvhFsePxsdHgwcAsc5f-7" value="N" style="text;strokeColor=none;fillColor=none;spacingLeft=4;spacingRight=4;overflow=hidden;rotatable=0;points=[[0,0.5],[1,0.5]];portConstraint=eastwest;fontSize=8;html=0;align=center;" parent="1" vertex="1">
          <mxGeometry x="444" y="221" width="34" height="20" as="geometry" />
        </mxCell>
        <mxCell id="54P8LQesowBFQvtdOL43-1" value="N" style="text;strokeColor=none;fillColor=none;spacingLeft=4;spacingRight=4;overflow=hidden;rotatable=0;points=[[0,0.5],[1,0.5]];portConstraint=eastwest;fontSize=8;html=0;align=center;" parent="1" vertex="1">
          <mxGeometry x="442" y="276" width="34" height="20" as="geometry" />
        </mxCell>
        <mxCell id="54P8LQesowBFQvtdOL43-2" value="(0,N)" style="text;strokeColor=none;fillColor=none;spacingLeft=4;spacingRight=4;overflow=hidden;rotatable=0;points=[[0,0.5],[1,0.5]];portConstraint=eastwest;fontSize=8;html=0;align=center;" parent="1" vertex="1">
          <mxGeometry x="465" y="221" width="34" height="20" as="geometry" />
        </mxCell>
        <mxCell id="54P8LQesowBFQvtdOL43-3" value="(0,N)" style="text;strokeColor=none;fillColor=none;spacingLeft=4;spacingRight=4;overflow=hidden;rotatable=0;points=[[0,0.5],[1,0.5]];portConstraint=eastwest;fontSize=8;html=0;align=center;" parent="1" vertex="1">
          <mxGeometry x="465" y="275" width="34" height="20" as="geometry" />
        </mxCell>
        <mxCell id="Otf8GlP_a9Bejdk4jKwe-1" value="Testo" style="ellipse;whiteSpace=wrap;html=1;align=center;fontSize=12;" parent="1" vertex="1">
          <mxGeometry x="324" y="245" width="90" height="30" as="geometry" />
        </mxCell>
        <mxCell id="ndZRrQT_VjP3WGZji6yl-1" value="Preferito" style="ellipse;whiteSpace=wrap;html=1;align=center;fontSize=12;" parent="1" vertex="1">
          <mxGeometry x="525" y="227" width="70" height="30" as="geometry" />
        </mxCell>
        <mxCell id="ndZRrQT_VjP3WGZji6yl-2" value="Valutazione" style="ellipse;whiteSpace=wrap;html=1;align=center;fontSize=12;" parent="1" vertex="1">
          <mxGeometry x="525" y="263" width="90" height="30" as="geometry" />
        </mxCell>
        <mxCell id="ndZRrQT_VjP3WGZji6yl-3" value="" style="endArrow=none;html=1;rounded=0;strokeColor=default;fontSize=12;entryX=0;entryY=0.5;entryDx=0;entryDy=0;exitX=0.732;exitY=0.768;exitDx=0;exitDy=0;exitPerimeter=0;" parent="1" source="SzRe2KqJmAfl0Bc_GmSK-1" edge="1">
          <mxGeometry width="50" height="50" relative="1" as="geometry">
            <mxPoint x="490" y="267" as="sourcePoint" />
            <mxPoint x="525.0000000000005" y="278" as="targetPoint" />
            <Array as="points">
              <mxPoint x="490" y="278" />
            </Array>
          </mxGeometry>
        </mxCell>
        <mxCell id="ndZRrQT_VjP3WGZji6yl-4" value="" style="endArrow=none;html=1;rounded=0;strokeColor=default;fontSize=12;exitX=1;exitY=0.5;exitDx=0;exitDy=0;entryX=0;entryY=0.5;entryDx=0;entryDy=0;" parent="1" source="Otf8GlP_a9Bejdk4jKwe-1" target="SzRe2KqJmAfl0Bc_GmSK-1" edge="1">
          <mxGeometry width="50" height="50" relative="1" as="geometry">
            <mxPoint x="560" y="350" as="sourcePoint" />
            <mxPoint x="610" y="300" as="targetPoint" />
          </mxGeometry>
        </mxCell>
        <mxCell id="ndZRrQT_VjP3WGZji6yl-5" value="" style="endArrow=none;html=1;rounded=0;strokeColor=default;fontSize=12;entryX=0;entryY=0.5;entryDx=0;entryDy=0;exitX=0.733;exitY=0.232;exitDx=0;exitDy=0;exitPerimeter=0;" parent="1" source="SzRe2KqJmAfl0Bc_GmSK-1" target="ndZRrQT_VjP3WGZji6yl-1" edge="1">
          <mxGeometry width="50" height="50" relative="1" as="geometry">
            <mxPoint x="484" y="250.5" as="sourcePoint" />
            <mxPoint x="509" y="240" as="targetPoint" />
            <Array as="points">
              <mxPoint x="490" y="242" />
            </Array>
          </mxGeometry>
        </mxCell>
        <mxCell id="E6LFYI10-LTq6OkkNlz2-1" value="DataPubblicazione" style="ellipse;whiteSpace=wrap;html=1;align=center;fontSize=12;" parent="1" vertex="1">
          <mxGeometry x="514" y="295" width="120" height="30" as="geometry" />
        </mxCell>
        <mxCell id="E6LFYI10-LTq6OkkNlz2-2" value="Editore" style="ellipse;whiteSpace=wrap;html=1;align=center;fontSize=12;" parent="1" vertex="1">
          <mxGeometry x="514" y="335" width="60" height="30" as="geometry" />
        </mxCell>
        <mxCell id="8uumJNY-XrK9fU5OaMVn-1" value="Titolo" style="ellipse;whiteSpace=wrap;html=1;align=center;fontSize=12;" parent="1" vertex="1">
          <mxGeometry x="374" y="335" width="50" height="30" as="geometry" />
        </mxCell>
        <mxCell id="j8WSLx1zOFF4duHdxogU-2" value="" style="endArrow=none;html=1;rounded=0;strokeColor=default;fontSize=12;exitX=1;exitY=0.5;exitDx=0;exitDy=0;entryX=0;entryY=1;entryDx=0;entryDy=0;" parent="1" source="8uumJNY-XrK9fU5OaMVn-1" target="5YvhFsePxsdHgwcAsc5f-1" edge="1">
          <mxGeometry width="50" height="50" relative="1" as="geometry">
            <mxPoint x="509" y="270" as="sourcePoint" />
            <mxPoint x="518.9999999999981" y="270" as="targetPoint" />
            <Array as="points">
              <mxPoint x="434" y="350" />
            </Array>
          </mxGeometry>
        </mxCell>
        <mxCell id="j8WSLx1zOFF4duHdxogU-3" value="" style="endArrow=none;html=1;rounded=0;strokeColor=default;fontSize=12;exitX=1;exitY=0.5;exitDx=0;exitDy=0;entryX=0;entryY=0.5;entryDx=0;entryDy=0;" parent="1" source="5YvhFsePxsdHgwcAsc5f-1" target="E6LFYI10-LTq6OkkNlz2-1" edge="1">
          <mxGeometry width="50" height="50" relative="1" as="geometry">
            <mxPoint x="519" y="280" as="sourcePoint" />
            <mxPoint x="528.9999999999981" y="280" as="targetPoint" />
          </mxGeometry>
        </mxCell>
        <mxCell id="j8WSLx1zOFF4duHdxogU-4" value="" style="endArrow=none;html=1;rounded=0;strokeColor=default;fontSize=12;exitX=1;exitY=1;exitDx=0;exitDy=0;entryX=0;entryY=0.5;entryDx=0;entryDy=0;" parent="1" source="5YvhFsePxsdHgwcAsc5f-1" target="E6LFYI10-LTq6OkkNlz2-2" edge="1">
          <mxGeometry width="50" height="50" relative="1" as="geometry">
            <mxPoint x="529" y="290" as="sourcePoint" />
            <mxPoint x="538.9999999999981" y="290" as="targetPoint" />
            <Array as="points">
              <mxPoint x="504" y="350" />
            </Array>
          </mxGeometry>
        </mxCell>
        <mxCell id="0hPTUSVWOCwQkHPBVPLd-1" value="Possesso" style="shape=rhombus;perimeter=rhombusPerimeter;whiteSpace=wrap;html=1;align=center;fontSize=12;" parent="1" vertex="1">
          <mxGeometry x="136" y="295" width="80" height="30" as="geometry" />
        </mxCell>
        <mxCell id="0hPTUSVWOCwQkHPBVPLd-2" value="" style="endArrow=none;html=1;rounded=0;strokeColor=default;fontSize=12;exitX=1;exitY=0.5;exitDx=0;exitDy=0;entryX=0;entryY=0.5;entryDx=0;entryDy=0;" parent="1" source="0hPTUSVWOCwQkHPBVPLd-1" target="5YvhFsePxsdHgwcAsc5f-1" edge="1">
          <mxGeometry width="50" height="50" relative="1" as="geometry">
            <mxPoint x="539" y="300" as="sourcePoint" />
            <mxPoint x="548.9999999999981" y="300" as="targetPoint" />
          </mxGeometry>
        </mxCell>
        <mxCell id="0hPTUSVWOCwQkHPBVPLd-3" value="" style="endArrow=none;html=1;rounded=0;strokeColor=default;fontSize=12;entryX=0.5;entryY=1;entryDx=0;entryDy=0;exitX=0.5;exitY=0;exitDx=0;exitDy=0;" parent="1" source="0hPTUSVWOCwQkHPBVPLd-1" target="Az-7RlyB8vd5cqUIdwo_-1" edge="1">
          <mxGeometry width="50" height="50" relative="1" as="geometry">
            <mxPoint x="130" y="440" as="sourcePoint" />
            <mxPoint x="180" y="390" as="targetPoint" />
          </mxGeometry>
        </mxCell>
        <mxCell id="0hPTUSVWOCwQkHPBVPLd-4" value="N" style="text;strokeColor=none;fillColor=none;spacingLeft=4;spacingRight=4;overflow=hidden;rotatable=0;points=[[0,0.5],[1,0.5]];portConstraint=eastwest;fontSize=8;html=0;align=center;" parent="1" vertex="1">
          <mxGeometry x="148" y="223" width="34" height="20" as="geometry" />
        </mxCell>
        <mxCell id="0hPTUSVWOCwQkHPBVPLd-5" value="N" style="text;strokeColor=none;fillColor=none;spacingLeft=4;spacingRight=4;overflow=hidden;rotatable=0;points=[[0,0.5],[1,0.5]];portConstraint=eastwest;fontSize=8;html=0;align=center;" parent="1" vertex="1">
          <mxGeometry x="400" y="308" width="34" height="20" as="geometry" />
        </mxCell>
        <mxCell id="olAqIgZZ-a8TxkWpqyAC-1" value="(0,N)" style="text;strokeColor=none;fillColor=none;spacingLeft=4;spacingRight=4;overflow=hidden;rotatable=0;points=[[0,0.5],[1,0.5]];portConstraint=eastwest;fontSize=8;html=0;align=center;" parent="1" vertex="1">
          <mxGeometry x="174" y="223" width="34" height="20" as="geometry" />
        </mxCell>
        <mxCell id="olAqIgZZ-a8TxkWpqyAC-2" value="(0,N)" style="text;strokeColor=none;fillColor=none;spacingLeft=4;spacingRight=4;overflow=hidden;rotatable=0;points=[[0,0.5],[1,0.5]];portConstraint=eastwest;fontSize=8;html=0;align=center;" parent="1" vertex="1">
          <mxGeometry x="399" y="289" width="34" height="20" as="geometry" />
        </mxCell>
        <mxCell id="olAqIgZZ-a8TxkWpqyAC-3" value="" style="endArrow=none;html=1;rounded=0;strokeColor=default;shape=link;entryX=0.5;entryY=1;entryDx=0;entryDy=0;exitX=0.5;exitY=0;exitDx=0;exitDy=0;" parent="1" source="olAqIgZZ-a8TxkWpqyAC-4" edge="1">
          <mxGeometry width="50" height="50" relative="1" as="geometry">
            <mxPoint x="400" y="180" as="sourcePoint" />
            <mxPoint x="414" y="120.00000000000006" as="targetPoint" />
          </mxGeometry>
        </mxCell>
        <mxCell id="olAqIgZZ-a8TxkWpqyAC-4" value="O" style="ellipse;whiteSpace=wrap;html=1;aspect=fixed;fontSize=7;" parent="1" vertex="1">
          <mxGeometry x="404" y="140" width="20" height="20" as="geometry" />
        </mxCell>
        <mxCell id="olAqIgZZ-a8TxkWpqyAC-7" value="&lt;font style=&quot;font-size: 12px;&quot;&gt;Venditore&lt;/font&gt;" style="whiteSpace=wrap;html=1;align=center;fontSize=7;" parent="1" vertex="1">
          <mxGeometry x="324" y="195" width="70" height="30" as="geometry" />
        </mxCell>
        <mxCell id="olAqIgZZ-a8TxkWpqyAC-8" value="&lt;font style=&quot;font-size: 12px;&quot;&gt;Libro&lt;/font&gt;" style="whiteSpace=wrap;html=1;align=center;fontSize=7;" parent="1" vertex="1">
          <mxGeometry x="594" y="400" width="116" height="30" as="geometry" />
        </mxCell>
        <mxCell id="olAqIgZZ-a8TxkWpqyAC-9" value="" style="endArrow=none;html=1;rounded=0;strokeColor=default;shape=link;entryX=0.5;entryY=1;entryDx=0;entryDy=0;exitX=0.5;exitY=0;exitDx=0;exitDy=0;" parent="1" source="olAqIgZZ-a8TxkWpqyAC-10" edge="1">
          <mxGeometry width="50" height="50" relative="1" as="geometry">
            <mxPoint x="455" y="385" as="sourcePoint" />
            <mxPoint x="469" y="325.00000000000006" as="targetPoint" />
          </mxGeometry>
        </mxCell>
        <mxCell id="olAqIgZZ-a8TxkWpqyAC-10" value="&lt;font style=&quot;font-size: 9px;&quot;&gt;d&lt;/font&gt;" style="ellipse;whiteSpace=wrap;html=1;aspect=fixed;fontSize=7;" parent="1" vertex="1">
          <mxGeometry x="459" y="345" width="20" height="20" as="geometry" />
        </mxCell>
        <mxCell id="olAqIgZZ-a8TxkWpqyAC-11" value="" style="endArrow=none;html=1;rounded=0;strokeColor=default;exitX=0.5;exitY=0;exitDx=0;exitDy=0;entryX=0;entryY=0.5;entryDx=0;entryDy=0;" parent="1" source="olAqIgZZ-a8TxkWpqyAC-13" target="olAqIgZZ-a8TxkWpqyAC-10" edge="1">
          <mxGeometry width="50" height="50" relative="1" as="geometry">
            <mxPoint x="479" y="355" as="sourcePoint" />
            <mxPoint x="455" y="355" as="targetPoint" />
            <Array as="points">
              <mxPoint x="309" y="385" />
              <mxPoint x="394" y="385" />
              <mxPoint x="445" y="385" />
              <mxPoint x="445" y="355" />
            </Array>
          </mxGeometry>
        </mxCell>
        <mxCell id="olAqIgZZ-a8TxkWpqyAC-12" value="" style="endArrow=none;html=1;rounded=0;strokeColor=default;entryX=1;entryY=0.5;entryDx=0;entryDy=0;exitX=0;exitY=0;exitDx=0;exitDy=0;" parent="1" source="olAqIgZZ-a8TxkWpqyAC-8" target="olAqIgZZ-a8TxkWpqyAC-10" edge="1">
          <mxGeometry width="50" height="50" relative="1" as="geometry">
            <mxPoint x="524" y="400.00000000000006" as="sourcePoint" />
            <mxPoint x="479" y="335" as="targetPoint" />
            <Array as="points">
              <mxPoint x="594" y="385" />
              <mxPoint x="495" y="385" />
              <mxPoint x="495" y="355" />
            </Array>
          </mxGeometry>
        </mxCell>
        <mxCell id="olAqIgZZ-a8TxkWpqyAC-13" value="&lt;font style=&quot;font-size: 12px;&quot;&gt;Fascicolo&lt;/font&gt;" style="shape=ext;margin=3;double=1;whiteSpace=wrap;html=1;align=center;fontSize=12;" parent="1" vertex="1">
          <mxGeometry x="274" y="400" width="70" height="30" as="geometry" />
        </mxCell>
        <mxCell id="Z4qeNHrk9Cf2c34KUtmA-1" value="Serie" style="whiteSpace=wrap;html=1;align=center;verticalAlign=middle;labelPosition=center;verticalLabelPosition=middle;movable=1;resizable=1;rotatable=1;deletable=1;editable=1;connectable=1;" parent="1" vertex="1">
          <mxGeometry x="444" y="400" width="50" height="30" as="geometry" />
        </mxCell>
        <mxCell id="Z4qeNHrk9Cf2c34KUtmA-3" value="" style="endArrow=none;html=1;rounded=0;strokeColor=default;fontSize=12;exitX=0.5;exitY=0;exitDx=0;exitDy=0;entryX=0.5;entryY=1;entryDx=0;entryDy=0;" parent="1" source="Z4qeNHrk9Cf2c34KUtmA-1" target="olAqIgZZ-a8TxkWpqyAC-10" edge="1">
          <mxGeometry width="50" height="50" relative="1" as="geometry">
            <mxPoint x="499" y="375" as="sourcePoint" />
            <mxPoint x="509" y="365" as="targetPoint" />
            <Array as="points" />
          </mxGeometry>
        </mxCell>
        <mxCell id="caEMitrgeyuTZUbxNc8i-6" value="" style="shape=requiredInterface;html=1;verticalLabelPosition=bottom;sketch=0;fontSize=12;rotation=90;" parent="1" vertex="1">
          <mxGeometry x="463.5" y="367.5" width="10" height="15" as="geometry" />
        </mxCell>
        <mxCell id="caEMitrgeyuTZUbxNc8i-13" value="" style="shape=requiredInterface;html=1;verticalLabelPosition=bottom;sketch=0;fontSize=12;rotation=90;" parent="1" vertex="1">
          <mxGeometry x="440" y="357.5" width="10" height="15" as="geometry" />
        </mxCell>
        <mxCell id="caEMitrgeyuTZUbxNc8i-16" value="" style="shape=requiredInterface;html=1;verticalLabelPosition=bottom;sketch=0;fontSize=12;rotation=90;" parent="1" vertex="1">
          <mxGeometry x="490" y="357.5" width="10" height="15" as="geometry" />
        </mxCell>
        <mxCell id="caEMitrgeyuTZUbxNc8i-17" value="" style="shape=requiredInterface;html=1;verticalLabelPosition=bottom;sketch=0;fontSize=12;rotation=90;" parent="1" vertex="1">
          <mxGeometry x="435" y="152" width="10" height="15" as="geometry" />
        </mxCell>
        <mxCell id="caEMitrgeyuTZUbxNc8i-18" value="" style="shape=requiredInterface;html=1;verticalLabelPosition=bottom;sketch=0;fontSize=12;rotation=90;" parent="1" vertex="1">
          <mxGeometry x="385" y="152" width="10" height="15" as="geometry" />
        </mxCell>
        <mxCell id="upwDAVjlql5EPmm24nHU-1" value="Quantità" style="ellipse;whiteSpace=wrap;html=1;align=center;fontSize=12;" parent="1" vertex="1">
          <mxGeometry x="141" y="335" width="70" height="30" as="geometry" />
        </mxCell>
        <mxCell id="upwDAVjlql5EPmm24nHU-2" value="Fruizione" style="ellipse;whiteSpace=wrap;html=1;align=center;fontSize=12;" parent="1" vertex="1">
          <mxGeometry x="56" y="295" width="70" height="30" as="geometry" />
        </mxCell>
        <mxCell id="upwDAVjlql5EPmm24nHU-3" value="" style="endArrow=none;html=1;rounded=0;strokeColor=default;fontSize=12;entryX=0.5;entryY=0;entryDx=0;entryDy=0;exitX=0.5;exitY=1;exitDx=0;exitDy=0;" parent="1" source="0hPTUSVWOCwQkHPBVPLd-1" target="upwDAVjlql5EPmm24nHU-1" edge="1">
          <mxGeometry width="50" height="50" relative="1" as="geometry">
            <mxPoint x="60" y="410" as="sourcePoint" />
            <mxPoint x="110" y="360" as="targetPoint" />
          </mxGeometry>
        </mxCell>
        <mxCell id="upwDAVjlql5EPmm24nHU-4" value="" style="endArrow=none;html=1;rounded=0;strokeColor=default;fontSize=12;entryX=0;entryY=0.5;entryDx=0;entryDy=0;exitX=1;exitY=0.5;exitDx=0;exitDy=0;" parent="1" source="upwDAVjlql5EPmm24nHU-2" target="0hPTUSVWOCwQkHPBVPLd-1" edge="1">
          <mxGeometry width="50" height="50" relative="1" as="geometry">
            <mxPoint x="40" y="410" as="sourcePoint" />
            <mxPoint x="90" y="360" as="targetPoint" />
          </mxGeometry>
        </mxCell>
        <mxCell id="jqZ_NMniuWGZbtA7BJbu-1" value="&lt;font style=&quot;font-size: 9px;&quot;&gt;Inserimento&amp;nbsp;&lt;/font&gt;" style="shape=rhombus;perimeter=rhombusPerimeter;whiteSpace=wrap;html=1;align=center;fontSize=12;" parent="1" vertex="1">
          <mxGeometry x="498" y="449" width="90" height="30" as="geometry" />
        </mxCell>
        <mxCell id="jqZ_NMniuWGZbtA7BJbu-2" value="" style="endArrow=none;html=1;rounded=0;strokeColor=default;fontSize=12;entryX=1;entryY=1;entryDx=0;entryDy=0;exitX=0;exitY=0.5;exitDx=0;exitDy=0;" parent="1" source="jqZ_NMniuWGZbtA7BJbu-1" target="Z4qeNHrk9Cf2c34KUtmA-1" edge="1">
          <mxGeometry width="50" height="50" relative="1" as="geometry">
            <mxPoint x="460" y="580" as="sourcePoint" />
            <mxPoint x="510" y="530" as="targetPoint" />
            <Array as="points">
              <mxPoint x="494" y="464" />
            </Array>
          </mxGeometry>
        </mxCell>
        <mxCell id="jqZ_NMniuWGZbtA7BJbu-3" value="" style="endArrow=none;html=1;rounded=0;strokeColor=default;fontSize=12;exitX=1;exitY=0.5;exitDx=0;exitDy=0;entryX=0;entryY=1;entryDx=0;entryDy=0;" parent="1" source="jqZ_NMniuWGZbtA7BJbu-1" target="olAqIgZZ-a8TxkWpqyAC-8" edge="1">
          <mxGeometry width="50" height="50" relative="1" as="geometry">
            <mxPoint x="580" y="560" as="sourcePoint" />
            <mxPoint x="660" y="470" as="targetPoint" />
            <Array as="points">
              <mxPoint x="594" y="464" />
            </Array>
          </mxGeometry>
        </mxCell>
        <mxCell id="irG8V2c23txPj41wEuPA-1" value="(0,1)" style="text;strokeColor=none;fillColor=none;spacingLeft=4;spacingRight=4;overflow=hidden;rotatable=0;points=[[0,0.5],[1,0.5]];portConstraint=eastwest;fontSize=8;html=0;align=center;" parent="1" vertex="1">
          <mxGeometry x="590" y="430" width="34" height="20" as="geometry" />
        </mxCell>
        <mxCell id="bBoutBpgDQ60qYMOrQc3-1" value="(2,N)" style="text;strokeColor=none;fillColor=none;spacingLeft=4;spacingRight=4;overflow=hidden;rotatable=0;points=[[0,0.5],[1,0.5]];portConstraint=eastwest;fontSize=8;html=0;align=center;" parent="1" vertex="1">
          <mxGeometry x="491" y="431" width="34" height="20" as="geometry" />
        </mxCell>
        <mxCell id="bwD4BLz4-wILY5sTLm6e-1" value="N" style="text;strokeColor=none;fillColor=none;spacingLeft=4;spacingRight=4;overflow=hidden;rotatable=0;points=[[0,0.5],[1,0.5]];portConstraint=eastwest;fontSize=8;html=0;align=center;" parent="1" vertex="1">
          <mxGeometry x="568" y="429" width="34" height="20" as="geometry" />
        </mxCell>
        <mxCell id="bwD4BLz4-wILY5sTLm6e-2" value="N" style="text;strokeColor=none;fillColor=none;spacingLeft=4;spacingRight=4;overflow=hidden;rotatable=0;points=[[0,0.5],[1,0.5]];portConstraint=eastwest;fontSize=8;html=0;align=center;" parent="1" vertex="1">
          <mxGeometry x="284" y="429" width="34" height="20" as="geometry" />
        </mxCell>
        <mxCell id="Gl44X4NOGSfvuatHAWqy-2" value="&lt;font style=&quot;font-size: 12px;&quot;&gt;Ordine&lt;/font&gt;" style="ellipse;whiteSpace=wrap;html=1;align=center;fontSize=10;dashed=1;" parent="1" vertex="1">
          <mxGeometry x="513" y="400" width="60" height="30" as="geometry" />
        </mxCell>
        <mxCell id="Gl44X4NOGSfvuatHAWqy-3" value="" style="endArrow=none;html=1;rounded=0;strokeColor=default;fontSize=10;entryX=0.5;entryY=1;entryDx=0;entryDy=0;exitX=0.5;exitY=0;exitDx=0;exitDy=0;" parent="1" source="jqZ_NMniuWGZbtA7BJbu-1" target="Gl44X4NOGSfvuatHAWqy-2" edge="1">
          <mxGeometry width="50" height="50" relative="1" as="geometry">
            <mxPoint x="490" y="560" as="sourcePoint" />
            <mxPoint x="540" y="510" as="targetPoint" />
          </mxGeometry>
        </mxCell>
        <mxCell id="F7xJcUz3K8iZ5xM27CXO-2" value="Autore" style="ellipse;shape=doubleEllipse;margin=3;whiteSpace=wrap;html=1;align=center;fontSize=12;" parent="1" vertex="1">
          <mxGeometry x="740" y="281" width="60" height="30" as="geometry" />
        </mxCell>
        <mxCell id="F7xJcUz3K8iZ5xM27CXO-3" value="" style="endArrow=none;html=1;rounded=0;strokeColor=default;fontSize=12;exitX=1;exitY=0;exitDx=0;exitDy=0;entryX=0;entryY=0.5;entryDx=0;entryDy=0;" parent="1" source="olAqIgZZ-a8TxkWpqyAC-8" target="F7xJcUz3K8iZ5xM27CXO-2" edge="1">
          <mxGeometry width="50" height="50" relative="1" as="geometry">
            <mxPoint x="710" y="401" as="sourcePoint" />
            <mxPoint x="706" y="371" as="targetPoint" />
            <Array as="points">
              <mxPoint x="730" y="400" />
              <mxPoint x="730" y="296" />
            </Array>
          </mxGeometry>
        </mxCell>
        <mxCell id="F7xJcUz3K8iZ5xM27CXO-4" value="Nome" style="ellipse;whiteSpace=wrap;html=1;align=center;fontSize=12;" parent="1" vertex="1">
          <mxGeometry x="740" y="321" width="60" height="30" as="geometry" />
        </mxCell>
        <mxCell id="F7xJcUz3K8iZ5xM27CXO-5" value="DataNascita" style="ellipse;whiteSpace=wrap;html=1;align=center;fontSize=12;" parent="1" vertex="1">
          <mxGeometry x="725" y="240" width="90" height="30" as="geometry" />
        </mxCell>
        <mxCell id="F7xJcUz3K8iZ5xM27CXO-6" value="Nazionalità" style="ellipse;whiteSpace=wrap;html=1;align=center;fontSize=12;" parent="1" vertex="1">
          <mxGeometry x="826" y="321" width="80" height="30" as="geometry" />
        </mxCell>
        <mxCell id="F7xJcUz3K8iZ5xM27CXO-7" value="Cognome" style="ellipse;whiteSpace=wrap;html=1;align=center;fontSize=12;" parent="1" vertex="1">
          <mxGeometry x="826" y="240" width="80" height="30" as="geometry" />
        </mxCell>
        <mxCell id="F7xJcUz3K8iZ5xM27CXO-8" value="" style="endArrow=none;html=1;rounded=0;strokeColor=default;fontSize=12;exitX=0.5;exitY=1;exitDx=0;exitDy=0;entryX=0.5;entryY=0;entryDx=0;entryDy=0;" parent="1" source="F7xJcUz3K8iZ5xM27CXO-2" target="F7xJcUz3K8iZ5xM27CXO-4" edge="1">
          <mxGeometry width="50" height="50" relative="1" as="geometry">
            <mxPoint x="826" y="381" as="sourcePoint" />
            <mxPoint x="876" y="331" as="targetPoint" />
          </mxGeometry>
        </mxCell>
        <mxCell id="F7xJcUz3K8iZ5xM27CXO-9" value="" style="endArrow=none;html=1;rounded=0;strokeColor=default;fontSize=12;entryX=0.5;entryY=1;entryDx=0;entryDy=0;exitX=0.5;exitY=0;exitDx=0;exitDy=0;" parent="1" source="F7xJcUz3K8iZ5xM27CXO-2" edge="1">
          <mxGeometry width="50" height="50" relative="1" as="geometry">
            <mxPoint x="816" y="381" as="sourcePoint" />
            <mxPoint x="770" y="270" as="targetPoint" />
          </mxGeometry>
        </mxCell>
        <mxCell id="LXJJN7CqZI6RPKZMQ3xg-3" value="" style="endArrow=none;html=1;rounded=0;strokeColor=default;fontSize=9;entryX=1;entryY=1;entryDx=0;entryDy=0;exitX=0.5;exitY=0;exitDx=0;exitDy=0;" parent="1" target="F7xJcUz3K8iZ5xM27CXO-2" edge="1">
          <mxGeometry width="50" height="50" relative="1" as="geometry">
            <mxPoint x="866" y="321" as="sourcePoint" />
            <mxPoint x="836" y="361" as="targetPoint" />
            <Array as="points">
              <mxPoint x="866" y="307" />
            </Array>
          </mxGeometry>
        </mxCell>
        <mxCell id="LXJJN7CqZI6RPKZMQ3xg-4" value="" style="endArrow=none;html=1;rounded=0;strokeColor=default;fontSize=9;exitX=1;exitY=0;exitDx=0;exitDy=0;entryX=0.5;entryY=1;entryDx=0;entryDy=0;" parent="1" source="F7xJcUz3K8iZ5xM27CXO-2" edge="1">
          <mxGeometry width="50" height="50" relative="1" as="geometry">
            <mxPoint x="806" y="321" as="sourcePoint" />
            <mxPoint x="866" y="270" as="targetPoint" />
            <Array as="points">
              <mxPoint x="866" y="285" />
            </Array>
          </mxGeometry>
        </mxCell>
        <mxCell id="LXJJN7CqZI6RPKZMQ3xg-5" value="" style="endArrow=none;html=1;rounded=0;strokeColor=default;fontSize=9;exitX=1;exitY=0.5;exitDx=0;exitDy=0;entryX=0;entryY=0.5;entryDx=0;entryDy=0;" parent="1" target="2sERF7Jfy0MWY1OHa2SB-1" edge="1">
          <mxGeometry width="50" height="50" relative="1" as="geometry">
            <mxPoint x="710" y="416" as="sourcePoint" />
            <mxPoint x="736" y="421" as="targetPoint" />
          </mxGeometry>
        </mxCell>
        <mxCell id="2sERF7Jfy0MWY1OHa2SB-1" value="&lt;font style=&quot;font-size: 9px;&quot;&gt;Appartenenza&lt;/font&gt;" style="shape=rhombus;perimeter=rhombusPerimeter;whiteSpace=wrap;html=1;align=center;fontSize=12;" parent="1" vertex="1">
          <mxGeometry x="730" y="401" width="90" height="30" as="geometry" />
        </mxCell>
        <mxCell id="2sERF7Jfy0MWY1OHa2SB-2" value="" style="endArrow=none;html=1;rounded=0;strokeColor=default;fontSize=9;exitX=1;exitY=0.5;exitDx=0;exitDy=0;entryX=0;entryY=0.5;entryDx=0;entryDy=0;" parent="1" source="2sERF7Jfy0MWY1OHa2SB-1" target="2sERF7Jfy0MWY1OHa2SB-3" edge="1">
          <mxGeometry width="50" height="50" relative="1" as="geometry">
            <mxPoint x="820" y="415.86" as="sourcePoint" />
            <mxPoint x="840" y="415.86" as="targetPoint" />
          </mxGeometry>
        </mxCell>
        <mxCell id="2sERF7Jfy0MWY1OHa2SB-3" value="&lt;font style=&quot;font-size: 12px;&quot;&gt;Collana&lt;/font&gt;" style="whiteSpace=wrap;html=1;align=center;verticalAlign=middle;labelPosition=center;verticalLabelPosition=middle;movable=1;resizable=1;rotatable=1;deletable=1;editable=1;connectable=1;" parent="1" vertex="1">
          <mxGeometry x="840" y="401" width="60" height="30" as="geometry" />
        </mxCell>
        <mxCell id="KpbejA5FAwgD-41qM3o--1" value="N" style="text;strokeColor=none;fillColor=none;spacingLeft=4;spacingRight=4;overflow=hidden;rotatable=0;points=[[0,0.5],[1,0.5]];portConstraint=eastwest;fontSize=8;html=0;align=center;" parent="1" vertex="1">
          <mxGeometry x="710" y="416" width="34" height="20" as="geometry" />
        </mxCell>
        <mxCell id="KpbejA5FAwgD-41qM3o--2" value="N" style="text;strokeColor=none;fillColor=none;spacingLeft=4;spacingRight=4;overflow=hidden;rotatable=0;points=[[0,0.5],[1,0.5]];portConstraint=eastwest;fontSize=8;html=0;align=center;" parent="1" vertex="1">
          <mxGeometry x="806" y="416" width="34" height="20" as="geometry" />
        </mxCell>
        <mxCell id="yMKGeHqmnBcuzpHPGu9I-1" value="(0,N)" style="text;strokeColor=none;fillColor=none;spacingLeft=4;spacingRight=4;overflow=hidden;rotatable=0;points=[[0,0.5],[1,0.5]];portConstraint=eastwest;fontSize=8;html=0;align=center;" parent="1" vertex="1">
          <mxGeometry x="710" y="396" width="34" height="20" as="geometry" />
        </mxCell>
        <mxCell id="yMKGeHqmnBcuzpHPGu9I-2" value="(2,N)" style="text;strokeColor=none;fillColor=none;spacingLeft=4;spacingRight=4;overflow=hidden;rotatable=0;points=[[0,0.5],[1,0.5]];portConstraint=eastwest;fontSize=8;html=0;align=center;" parent="1" vertex="1">
          <mxGeometry x="806" y="396" width="34" height="20" as="geometry" />
        </mxCell>
        <mxCell id="yMKGeHqmnBcuzpHPGu9I-3" value="Caratteristica" style="ellipse;whiteSpace=wrap;html=1;align=center;fontSize=12;" parent="1" vertex="1">
          <mxGeometry x="825" y="360" width="90" height="30" as="geometry" />
        </mxCell>
        <mxCell id="wafcrK38O_LB0QIB7gl6-1" value="ISSN" style="ellipse;whiteSpace=wrap;html=1;align=center;fontSize=12;" parent="1" vertex="1">
          <mxGeometry x="845" y="441" width="50" height="30" as="geometry" />
        </mxCell>
        <mxCell id="wafcrK38O_LB0QIB7gl6-2" value="Nome" style="ellipse;whiteSpace=wrap;html=1;align=center;fontSize=12;" parent="1" vertex="1">
          <mxGeometry x="910" y="401" width="60" height="30" as="geometry" />
        </mxCell>
        <mxCell id="wafcrK38O_LB0QIB7gl6-3" value="" style="endArrow=none;html=1;rounded=0;strokeColor=default;fontSize=12;exitX=1;exitY=0.5;exitDx=0;exitDy=0;entryX=0;entryY=0.5;entryDx=0;entryDy=0;" parent="1" source="2sERF7Jfy0MWY1OHa2SB-3" target="wafcrK38O_LB0QIB7gl6-2" edge="1">
          <mxGeometry width="50" height="50" relative="1" as="geometry">
            <mxPoint x="916" y="541" as="sourcePoint" />
            <mxPoint x="966" y="491" as="targetPoint" />
          </mxGeometry>
        </mxCell>
        <mxCell id="wafcrK38O_LB0QIB7gl6-4" value="" style="endArrow=none;html=1;rounded=0;strokeColor=default;fontSize=12;entryX=0.5;entryY=1;entryDx=0;entryDy=0;exitX=0.5;exitY=0;exitDx=0;exitDy=0;" parent="1" source="2sERF7Jfy0MWY1OHa2SB-3" target="yMKGeHqmnBcuzpHPGu9I-3" edge="1">
          <mxGeometry width="50" height="50" relative="1" as="geometry">
            <mxPoint x="906" y="541" as="sourcePoint" />
            <mxPoint x="956" y="491" as="targetPoint" />
          </mxGeometry>
        </mxCell>
        <mxCell id="wafcrK38O_LB0QIB7gl6-5" value="" style="endArrow=none;html=1;rounded=0;strokeColor=default;fontSize=12;entryX=0.5;entryY=1;entryDx=0;entryDy=0;exitX=0.5;exitY=0;exitDx=0;exitDy=0;" parent="1" source="wafcrK38O_LB0QIB7gl6-1" target="2sERF7Jfy0MWY1OHa2SB-3" edge="1">
          <mxGeometry width="50" height="50" relative="1" as="geometry">
            <mxPoint x="936" y="561" as="sourcePoint" />
            <mxPoint x="986" y="511" as="targetPoint" />
          </mxGeometry>
        </mxCell>
        <mxCell id="0tVdAsYotfLs0KIy0hq_-1" value="" style="endArrow=none;html=1;rounded=0;strokeColor=default;fontSize=12;entryX=0.5;entryY=1;entryDx=0;entryDy=0;exitX=0.5;exitY=0;exitDx=0;exitDy=0;" parent="1" source="gxy6Bu4hQ7OO9fc_8tAW-1" target="olAqIgZZ-a8TxkWpqyAC-8" edge="1">
          <mxGeometry width="50" height="50" relative="1" as="geometry">
            <mxPoint x="647" y="460" as="sourcePoint" />
            <mxPoint x="680" y="440" as="targetPoint" />
          </mxGeometry>
        </mxCell>
        <mxCell id="0tVdAsYotfLs0KIy0hq_-2" value="" style="endArrow=none;html=1;rounded=0;strokeColor=default;fontSize=12;entryX=0.5;entryY=1;entryDx=0;entryDy=0;exitX=0.25;exitY=0;exitDx=0;exitDy=0;" parent="1" source="olAqIgZZ-a8TxkWpqyAC-8" target="sxnQSJO8EZBr4UTkt91E-1" edge="1">
          <mxGeometry width="50" height="50" relative="1" as="geometry">
            <mxPoint x="640" y="390" as="sourcePoint" />
            <mxPoint x="664" y="370" as="targetPoint" />
            <Array as="points">
              <mxPoint x="623" y="390" />
              <mxPoint x="610" y="390" />
            </Array>
          </mxGeometry>
        </mxCell>
        <mxCell id="sxnQSJO8EZBr4UTkt91E-1" value="Genere" style="ellipse;whiteSpace=wrap;html=1;align=center;fontSize=12;" parent="1" vertex="1">
          <mxGeometry x="580" y="345" width="60" height="30" as="geometry" />
        </mxCell>
        <mxCell id="sxnQSJO8EZBr4UTkt91E-2" value="" style="endArrow=none;html=1;rounded=0;strokeColor=default;fontSize=12;entryX=0;entryY=0.5;entryDx=0;entryDy=0;" parent="1" target="sxnQSJO8EZBr4UTkt91E-3" edge="1">
          <mxGeometry width="50" height="50" relative="1" as="geometry">
            <mxPoint x="710" y="430" as="sourcePoint" />
            <mxPoint x="700" y="460" as="targetPoint" />
            <Array as="points">
              <mxPoint x="710" y="455" />
            </Array>
          </mxGeometry>
        </mxCell>
        <mxCell id="sxnQSJO8EZBr4UTkt91E-3" value="ISBN" style="ellipse;whiteSpace=wrap;html=1;align=center;fontSize=12;" parent="1" vertex="1">
          <mxGeometry x="720" y="440" width="50" height="30" as="geometry" />
        </mxCell>
        <mxCell id="gxy6Bu4hQ7OO9fc_8tAW-1" value="&lt;font style=&quot;font-size: 9px;&quot;&gt;Partecipazione&lt;/font&gt;" style="shape=rhombus;double=1;perimeter=rhombusPerimeter;whiteSpace=wrap;html=1;align=center;fontSize=12;" parent="1" vertex="1">
          <mxGeometry x="607" y="460" width="90" height="30" as="geometry" />
        </mxCell>
        <mxCell id="gxy6Bu4hQ7OO9fc_8tAW-3" value="Lingua" style="ellipse;whiteSpace=wrap;html=1;align=center;fontSize=12;" parent="1" vertex="1">
          <mxGeometry x="664" y="345" width="60" height="30" as="geometry" />
        </mxCell>
        <mxCell id="gxy6Bu4hQ7OO9fc_8tAW-5" value="" style="endArrow=none;html=1;rounded=0;strokeColor=default;fontSize=12;exitX=0.75;exitY=0;exitDx=0;exitDy=0;entryX=0.5;entryY=1;entryDx=0;entryDy=0;" parent="1" source="olAqIgZZ-a8TxkWpqyAC-8" target="gxy6Bu4hQ7OO9fc_8tAW-3" edge="1">
          <mxGeometry width="50" height="50" relative="1" as="geometry">
            <mxPoint x="650" y="385" as="sourcePoint" />
            <mxPoint x="681" y="380" as="targetPoint" />
            <Array as="points">
              <mxPoint x="681" y="390" />
              <mxPoint x="694" y="390" />
            </Array>
          </mxGeometry>
        </mxCell>
        <mxCell id="r04S23seflIl8E-D0AK2-2" value="ISBN" style="ellipse;whiteSpace=wrap;html=1;align=center;fontSize=12;" parent="1" vertex="1">
          <mxGeometry x="384" y="400" width="50" height="30" as="geometry" />
        </mxCell>
        <mxCell id="r04S23seflIl8E-D0AK2-3" value="" style="endArrow=none;html=1;rounded=0;strokeColor=default;fontSize=12;entryX=0;entryY=0.5;entryDx=0;entryDy=0;exitX=1;exitY=0.5;exitDx=0;exitDy=0;" parent="1" source="r04S23seflIl8E-D0AK2-2" target="Z4qeNHrk9Cf2c34KUtmA-1" edge="1">
          <mxGeometry width="50" height="50" relative="1" as="geometry">
            <mxPoint x="420" y="550" as="sourcePoint" />
            <mxPoint x="470" y="500" as="targetPoint" />
          </mxGeometry>
        </mxCell>
        <mxCell id="XiKJ4cXUtBIe_g049IQ3-1" value="Presentazione" style="shape=ext;margin=3;double=1;whiteSpace=wrap;html=1;align=center;fontSize=12;" parent="1" vertex="1">
          <mxGeometry x="602" y="520" width="100" height="30" as="geometry" />
        </mxCell>
        <mxCell id="XiKJ4cXUtBIe_g049IQ3-2" value="" style="endArrow=none;html=1;rounded=0;strokeColor=default;fontSize=12;entryX=0.5;entryY=1;entryDx=0;entryDy=0;exitX=0.5;exitY=0;exitDx=0;exitDy=0;" parent="1" source="XiKJ4cXUtBIe_g049IQ3-1" target="gxy6Bu4hQ7OO9fc_8tAW-1" edge="1">
          <mxGeometry x="-1" y="42" width="50" height="50" relative="1" as="geometry">
            <mxPoint x="651.76" y="520" as="sourcePoint" />
            <mxPoint x="651.76" y="490" as="targetPoint" />
            <mxPoint x="30" y="40" as="offset" />
          </mxGeometry>
        </mxCell>
        <mxCell id="Ud2M6x7CWOt7lFwGQPXy-1" value="Luogo" style="ellipse;whiteSpace=wrap;html=1;align=center;fontSize=12;" parent="1" vertex="1">
          <mxGeometry x="712" y="520" width="60" height="30" as="geometry" />
        </mxCell>
        <mxCell id="fHl9BVfkrDw56AufhRTg-1" value="LuogoPresentazione" style="ellipse;whiteSpace=wrap;html=1;align=center;fontSize=12;" parent="1" vertex="1">
          <mxGeometry x="782" y="520" width="130" height="30" as="geometry" />
        </mxCell>
        <mxCell id="8KHFJJxGNzCklvlysfJj-1" value="StrutturaOrganizzatrice" style="ellipse;whiteSpace=wrap;html=1;align=center;fontSize=12;" parent="1" vertex="1">
          <mxGeometry x="667" y="560" width="150" height="30" as="geometry" />
        </mxCell>
        <mxCell id="-QHRt9vqXPOB-mPrh4JU-1" value="" style="endArrow=none;html=1;rounded=0;strokeColor=default;fontSize=12;entryX=1;entryY=0.5;entryDx=0;entryDy=0;exitX=0;exitY=0.5;exitDx=0;exitDy=0;" parent="1" source="fHl9BVfkrDw56AufhRTg-1" target="Ud2M6x7CWOt7lFwGQPXy-1" edge="1">
          <mxGeometry width="50" height="50" relative="1" as="geometry">
            <mxPoint x="750" y="720" as="sourcePoint" />
            <mxPoint x="800" y="670" as="targetPoint" />
          </mxGeometry>
        </mxCell>
        <mxCell id="-QHRt9vqXPOB-mPrh4JU-3" value="" style="endArrow=none;html=1;rounded=0;strokeColor=default;fontSize=12;entryX=0.5;entryY=1;entryDx=0;entryDy=0;exitX=0.5;exitY=0;exitDx=0;exitDy=0;" parent="1" source="8KHFJJxGNzCklvlysfJj-1" target="Ud2M6x7CWOt7lFwGQPXy-1" edge="1">
          <mxGeometry width="50" height="50" relative="1" as="geometry">
            <mxPoint x="710" y="700" as="sourcePoint" />
            <mxPoint x="760" y="650" as="targetPoint" />
          </mxGeometry>
        </mxCell>
        <mxCell id="-QHRt9vqXPOB-mPrh4JU-4" value="" style="endArrow=none;html=1;rounded=0;strokeColor=default;fontSize=12;entryX=0.5;entryY=1;entryDx=0;entryDy=0;exitX=0.5;exitY=0;exitDx=0;exitDy=0;" parent="1" source="fHl9BVfkrDw56AufhRTg-1" target="-QHRt9vqXPOB-mPrh4JU-5" edge="1">
          <mxGeometry width="50" height="50" relative="1" as="geometry">
            <mxPoint x="780" y="740" as="sourcePoint" />
            <mxPoint x="830" y="690" as="targetPoint" />
          </mxGeometry>
        </mxCell>
        <mxCell id="-QHRt9vqXPOB-mPrh4JU-5" value="Nazione" style="ellipse;whiteSpace=wrap;html=1;align=center;fontSize=12;" parent="1" vertex="1">
          <mxGeometry x="812" y="480" width="70" height="30" as="geometry" />
        </mxCell>
        <mxCell id="us-vFI8lwOOpxUnatMtF-1" value="Città" style="ellipse;whiteSpace=wrap;html=1;align=center;fontSize=12;" parent="1" vertex="1">
          <mxGeometry x="822" y="560" width="50" height="30" as="geometry" />
        </mxCell>
        <mxCell id="us-vFI8lwOOpxUnatMtF-2" value="Indirizzo" style="ellipse;whiteSpace=wrap;html=1;align=center;fontSize=12;" parent="1" vertex="1">
          <mxGeometry x="922" y="520" width="70" height="30" as="geometry" />
        </mxCell>
        <mxCell id="us-vFI8lwOOpxUnatMtF-4" value="" style="endArrow=none;html=1;rounded=0;strokeColor=default;fontSize=12;entryX=0;entryY=0.5;entryDx=0;entryDy=0;exitX=1;exitY=0.5;exitDx=0;exitDy=0;" parent="1" source="fHl9BVfkrDw56AufhRTg-1" target="us-vFI8lwOOpxUnatMtF-2" edge="1">
          <mxGeometry width="50" height="50" relative="1" as="geometry">
            <mxPoint x="910" y="700" as="sourcePoint" />
            <mxPoint x="960" y="650" as="targetPoint" />
          </mxGeometry>
        </mxCell>
        <mxCell id="us-vFI8lwOOpxUnatMtF-5" value="" style="endArrow=none;html=1;rounded=0;strokeColor=default;fontSize=12;entryX=0.5;entryY=1;entryDx=0;entryDy=0;exitX=0.5;exitY=0;exitDx=0;exitDy=0;" parent="1" source="us-vFI8lwOOpxUnatMtF-1" target="fHl9BVfkrDw56AufhRTg-1" edge="1">
          <mxGeometry width="50" height="50" relative="1" as="geometry">
            <mxPoint x="830" y="670" as="sourcePoint" />
            <mxPoint x="880" y="620" as="targetPoint" />
          </mxGeometry>
        </mxCell>
        <mxCell id="us-vFI8lwOOpxUnatMtF-6" value="" style="endArrow=none;html=1;rounded=0;strokeColor=default;fontSize=12;entryX=0;entryY=0.5;entryDx=0;entryDy=0;exitX=1;exitY=0.5;exitDx=0;exitDy=0;" parent="1" source="XiKJ4cXUtBIe_g049IQ3-1" target="Ud2M6x7CWOt7lFwGQPXy-1" edge="1">
          <mxGeometry width="50" height="50" relative="1" as="geometry">
            <mxPoint x="670" y="740" as="sourcePoint" />
            <mxPoint x="720" y="690" as="targetPoint" />
          </mxGeometry>
        </mxCell>
        <mxCell id="Aw2qijxGGT3sLLB3yNmN-1" value="DataP" style="ellipse;whiteSpace=wrap;html=1;align=center;fontSize=12;" parent="1" vertex="1">
          <mxGeometry x="532" y="560" width="60" height="30" as="geometry" />
        </mxCell>
        <mxCell id="Aw2qijxGGT3sLLB3yNmN-2" value="Ora" style="ellipse;whiteSpace=wrap;html=1;align=center;fontSize=12;" parent="1" vertex="1">
          <mxGeometry x="552" y="520" width="40" height="30" as="geometry" />
        </mxCell>
        <mxCell id="Aw2qijxGGT3sLLB3yNmN-3" value="" style="endArrow=none;html=1;rounded=0;strokeColor=default;fontSize=12;entryX=1;entryY=0.5;entryDx=0;entryDy=0;exitX=0;exitY=0.5;exitDx=0;exitDy=0;" parent="1" source="XiKJ4cXUtBIe_g049IQ3-1" target="Aw2qijxGGT3sLLB3yNmN-2" edge="1">
          <mxGeometry width="50" height="50" relative="1" as="geometry">
            <mxPoint x="600" y="670" as="sourcePoint" />
            <mxPoint x="650" y="620" as="targetPoint" />
          </mxGeometry>
        </mxCell>
        <mxCell id="Aw2qijxGGT3sLLB3yNmN-4" value="" style="endArrow=none;html=1;rounded=0;strokeColor=default;fontSize=12;entryX=0;entryY=1;entryDx=0;entryDy=0;exitX=1;exitY=0.5;exitDx=0;exitDy=0;" parent="1" source="Aw2qijxGGT3sLLB3yNmN-1" target="XiKJ4cXUtBIe_g049IQ3-1" edge="1">
          <mxGeometry width="50" height="50" relative="1" as="geometry">
            <mxPoint x="580" y="650" as="sourcePoint" />
            <mxPoint x="630" y="600" as="targetPoint" />
            <Array as="points">
              <mxPoint x="602" y="575" />
            </Array>
          </mxGeometry>
        </mxCell>
        <mxCell id="4--oS88EyVfBu8bu0Yi3-1" value="1" style="text;strokeColor=none;fillColor=none;spacingLeft=4;spacingRight=4;overflow=hidden;rotatable=0;points=[[0,0.5],[1,0.5]];portConstraint=eastwest;fontSize=8;html=0;align=center;" parent="1" vertex="1">
          <mxGeometry x="626" y="430" width="34" height="20" as="geometry" />
        </mxCell>
        <mxCell id="4--oS88EyVfBu8bu0Yi3-2" value="(0,N)" style="text;strokeColor=none;fillColor=none;spacingLeft=4;spacingRight=4;overflow=hidden;rotatable=0;points=[[0,0.5],[1,0.5]];portConstraint=eastwest;fontSize=8;html=0;align=center;" parent="1" vertex="1">
          <mxGeometry x="648" y="430" width="34" height="20" as="geometry" />
        </mxCell>
        <mxCell id="4--oS88EyVfBu8bu0Yi3-3" value="N" style="text;strokeColor=none;fillColor=none;spacingLeft=4;spacingRight=4;overflow=hidden;rotatable=0;points=[[0,0.5],[1,0.5]];portConstraint=eastwest;fontSize=8;html=0;align=center;" parent="1" vertex="1">
          <mxGeometry x="627" y="500" width="34" height="20" as="geometry" />
        </mxCell>
        <mxCell id="4--oS88EyVfBu8bu0Yi3-4" value="(1,1)" style="text;strokeColor=none;fillColor=none;spacingLeft=4;spacingRight=4;overflow=hidden;rotatable=0;points=[[0,0.5],[1,0.5]];portConstraint=eastwest;fontSize=8;html=0;align=center;" parent="1" vertex="1">
          <mxGeometry x="647" y="500" width="34" height="20" as="geometry" />
        </mxCell>
        <mxCell id="qSOMb3zGaUHJe-Q08TMw-1" value="&lt;font style=&quot;font-size: 9px;&quot;&gt;Composizione&amp;nbsp;&lt;/font&gt;" style="shape=rhombus;double=1;perimeter=rhombusPerimeter;whiteSpace=wrap;html=1;align=center;fontSize=9;" parent="1" vertex="1">
          <mxGeometry x="264" y="450" width="90" height="30" as="geometry" />
        </mxCell>
        <mxCell id="PK_d6lZ-KuaGknAmtkNM-1" value="" style="endArrow=none;html=1;rounded=0;strokeColor=default;fontSize=9;entryX=0.5;entryY=1;entryDx=0;entryDy=0;exitX=0.5;exitY=0;exitDx=0;exitDy=0;" parent="1" source="qSOMb3zGaUHJe-Q08TMw-1" target="olAqIgZZ-a8TxkWpqyAC-13" edge="1">
          <mxGeometry width="50" height="50" relative="1" as="geometry">
            <mxPoint x="210" y="520" as="sourcePoint" />
            <mxPoint x="260" y="470" as="targetPoint" />
          </mxGeometry>
        </mxCell>
        <mxCell id="G7A9mwQrfVK9nI6FNIyX-2" value="Editore" style="ellipse;whiteSpace=wrap;html=1;align=center;dashed=1;" parent="1" vertex="1">
          <mxGeometry x="209" y="521" width="60" height="30" as="geometry" />
        </mxCell>
        <mxCell id="G7A9mwQrfVK9nI6FNIyX-15" value="" style="endArrow=none;html=1;rounded=0;exitX=1;exitY=0.5;exitDx=0;exitDy=0;entryX=0;entryY=0.5;entryDx=0;entryDy=0;" parent="1" source="G7A9mwQrfVK9nI6FNIyX-2" target="G7A9mwQrfVK9nI6FNIyX-4" edge="1">
          <mxGeometry width="50" height="50" relative="1" as="geometry">
            <mxPoint x="260" y="551" as="sourcePoint" />
            <mxPoint x="310" y="501" as="targetPoint" />
          </mxGeometry>
        </mxCell>
        <mxCell id="QXIZuO6MEdbhUBKun4t7-1" value="" style="endArrow=none;html=1;rounded=0;strokeColor=default;fontSize=9;entryX=0.5;entryY=1;entryDx=0;entryDy=0;exitX=0.5;exitY=0;exitDx=0;exitDy=0;" parent="1" source="G7A9mwQrfVK9nI6FNIyX-4" target="qSOMb3zGaUHJe-Q08TMw-1" edge="1">
          <mxGeometry width="50" height="50" relative="1" as="geometry">
            <mxPoint x="310" y="497.6" as="sourcePoint" />
            <mxPoint x="319" y="580" as="targetPoint" />
          </mxGeometry>
        </mxCell>
        <mxCell id="G7A9mwQrfVK9nI6FNIyX-4" value="Rivista" style="whiteSpace=wrap;html=1;align=center;verticalAlign=middle;labelPosition=center;verticalLabelPosition=middle;movable=1;resizable=1;rotatable=1;deletable=1;editable=1;connectable=1;" parent="1" vertex="1">
          <mxGeometry x="279" y="521" width="60" height="30" as="geometry" />
        </mxCell>
        <mxCell id="G7A9mwQrfVK9nI6FNIyX-5" value="Argomento" style="ellipse;whiteSpace=wrap;html=1;align=center;" parent="1" vertex="1">
          <mxGeometry x="349" y="481" width="80" height="30" as="geometry" />
        </mxCell>
        <mxCell id="G7A9mwQrfVK9nI6FNIyX-6" value="Responsabile&amp;nbsp;" style="ellipse;whiteSpace=wrap;html=1;align=center;" parent="1" vertex="1">
          <mxGeometry x="169" y="480" width="100" height="30" as="geometry" />
        </mxCell>
        <mxCell id="G7A9mwQrfVK9nI6FNIyX-7" value="ISSN" style="ellipse;whiteSpace=wrap;html=1;align=center;" parent="1" vertex="1">
          <mxGeometry x="349" y="521" width="50" height="30" as="geometry" />
        </mxCell>
        <mxCell id="G7A9mwQrfVK9nI6FNIyX-10" value="" style="endArrow=none;html=1;rounded=0;entryX=0;entryY=0.5;entryDx=0;entryDy=0;exitX=1;exitY=0;exitDx=0;exitDy=0;" parent="1" target="G7A9mwQrfVK9nI6FNIyX-5" edge="1">
          <mxGeometry width="50" height="50" relative="1" as="geometry">
            <mxPoint x="339" y="521" as="sourcePoint" />
            <mxPoint x="335" y="471" as="targetPoint" />
            <Array as="points">
              <mxPoint x="339" y="496" />
            </Array>
          </mxGeometry>
        </mxCell>
        <mxCell id="G7A9mwQrfVK9nI6FNIyX-11" value="" style="endArrow=none;html=1;rounded=0;exitX=1;exitY=0.5;exitDx=0;exitDy=0;entryX=0;entryY=0.5;entryDx=0;entryDy=0;" parent="1" target="G7A9mwQrfVK9nI6FNIyX-7" edge="1">
          <mxGeometry width="50" height="50" relative="1" as="geometry">
            <mxPoint x="339" y="536" as="sourcePoint" />
            <mxPoint x="385" y="521" as="targetPoint" />
          </mxGeometry>
        </mxCell>
        <mxCell id="G7A9mwQrfVK9nI6FNIyX-12" value="" style="endArrow=none;html=1;rounded=0;exitX=1;exitY=1;exitDx=0;exitDy=0;entryX=0;entryY=0.5;entryDx=0;entryDy=0;" parent="1" target="G7A9mwQrfVK9nI6FNIyX-14" edge="1">
          <mxGeometry width="50" height="50" relative="1" as="geometry">
            <mxPoint x="339" y="551" as="sourcePoint" />
            <mxPoint x="348" y="576" as="targetPoint" />
            <Array as="points">
              <mxPoint x="339" y="576" />
            </Array>
          </mxGeometry>
        </mxCell>
        <mxCell id="G7A9mwQrfVK9nI6FNIyX-14" value="Titolo" style="ellipse;whiteSpace=wrap;html=1;align=center;" parent="1" vertex="1">
          <mxGeometry x="349" y="561" width="50" height="30" as="geometry" />
        </mxCell>
        <mxCell id="G7A9mwQrfVK9nI6FNIyX-13" value="AnnoPubblicazione" style="ellipse;whiteSpace=wrap;html=1;align=center;" parent="1" vertex="1">
          <mxGeometry x="139" y="560" width="130" height="30" as="geometry" />
        </mxCell>
        <mxCell id="QXIZuO6MEdbhUBKun4t7-3" value="" style="endArrow=none;html=1;rounded=0;strokeColor=default;fontSize=9;entryX=1;entryY=0.5;entryDx=0;entryDy=0;exitX=0;exitY=0;exitDx=0;exitDy=0;" parent="1" source="G7A9mwQrfVK9nI6FNIyX-4" target="G7A9mwQrfVK9nI6FNIyX-6" edge="1">
          <mxGeometry width="50" height="50" relative="1" as="geometry">
            <mxPoint x="290" y="630" as="sourcePoint" />
            <mxPoint x="340" y="580" as="targetPoint" />
            <Array as="points">
              <mxPoint x="279" y="495" />
            </Array>
          </mxGeometry>
        </mxCell>
        <mxCell id="QXIZuO6MEdbhUBKun4t7-4" value="" style="endArrow=none;html=1;rounded=0;strokeColor=default;fontSize=9;entryX=0;entryY=1;entryDx=0;entryDy=0;exitX=1;exitY=0.5;exitDx=0;exitDy=0;" parent="1" source="G7A9mwQrfVK9nI6FNIyX-13" target="G7A9mwQrfVK9nI6FNIyX-4" edge="1">
          <mxGeometry width="50" height="50" relative="1" as="geometry">
            <mxPoint x="290" y="630" as="sourcePoint" />
            <mxPoint x="340" y="580" as="targetPoint" />
            <Array as="points">
              <mxPoint x="279" y="575" />
            </Array>
          </mxGeometry>
        </mxCell>
        <mxCell id="9mtZWsmdUzAUzZBpEyWu-1" value="" style="endArrow=none;html=1;rounded=0;strokeColor=default;fontSize=9;entryX=0.5;entryY=1;entryDx=0;entryDy=0;exitX=0.5;exitY=0;exitDx=0;exitDy=0;" parent="1" source="G7A9mwQrfVK9nI6FNIyX-6" target="9mtZWsmdUzAUzZBpEyWu-2" edge="1">
          <mxGeometry width="50" height="50" relative="1" as="geometry">
            <mxPoint x="125" y="561" as="sourcePoint" />
            <mxPoint x="175" y="511" as="targetPoint" />
          </mxGeometry>
        </mxCell>
        <mxCell id="9mtZWsmdUzAUzZBpEyWu-2" value="Nome" style="ellipse;whiteSpace=wrap;html=1;align=center;fontSize=9;" parent="1" vertex="1">
          <mxGeometry x="194" y="449" width="50" height="20" as="geometry" />
        </mxCell>
        <mxCell id="hw4Ca36a7LDvZjlkdEwl-1" value="Cognome" style="ellipse;whiteSpace=wrap;html=1;align=center;fontSize=9;" parent="1" vertex="1">
          <mxGeometry x="99" y="485" width="60" height="20" as="geometry" />
        </mxCell>
        <mxCell id="hw4Ca36a7LDvZjlkdEwl-2" value="" style="endArrow=none;html=1;rounded=0;strokeColor=default;fontSize=9;entryX=0;entryY=0.5;entryDx=0;entryDy=0;exitX=1;exitY=0.5;exitDx=0;exitDy=0;" parent="1" source="hw4Ca36a7LDvZjlkdEwl-1" target="G7A9mwQrfVK9nI6FNIyX-6" edge="1">
          <mxGeometry width="50" height="50" relative="1" as="geometry">
            <mxPoint x="30" y="570" as="sourcePoint" />
            <mxPoint x="80" y="520" as="targetPoint" />
          </mxGeometry>
        </mxCell>
        <mxCell id="LhsO9VeFlBU612LK6tFt-1" value="1" style="text;strokeColor=none;fillColor=none;spacingLeft=4;spacingRight=4;overflow=hidden;rotatable=0;points=[[0,0.5],[1,0.5]];portConstraint=eastwest;fontSize=8;html=0;align=center;" parent="1" vertex="1">
          <mxGeometry x="470" y="430" width="34" height="20" as="geometry" />
        </mxCell>
        <mxCell id="LhsO9VeFlBU612LK6tFt-2" value="(1,N)" style="text;strokeColor=none;fillColor=none;spacingLeft=4;spacingRight=4;overflow=hidden;rotatable=0;points=[[0,0.5],[1,0.5]];portConstraint=eastwest;fontSize=8;html=0;align=center;" parent="1" vertex="1">
          <mxGeometry x="305" y="501" width="34" height="20" as="geometry" />
        </mxCell>
        <mxCell id="LhsO9VeFlBU612LK6tFt-3" value="N" style="text;strokeColor=none;fillColor=none;spacingLeft=4;spacingRight=4;overflow=hidden;rotatable=0;points=[[0,0.5],[1,0.5]];portConstraint=eastwest;fontSize=8;html=0;align=center;" parent="1" vertex="1">
          <mxGeometry x="138" y="413" width="34" height="20" as="geometry" />
        </mxCell>
        <mxCell id="Y80Iv2Rc_xQEDPFjPs5X-1" value="(1,1)" style="text;strokeColor=none;fillColor=none;spacingLeft=4;spacingRight=4;overflow=hidden;rotatable=0;points=[[0,0.5],[1,0.5]];portConstraint=eastwest;fontSize=8;html=0;align=center;" parent="1" vertex="1">
          <mxGeometry x="305" y="429" width="34" height="20" as="geometry" />
        </mxCell>
        <mxCell id="lvr9O3ms66YcBcKYj9eZ-1" value="Numero" style="ellipse;whiteSpace=wrap;html=1;align=center;fontSize=9;" parent="1" vertex="1">
          <mxGeometry x="204" y="370" width="60" height="20" as="geometry" />
        </mxCell>
        <mxCell id="lvr9O3ms66YcBcKYj9eZ-2" value="" style="endArrow=none;html=1;rounded=0;strokeColor=default;fontSize=9;entryX=0;entryY=0;entryDx=0;entryDy=0;exitX=1;exitY=0.5;exitDx=0;exitDy=0;" parent="1" source="lvr9O3ms66YcBcKYj9eZ-1" target="olAqIgZZ-a8TxkWpqyAC-13" edge="1">
          <mxGeometry width="50" height="50" relative="1" as="geometry">
            <mxPoint x="270" y="380" as="sourcePoint" />
            <mxPoint x="320" y="330" as="targetPoint" />
            <Array as="points">
              <mxPoint x="274" y="380" />
            </Array>
          </mxGeometry>
        </mxCell>
        <mxCell id="lvr9O3ms66YcBcKYj9eZ-3" value="&lt;font style=&quot;font-size: 9px;&quot;&gt;Introduzione&lt;/font&gt;" style="shape=rhombus;perimeter=rhombusPerimeter;whiteSpace=wrap;html=1;align=center;" parent="1" vertex="1">
          <mxGeometry x="164" y="400" width="90" height="30" as="geometry" />
        </mxCell>
        <mxCell id="tMIwCdT1ieQN5h42mGWI-1" value="&lt;font style=&quot;font-size: 12px;&quot;&gt;Articolo_Scientifico&lt;/font&gt;" style="whiteSpace=wrap;html=1;align=center;fontSize=9;" parent="1" vertex="1">
          <mxGeometry x="24" y="400" width="120" height="30" as="geometry" />
        </mxCell>
        <mxCell id="2wbdW8TbTNjoSnX_G0vU-1" value="" style="endArrow=none;html=1;rounded=0;strokeColor=default;fontSize=12;entryX=0;entryY=0.5;entryDx=0;entryDy=0;exitX=1;exitY=0.5;exitDx=0;exitDy=0;" parent="1" source="lvr9O3ms66YcBcKYj9eZ-3" target="olAqIgZZ-a8TxkWpqyAC-13" edge="1">
          <mxGeometry width="50" height="50" relative="1" as="geometry">
            <mxPoint x="20" y="510" as="sourcePoint" />
            <mxPoint x="70" y="460" as="targetPoint" />
          </mxGeometry>
        </mxCell>
        <mxCell id="2wbdW8TbTNjoSnX_G0vU-2" value="" style="endArrow=none;html=1;rounded=0;strokeColor=default;fontSize=12;entryX=0;entryY=0.5;entryDx=0;entryDy=0;exitX=1;exitY=0.5;exitDx=0;exitDy=0;" parent="1" source="tMIwCdT1ieQN5h42mGWI-1" target="lvr9O3ms66YcBcKYj9eZ-3" edge="1">
          <mxGeometry width="50" height="50" relative="1" as="geometry">
            <mxPoint x="20" y="510" as="sourcePoint" />
            <mxPoint x="70" y="460" as="targetPoint" />
          </mxGeometry>
        </mxCell>
        <mxCell id="2wbdW8TbTNjoSnX_G0vU-3" value="&lt;font style=&quot;font-size: 9px;&quot;&gt;Esposizione&lt;/font&gt;" style="shape=rhombus;perimeter=rhombusPerimeter;whiteSpace=wrap;html=1;align=center;fontSize=7;" parent="1" vertex="1">
          <mxGeometry x="-86" y="400" width="90" height="30" as="geometry" />
        </mxCell>
        <mxCell id="NXbGjs5Y5WAjK556O5s2-1" value="&lt;font style=&quot;font-size: 12px;&quot;&gt;Conferenza&lt;/font&gt;" style="whiteSpace=wrap;html=1;align=center;fontSize=9;" parent="1" vertex="1">
          <mxGeometry x="-86" y="350" width="90" height="30" as="geometry" />
        </mxCell>
        <mxCell id="4ALKnyy7Qjv_XkRu0LuE-1" value="" style="endArrow=none;html=1;rounded=0;strokeColor=default;fontSize=12;entryX=0;entryY=0.5;entryDx=0;entryDy=0;exitX=1;exitY=0.5;exitDx=0;exitDy=0;" parent="1" source="2wbdW8TbTNjoSnX_G0vU-3" target="tMIwCdT1ieQN5h42mGWI-1" edge="1">
          <mxGeometry width="50" height="50" relative="1" as="geometry">
            <mxPoint x="-60" y="490" as="sourcePoint" />
            <mxPoint x="-10" y="440" as="targetPoint" />
          </mxGeometry>
        </mxCell>
        <mxCell id="4ALKnyy7Qjv_XkRu0LuE-2" value="" style="endArrow=none;html=1;rounded=0;strokeColor=default;fontSize=12;entryX=0.5;entryY=1;entryDx=0;entryDy=0;exitX=0.5;exitY=0;exitDx=0;exitDy=0;" parent="1" source="2wbdW8TbTNjoSnX_G0vU-3" target="NXbGjs5Y5WAjK556O5s2-1" edge="1">
          <mxGeometry width="50" height="50" relative="1" as="geometry">
            <mxPoint x="-190" y="500" as="sourcePoint" />
            <mxPoint x="-40" y="390" as="targetPoint" />
          </mxGeometry>
        </mxCell>
        <mxCell id="NhYSB4vU2ejs8FLz3NBw-2" value="Luogo" style="ellipse;whiteSpace=wrap;html=1;align=center;fontSize=12;" parent="1" vertex="1">
          <mxGeometry x="-71" y="310" width="60" height="30" as="geometry" />
        </mxCell>
        <mxCell id="NhYSB4vU2ejs8FLz3NBw-3" value="DataFine" style="ellipse;whiteSpace=wrap;html=1;align=center;fontSize=12;" parent="1" vertex="1">
          <mxGeometry x="14" y="350" width="70" height="30" as="geometry" />
        </mxCell>
        <mxCell id="NhYSB4vU2ejs8FLz3NBw-4" value="DataInizio" style="ellipse;whiteSpace=wrap;html=1;align=center;fontSize=12;" parent="1" vertex="1">
          <mxGeometry x="-176" y="350" width="80" height="30" as="geometry" />
        </mxCell>
        <mxCell id="IzkVy2_6WxOBIh-9cPon-1" value="" style="endArrow=none;html=1;rounded=0;strokeColor=default;fontSize=12;entryX=0.5;entryY=1;entryDx=0;entryDy=0;exitX=0.5;exitY=0;exitDx=0;exitDy=0;" parent="1" source="NXbGjs5Y5WAjK556O5s2-1" target="NhYSB4vU2ejs8FLz3NBw-2" edge="1">
          <mxGeometry width="50" height="50" relative="1" as="geometry">
            <mxPoint x="-160" y="260" as="sourcePoint" />
            <mxPoint x="-110" y="210" as="targetPoint" />
          </mxGeometry>
        </mxCell>
        <mxCell id="IzkVy2_6WxOBIh-9cPon-2" value="" style="endArrow=none;html=1;rounded=0;strokeColor=default;fontSize=12;entryX=0;entryY=0.5;entryDx=0;entryDy=0;exitX=1;exitY=0.5;exitDx=0;exitDy=0;" parent="1" source="NhYSB4vU2ejs8FLz3NBw-4" target="NXbGjs5Y5WAjK556O5s2-1" edge="1">
          <mxGeometry width="50" height="50" relative="1" as="geometry">
            <mxPoint x="-170" y="480" as="sourcePoint" />
            <mxPoint x="-120" y="430" as="targetPoint" />
          </mxGeometry>
        </mxCell>
        <mxCell id="IzkVy2_6WxOBIh-9cPon-3" value="" style="endArrow=none;html=1;rounded=0;strokeColor=default;fontSize=12;entryX=0;entryY=0.5;entryDx=0;entryDy=0;exitX=1;exitY=0.5;exitDx=0;exitDy=0;" parent="1" source="NXbGjs5Y5WAjK556O5s2-1" target="NhYSB4vU2ejs8FLz3NBw-3" edge="1">
          <mxGeometry width="50" height="50" relative="1" as="geometry">
            <mxPoint x="-200" y="490" as="sourcePoint" />
            <mxPoint x="-150" y="440" as="targetPoint" />
          </mxGeometry>
        </mxCell>
        <mxCell id="PRKl0yPmn2N0N3E4LpzT-1" value="LuogoConferenza" style="ellipse;whiteSpace=wrap;html=1;align=center;fontSize=12;" parent="1" vertex="1">
          <mxGeometry x="-101" y="269" width="120" height="30" as="geometry" />
        </mxCell>
        <mxCell id="PRKl0yPmn2N0N3E4LpzT-2" value="StrutturaOrganizzatrice" style="ellipse;whiteSpace=wrap;html=1;align=center;fontSize=12;" parent="1" vertex="1">
          <mxGeometry x="-231" y="310" width="150" height="30" as="geometry" />
        </mxCell>
        <mxCell id="PRKl0yPmn2N0N3E4LpzT-3" value="Nazione" style="ellipse;whiteSpace=wrap;html=1;align=center;fontSize=12;" parent="1" vertex="1">
          <mxGeometry x="-181" y="269" width="70" height="30" as="geometry" />
        </mxCell>
        <mxCell id="PRKl0yPmn2N0N3E4LpzT-4" value="Città" style="ellipse;whiteSpace=wrap;html=1;align=center;fontSize=12;" parent="1" vertex="1">
          <mxGeometry x="29" y="269" width="50" height="30" as="geometry" />
        </mxCell>
        <mxCell id="PRKl0yPmn2N0N3E4LpzT-5" value="Indirizzo" style="ellipse;whiteSpace=wrap;html=1;align=center;fontSize=12;" parent="1" vertex="1">
          <mxGeometry x="-76" y="229" width="70" height="30" as="geometry" />
        </mxCell>
        <mxCell id="PRKl0yPmn2N0N3E4LpzT-6" value="" style="endArrow=none;html=1;rounded=0;strokeColor=default;fontSize=12;entryX=0;entryY=0.5;entryDx=0;entryDy=0;exitX=1;exitY=0.5;exitDx=0;exitDy=0;" parent="1" source="PRKl0yPmn2N0N3E4LpzT-3" target="PRKl0yPmn2N0N3E4LpzT-1" edge="1">
          <mxGeometry width="50" height="50" relative="1" as="geometry">
            <mxPoint x="-240" y="430" as="sourcePoint" />
            <mxPoint x="-190" y="380" as="targetPoint" />
          </mxGeometry>
        </mxCell>
        <mxCell id="PRKl0yPmn2N0N3E4LpzT-7" value="" style="endArrow=none;html=1;rounded=0;strokeColor=default;fontSize=12;entryX=0.5;entryY=1;entryDx=0;entryDy=0;exitX=0.5;exitY=0;exitDx=0;exitDy=0;" parent="1" source="PRKl0yPmn2N0N3E4LpzT-1" target="PRKl0yPmn2N0N3E4LpzT-5" edge="1">
          <mxGeometry width="50" height="50" relative="1" as="geometry">
            <mxPoint x="-230" y="490" as="sourcePoint" />
            <mxPoint x="-180" y="440" as="targetPoint" />
          </mxGeometry>
        </mxCell>
        <mxCell id="PRKl0yPmn2N0N3E4LpzT-8" value="" style="endArrow=none;html=1;rounded=0;strokeColor=default;fontSize=12;entryX=0;entryY=0.5;entryDx=0;entryDy=0;exitX=1;exitY=0.5;exitDx=0;exitDy=0;" parent="1" source="PRKl0yPmn2N0N3E4LpzT-1" target="PRKl0yPmn2N0N3E4LpzT-4" edge="1">
          <mxGeometry width="50" height="50" relative="1" as="geometry">
            <mxPoint x="-250" y="450" as="sourcePoint" />
            <mxPoint x="-200" y="400" as="targetPoint" />
          </mxGeometry>
        </mxCell>
        <mxCell id="PRKl0yPmn2N0N3E4LpzT-9" value="" style="endArrow=none;html=1;rounded=0;strokeColor=default;fontSize=12;entryX=0;entryY=0.5;entryDx=0;entryDy=0;exitX=1;exitY=0.5;exitDx=0;exitDy=0;" parent="1" source="PRKl0yPmn2N0N3E4LpzT-2" target="NhYSB4vU2ejs8FLz3NBw-2" edge="1">
          <mxGeometry width="50" height="50" relative="1" as="geometry">
            <mxPoint x="-220" y="500" as="sourcePoint" />
            <mxPoint x="-170" y="450" as="targetPoint" />
          </mxGeometry>
        </mxCell>
        <mxCell id="PRKl0yPmn2N0N3E4LpzT-10" value="" style="endArrow=none;html=1;rounded=0;strokeColor=default;fontSize=12;entryX=0.5;entryY=1;entryDx=0;entryDy=0;exitX=0.5;exitY=0;exitDx=0;exitDy=0;" parent="1" source="NhYSB4vU2ejs8FLz3NBw-2" target="PRKl0yPmn2N0N3E4LpzT-1" edge="1">
          <mxGeometry width="50" height="50" relative="1" as="geometry">
            <mxPoint x="-230" y="470" as="sourcePoint" />
            <mxPoint x="-180" y="420" as="targetPoint" />
          </mxGeometry>
        </mxCell>
        <mxCell id="MfFO3_nmnk-N2Z0fLVYz-1" value="Autore" style="ellipse;shape=doubleEllipse;margin=3;whiteSpace=wrap;html=1;align=center;fontSize=12;" parent="1" vertex="1">
          <mxGeometry x="-71" y="481" width="60" height="30" as="geometry" />
        </mxCell>
        <mxCell id="MfFO3_nmnk-N2Z0fLVYz-2" value="Nome" style="ellipse;whiteSpace=wrap;html=1;align=center;fontSize=12;" parent="1" vertex="1">
          <mxGeometry x="-71" y="521" width="60" height="30" as="geometry" />
        </mxCell>
        <mxCell id="MfFO3_nmnk-N2Z0fLVYz-3" value="DataNascita" style="ellipse;whiteSpace=wrap;html=1;align=center;fontSize=12;" parent="1" vertex="1">
          <mxGeometry x="-86" y="440" width="90" height="30" as="geometry" />
        </mxCell>
        <mxCell id="MfFO3_nmnk-N2Z0fLVYz-4" value="Nazionalità" style="ellipse;whiteSpace=wrap;html=1;align=center;fontSize=12;" parent="1" vertex="1">
          <mxGeometry x="-161" y="521" width="80" height="30" as="geometry" />
        </mxCell>
        <mxCell id="MfFO3_nmnk-N2Z0fLVYz-5" value="Cognome" style="ellipse;whiteSpace=wrap;html=1;align=center;fontSize=12;" parent="1" vertex="1">
          <mxGeometry y="521" width="80" height="30" as="geometry" />
        </mxCell>
        <mxCell id="MfFO3_nmnk-N2Z0fLVYz-6" value="" style="endArrow=none;html=1;rounded=0;strokeColor=default;fontSize=12;exitX=0.5;exitY=1;exitDx=0;exitDy=0;entryX=0.5;entryY=0;entryDx=0;entryDy=0;" parent="1" source="MfFO3_nmnk-N2Z0fLVYz-1" target="MfFO3_nmnk-N2Z0fLVYz-2" edge="1">
          <mxGeometry width="50" height="50" relative="1" as="geometry">
            <mxPoint x="15" y="581" as="sourcePoint" />
            <mxPoint x="65" y="531" as="targetPoint" />
          </mxGeometry>
        </mxCell>
        <mxCell id="MfFO3_nmnk-N2Z0fLVYz-7" value="" style="endArrow=none;html=1;rounded=0;strokeColor=default;fontSize=12;entryX=0.5;entryY=1;entryDx=0;entryDy=0;exitX=0.5;exitY=0;exitDx=0;exitDy=0;" parent="1" source="MfFO3_nmnk-N2Z0fLVYz-1" edge="1">
          <mxGeometry width="50" height="50" relative="1" as="geometry">
            <mxPoint x="5" y="581" as="sourcePoint" />
            <mxPoint x="-41" y="469.9999999999999" as="targetPoint" />
          </mxGeometry>
        </mxCell>
        <mxCell id="MfFO3_nmnk-N2Z0fLVYz-10" value="" style="endArrow=none;html=1;rounded=0;strokeColor=default;fontSize=12;exitX=0.75;exitY=1;exitDx=0;exitDy=0;entryX=0.5;entryY=0;entryDx=0;entryDy=0;" parent="1" source="tMIwCdT1ieQN5h42mGWI-1" target="893Ib8MkMK_CjX8oUeG9-2" edge="1">
          <mxGeometry x="-1" y="47" width="50" height="50" relative="1" as="geometry">
            <mxPoint x="84" y="470" as="sourcePoint" />
            <mxPoint x="80" y="500" as="targetPoint" />
            <mxPoint x="-11" y="-36" as="offset" />
          </mxGeometry>
        </mxCell>
        <mxCell id="MfFO3_nmnk-N2Z0fLVYz-11" value="" style="endArrow=none;html=1;rounded=0;strokeColor=default;fontSize=12;entryX=0.25;entryY=1;entryDx=0;entryDy=0;startArrow=none;exitX=0.5;exitY=0;exitDx=0;exitDy=0;" parent="1" source="893Ib8MkMK_CjX8oUeG9-1" target="tMIwCdT1ieQN5h42mGWI-1" edge="1">
          <mxGeometry width="50" height="50" relative="1" as="geometry">
            <mxPoint x="54" y="480" as="sourcePoint" />
            <mxPoint x="70" y="520" as="targetPoint" />
          </mxGeometry>
        </mxCell>
        <mxCell id="MfFO3_nmnk-N2Z0fLVYz-12" value="" style="endArrow=none;html=1;rounded=0;strokeColor=default;fontSize=12;entryX=0;entryY=1;entryDx=0;entryDy=0;exitX=1;exitY=0.5;exitDx=0;exitDy=0;" parent="1" source="MfFO3_nmnk-N2Z0fLVYz-1" target="tMIwCdT1ieQN5h42mGWI-1" edge="1">
          <mxGeometry width="50" height="50" relative="1" as="geometry">
            <mxPoint x="24" y="500" as="sourcePoint" />
            <mxPoint x="80" y="530" as="targetPoint" />
            <Array as="points">
              <mxPoint x="24" y="496" />
            </Array>
          </mxGeometry>
        </mxCell>
        <mxCell id="MfFO3_nmnk-N2Z0fLVYz-14" value="" style="endArrow=none;html=1;rounded=0;strokeColor=default;fontSize=12;entryX=0;entryY=1;entryDx=0;entryDy=0;exitX=0.5;exitY=0;exitDx=0;exitDy=0;" parent="1" source="MfFO3_nmnk-N2Z0fLVYz-4" target="MfFO3_nmnk-N2Z0fLVYz-1" edge="1">
          <mxGeometry width="50" height="50" relative="1" as="geometry">
            <mxPoint x="-121.00000000000011" y="520" as="sourcePoint" />
            <mxPoint x="-63.28647809209872" y="506.5698373974559" as="targetPoint" />
            <Array as="points">
              <mxPoint x="-121" y="507" />
            </Array>
          </mxGeometry>
        </mxCell>
        <mxCell id="MfFO3_nmnk-N2Z0fLVYz-20" value="" style="endArrow=none;html=1;rounded=0;strokeColor=default;fontSize=12;exitX=0.5;exitY=0;exitDx=0;exitDy=0;entryX=1;entryY=1;entryDx=0;entryDy=0;" parent="1" source="MfFO3_nmnk-N2Z0fLVYz-5" target="MfFO3_nmnk-N2Z0fLVYz-1" edge="1">
          <mxGeometry width="50" height="50" relative="1" as="geometry">
            <mxPoint x="40" y="518" as="sourcePoint" />
            <mxPoint x="-19.713521907901054" y="505.569837397456" as="targetPoint" />
            <Array as="points">
              <mxPoint x="40" y="507" />
            </Array>
          </mxGeometry>
        </mxCell>
        <mxCell id="893Ib8MkMK_CjX8oUeG9-2" value="DOI" style="ellipse;whiteSpace=wrap;html=1;align=center;fontSize=9;" parent="1" vertex="1">
          <mxGeometry x="94" y="440" width="40" height="20" as="geometry" />
        </mxCell>
        <mxCell id="893Ib8MkMK_CjX8oUeG9-3" value="AnnoPubblicazione" style="ellipse;whiteSpace=wrap;html=1;align=center;fontSize=9;" parent="1" vertex="1">
          <mxGeometry x="94" y="371" width="100" height="20" as="geometry" />
        </mxCell>
        <mxCell id="893Ib8MkMK_CjX8oUeG9-1" value="Titolo" style="ellipse;whiteSpace=wrap;html=1;align=center;fontSize=9;" parent="1" vertex="1">
          <mxGeometry x="29" y="440" width="50" height="20" as="geometry" />
        </mxCell>
        <mxCell id="893Ib8MkMK_CjX8oUeG9-5" value="" style="endArrow=none;html=1;rounded=0;strokeColor=default;fontSize=12;entryX=1;entryY=0;entryDx=0;entryDy=0;exitX=0.5;exitY=1;exitDx=0;exitDy=0;" parent="1" source="893Ib8MkMK_CjX8oUeG9-3" target="tMIwCdT1ieQN5h42mGWI-1" edge="1">
          <mxGeometry width="50" height="50" relative="1" as="geometry">
            <mxPoint x="150" y="490" as="sourcePoint" />
            <mxPoint x="200" y="440" as="targetPoint" />
          </mxGeometry>
        </mxCell>
        <mxCell id="hGcFVeQAqQNJIjYegkpm-1" value="1" style="text;strokeColor=none;fillColor=none;spacingLeft=4;spacingRight=4;overflow=hidden;rotatable=0;points=[[0,0.5],[1,0.5]];portConstraint=eastwest;fontSize=8;html=0;align=center;" parent="1" vertex="1">
          <mxGeometry x="282" y="501" width="34" height="20" as="geometry" />
        </mxCell>
        <mxCell id="hGcFVeQAqQNJIjYegkpm-2" value="N" style="text;strokeColor=none;fillColor=none;spacingLeft=4;spacingRight=4;overflow=hidden;rotatable=0;points=[[0,0.5],[1,0.5]];portConstraint=eastwest;fontSize=8;html=0;align=center;" parent="1" vertex="1">
          <mxGeometry x="245" y="412" width="34" height="20" as="geometry" />
        </mxCell>
        <mxCell id="hGcFVeQAqQNJIjYegkpm-3" value="(1,N)" style="text;strokeColor=none;fillColor=none;spacingLeft=4;spacingRight=4;overflow=hidden;rotatable=0;points=[[0,0.5],[1,0.5]];portConstraint=eastwest;fontSize=8;html=0;align=center;" parent="1" vertex="1">
          <mxGeometry x="244" y="396" width="34" height="20" as="geometry" />
        </mxCell>
        <mxCell id="hGcFVeQAqQNJIjYegkpm-4" value="(0,N)" style="text;strokeColor=none;fillColor=none;spacingLeft=4;spacingRight=4;overflow=hidden;rotatable=0;points=[[0,0.5],[1,0.5]];portConstraint=eastwest;fontSize=8;html=0;align=center;" parent="1" vertex="1">
          <mxGeometry x="138" y="395" width="34" height="20" as="geometry" />
        </mxCell>
        <mxCell id="2rSwWZhIfLJTTXHefFv3-1" value="(1,N)" style="text;strokeColor=none;fillColor=none;spacingLeft=4;spacingRight=4;overflow=hidden;rotatable=0;points=[[0,0.5],[1,0.5]];portConstraint=eastwest;fontSize=8;html=0;align=center;" parent="1" vertex="1">
          <mxGeometry x="-45" y="377" width="34" height="20" as="geometry" />
        </mxCell>
        <mxCell id="2rSwWZhIfLJTTXHefFv3-2" value="N" style="text;strokeColor=none;fillColor=none;spacingLeft=4;spacingRight=4;overflow=hidden;rotatable=0;points=[[0,0.5],[1,0.5]];portConstraint=eastwest;fontSize=8;html=0;align=center;" parent="1" vertex="1">
          <mxGeometry x="-66" y="377" width="34" height="20" as="geometry" />
        </mxCell>
        <mxCell id="2rSwWZhIfLJTTXHefFv3-3" value="N" style="text;strokeColor=none;fillColor=none;spacingLeft=4;spacingRight=4;overflow=hidden;rotatable=0;points=[[0,0.5],[1,0.5]];portConstraint=eastwest;fontSize=8;html=0;align=center;" parent="1" vertex="1">
          <mxGeometry x="-5" y="412" width="34" height="20" as="geometry" />
        </mxCell>
        <mxCell id="2rSwWZhIfLJTTXHefFv3-4" value="(0,N)" style="text;strokeColor=none;fillColor=none;spacingLeft=4;spacingRight=4;overflow=hidden;rotatable=0;points=[[0,0.5],[1,0.5]];portConstraint=eastwest;fontSize=8;html=0;align=center;" parent="1" vertex="1">
          <mxGeometry x="-5" y="394" width="34" height="20" as="geometry" />
        </mxCell>
        <mxCell id="S3My7LR8mPxdTL3xop1w-6" value="" style="group" parent="1" vertex="1" connectable="0">
          <mxGeometry x="580" y="101" width="212" height="113" as="geometry" />
        </mxCell>
        <mxCell id="gxy6Bu4hQ7OO9fc_8tAW-11" value="Lettura" style="ellipse;whiteSpace=wrap;html=1;align=center;" parent="S3My7LR8mPxdTL3xop1w-6" vertex="1">
          <mxGeometry y="83" width="60" height="30" as="geometry" />
        </mxCell>
        <mxCell id="gxy6Bu4hQ7OO9fc_8tAW-7" value="Notifica" style="shape=rhombus;perimeter=rhombusPerimeter;whiteSpace=wrap;html=1;align=center;fontSize=12;" parent="S3My7LR8mPxdTL3xop1w-6" vertex="1">
          <mxGeometry x="71" y="42" width="60" height="30" as="geometry" />
        </mxCell>
        <mxCell id="gxy6Bu4hQ7OO9fc_8tAW-8" value="Libreria" style="ellipse;whiteSpace=wrap;html=1;align=center;" parent="S3My7LR8mPxdTL3xop1w-6" vertex="1">
          <mxGeometry x="142" width="60" height="30" as="geometry" />
        </mxCell>
        <mxCell id="gxy6Bu4hQ7OO9fc_8tAW-10" value="OraInvio" style="ellipse;whiteSpace=wrap;html=1;align=center;" parent="S3My7LR8mPxdTL3xop1w-6" vertex="1">
          <mxGeometry x="142" y="42" width="70" height="30" as="geometry" />
        </mxCell>
        <mxCell id="gxy6Bu4hQ7OO9fc_8tAW-20" value="DataInvio" style="ellipse;whiteSpace=wrap;html=1;align=center;" parent="S3My7LR8mPxdTL3xop1w-6" vertex="1">
          <mxGeometry x="142" y="83" width="70" height="30" as="geometry" />
        </mxCell>
        <mxCell id="gxy6Bu4hQ7OO9fc_8tAW-21" value="Testo" style="ellipse;whiteSpace=wrap;html=1;align=center;" parent="S3My7LR8mPxdTL3xop1w-6" vertex="1">
          <mxGeometry x="76" y="2" width="50" height="30" as="geometry" />
        </mxCell>
        <mxCell id="S3My7LR8mPxdTL3xop1w-1" value="" style="endArrow=none;html=1;rounded=0;entryX=1;entryY=0.5;entryDx=0;entryDy=0;exitX=0;exitY=0.5;exitDx=0;exitDy=0;" parent="S3My7LR8mPxdTL3xop1w-6" source="gxy6Bu4hQ7OO9fc_8tAW-10" target="gxy6Bu4hQ7OO9fc_8tAW-7" edge="1">
          <mxGeometry width="50" height="50" relative="1" as="geometry">
            <mxPoint x="50" y="142" as="sourcePoint" />
            <mxPoint x="100" y="92" as="targetPoint" />
          </mxGeometry>
        </mxCell>
        <mxCell id="S3My7LR8mPxdTL3xop1w-2" value="" style="endArrow=none;html=1;rounded=0;entryX=0.5;entryY=0;entryDx=0;entryDy=0;exitX=0.5;exitY=1;exitDx=0;exitDy=0;" parent="S3My7LR8mPxdTL3xop1w-6" source="gxy6Bu4hQ7OO9fc_8tAW-21" target="gxy6Bu4hQ7OO9fc_8tAW-7" edge="1">
          <mxGeometry width="50" height="50" relative="1" as="geometry">
            <mxPoint x="70" y="142" as="sourcePoint" />
            <mxPoint x="120" y="92" as="targetPoint" />
          </mxGeometry>
        </mxCell>
        <mxCell id="S3My7LR8mPxdTL3xop1w-3" value="" style="endArrow=none;html=1;rounded=0;exitX=0.765;exitY=0.265;exitDx=0;exitDy=0;exitPerimeter=0;entryX=0;entryY=0.5;entryDx=0;entryDy=0;" parent="S3My7LR8mPxdTL3xop1w-6" source="gxy6Bu4hQ7OO9fc_8tAW-7" target="gxy6Bu4hQ7OO9fc_8tAW-8" edge="1">
          <mxGeometry width="50" height="50" relative="1" as="geometry">
            <mxPoint x="120.80000000000018" y="49.84" as="sourcePoint" />
            <mxPoint x="140" y="12" as="targetPoint" />
            <Array as="points">
              <mxPoint x="130" y="50" />
              <mxPoint x="130" y="15" />
            </Array>
          </mxGeometry>
        </mxCell>
        <mxCell id="S3My7LR8mPxdTL3xop1w-4" value="" style="endArrow=none;html=1;rounded=0;entryX=0;entryY=0.5;entryDx=0;entryDy=0;exitX=0.771;exitY=0.729;exitDx=0;exitDy=0;exitPerimeter=0;" parent="S3My7LR8mPxdTL3xop1w-6" source="gxy6Bu4hQ7OO9fc_8tAW-7" edge="1">
          <mxGeometry width="50" height="50" relative="1" as="geometry">
            <mxPoint x="120" y="64" as="sourcePoint" />
            <mxPoint x="141.9999999999925" y="98" as="targetPoint" />
            <Array as="points">
              <mxPoint x="130" y="64" />
              <mxPoint x="130" y="98" />
            </Array>
          </mxGeometry>
        </mxCell>
        <mxCell id="S3My7LR8mPxdTL3xop1w-5" value="" style="endArrow=none;html=1;rounded=0;entryX=0;entryY=0.5;entryDx=0;entryDy=0;exitX=0.771;exitY=0.729;exitDx=0;exitDy=0;exitPerimeter=0;" parent="S3My7LR8mPxdTL3xop1w-6" edge="1">
          <mxGeometry width="50" height="50" relative="1" as="geometry">
            <mxPoint x="84.9999999999925" y="63.870000000000005" as="sourcePoint" />
            <mxPoint x="60.25999999999999" y="98" as="targetPoint" />
            <Array as="points">
              <mxPoint x="72.25999999999249" y="64" />
              <mxPoint x="72.25999999999249" y="98" />
            </Array>
          </mxGeometry>
        </mxCell>
        <mxCell id="S3My7LR8mPxdTL3xop1w-7" value="" style="endArrow=none;html=1;rounded=0;exitX=1;exitY=0.5;exitDx=0;exitDy=0;entryX=0;entryY=0.5;entryDx=0;entryDy=0;" parent="1" target="gxy6Bu4hQ7OO9fc_8tAW-7" edge="1">
          <mxGeometry width="50" height="50" relative="1" as="geometry">
            <mxPoint x="504" y="211" as="sourcePoint" />
            <mxPoint x="650.9999999999998" y="159" as="targetPoint" />
            <Array as="points">
              <mxPoint x="560" y="211" />
              <mxPoint x="560" y="158" />
            </Array>
          </mxGeometry>
        </mxCell>
        <mxCell id="S3My7LR8mPxdTL3xop1w-8" value="" style="endArrow=none;html=1;rounded=0;exitX=0.5;exitY=1;exitDx=0;exitDy=0;entryX=0;entryY=1;entryDx=0;entryDy=0;" parent="1" source="gxy6Bu4hQ7OO9fc_8tAW-7" target="Z4qeNHrk9Cf2c34KUtmA-1" edge="1">
          <mxGeometry width="50" height="50" relative="1" as="geometry">
            <mxPoint x="980" y="120" as="sourcePoint" />
            <mxPoint x="470" y="470" as="targetPoint" />
            <Array as="points">
              <mxPoint x="681" y="230" />
              <mxPoint x="1010" y="230" />
              <mxPoint x="1010" y="600" />
              <mxPoint x="444" y="600" />
            </Array>
          </mxGeometry>
        </mxCell>
        <mxCell id="S3My7LR8mPxdTL3xop1w-9" value="" style="endArrow=none;html=1;rounded=0;entryX=0.5;entryY=1;entryDx=0;entryDy=0;startArrow=none;exitX=0.5;exitY=0;exitDx=0;exitDy=0;" parent="1" source="r04S23seflIl8E-D0AK2-1" target="Z4qeNHrk9Cf2c34KUtmA-1" edge="1">
          <mxGeometry width="50" height="50" relative="1" as="geometry">
            <mxPoint x="470" y="460" as="sourcePoint" />
            <mxPoint x="490" y="440" as="targetPoint" />
          </mxGeometry>
        </mxCell>
        <mxCell id="S3My7LR8mPxdTL3xop1w-10" value="" style="endArrow=none;html=1;rounded=0;entryX=0.5;entryY=1;entryDx=0;entryDy=0;" parent="1" target="r04S23seflIl8E-D0AK2-1" edge="1">
          <mxGeometry width="50" height="50" relative="1" as="geometry">
            <mxPoint x="470" y="460" as="sourcePoint" />
            <mxPoint x="469" y="429.99999999999994" as="targetPoint" />
          </mxGeometry>
        </mxCell>
        <mxCell id="r04S23seflIl8E-D0AK2-1" value="&lt;font style=&quot;font-size: 10px;&quot;&gt;NLibri&lt;/font&gt;" style="ellipse;whiteSpace=wrap;html=1;align=center;fontSize=12;" parent="1" vertex="1">
          <mxGeometry x="449" y="450" width="40" height="30" as="geometry" />
        </mxCell>
        <mxCell id="7ju4f7Fx5bToP8DeyD7N-1" value="(0,N)" style="text;strokeColor=none;fillColor=none;spacingLeft=4;spacingRight=4;overflow=hidden;rotatable=0;points=[[0,0.5],[1,0.5]];portConstraint=eastwest;fontSize=8;html=0;align=center;" parent="1" vertex="1">
          <mxGeometry x="441" y="429" width="29" height="20" as="geometry" />
        </mxCell>
        <mxCell id="7ju4f7Fx5bToP8DeyD7N-2" value="N" style="text;strokeColor=none;fillColor=none;spacingLeft=4;spacingRight=4;overflow=hidden;rotatable=0;points=[[0,0.5],[1,0.5]];portConstraint=eastwest;fontSize=8;html=0;align=center;" parent="1" vertex="1">
          <mxGeometry x="416" y="430" width="34" height="20" as="geometry" />
        </mxCell>
        <mxCell id="7ju4f7Fx5bToP8DeyD7N-3" value="(0,N)" style="text;strokeColor=none;fillColor=none;spacingLeft=4;spacingRight=4;overflow=hidden;rotatable=0;points=[[0,0.5],[1,0.5]];portConstraint=eastwest;fontSize=8;html=0;align=center;" parent="1" vertex="1">
          <mxGeometry x="502" y="191" width="34" height="20" as="geometry" />
        </mxCell>
        <mxCell id="7ju4f7Fx5bToP8DeyD7N-4" value="N" style="text;strokeColor=none;fillColor=none;spacingLeft=4;spacingRight=4;overflow=hidden;rotatable=0;points=[[0,0.5],[1,0.5]];portConstraint=eastwest;fontSize=8;html=0;align=center;" parent="1" vertex="1">
          <mxGeometry x="502" y="209" width="34" height="20" as="geometry" />
        </mxCell>
        <mxCell id="1JAd3wX5eyNbk4Ki27Vl-3" value="PartitaIVA" style="ellipse;whiteSpace=wrap;html=1;align=center;fontSize=12;" parent="1" vertex="1">
          <mxGeometry x="220" y="245" width="90" height="30" as="geometry" />
        </mxCell>
        <mxCell id="1JAd3wX5eyNbk4Ki27Vl-4" value="" style="endArrow=none;html=1;rounded=0;entryX=0;entryY=1;entryDx=0;entryDy=0;exitX=1;exitY=0.5;exitDx=0;exitDy=0;" parent="1" source="1JAd3wX5eyNbk4Ki27Vl-3" target="olAqIgZZ-a8TxkWpqyAC-7" edge="1">
          <mxGeometry width="50" height="50" relative="1" as="geometry">
            <mxPoint x="280" y="310" as="sourcePoint" />
            <mxPoint x="324" y="225" as="targetPoint" />
            <Array as="points">
              <mxPoint x="320" y="260" />
              <mxPoint x="320" y="225" />
            </Array>
          </mxGeometry>
        </mxCell>
      </root>
    </mxGraphModel>
  </diagram>
</mxfile>
